SplineFontDB: 3.2
FontName: Paribartan2
FullName: Paribartan2
FamilyName: Paribartan
Weight: Regular
Copyright: Copyright 2024 The Paribartan Project Authors (github.com/mitradranirban/paribartan)
Version: 0.001
ItalicAngle: 0
UnderlinePosition: 0
UnderlineWidth: 0
Ascent: 800
Descent: 200
InvalidEm: 1
UFOAscent: 800
UFODescent: -250
LayerCount: 2
Layer: 0 0 "Back" 1
Layer: 1 0 "Fore" 0
StyleMap: 0x0000
FSType: 0
OS2Version: 0
OS2_WeightWidthSlopeOnly: 0
OS2_UseTypoMetrics: 0
CreationTime: 1733728903
ModificationTime: 1734456802
PfmFamily: 17
TTFWeight: 400
TTFWidth: 5
LineGap: 0
VLineGap: 0
OS2TypoAscent: 1200
OS2TypoAOffset: 0
OS2TypoDescent: -400
OS2TypoDOffset: 0
OS2TypoLinegap: 0
OS2WinAscent: 1160
OS2WinAOffset: 0
OS2WinDescent: 348
OS2WinDOffset: 0
HheadAscent: 1200
HheadAOffset: 0
HheadDescent: -400
HheadDOffset: 0
OS2CapHeight: 750
OS2XHeight: 500
OS2Vendor: 'anir'
MarkAttachClasses: 1
DEI: 91125
LangName: 1033 "" "" "" "" "" "" "" "" "Dr Anirban Mitra" "Dr Anirban Mitra" "Variable Color Bengali Font" "https://fonts.atipra.in" "https://github.com/mitradranirban" "This Font Software is licensed under the SIL Open Font License, Version 1.1. This license is available with a FAQ at: https://openfontlicense.org+ACIA" " https://openfontlicense.org"
PickledDataWithLists: "(dp0
Vxyz.fontra.lineMetricsHorizontalLayout.zones
p1
(dp2
Vascender
p3
I16
sVbaseline
p4
I-16
sVcapHeight
p5
I16
sVdescender
p6
I-16
sVxHeight
p7
I16
ss."
Encoding: UnicodeBmp
Compacted: 1
UnicodeInterp: none
NameList: AGL For New Fonts
DisplaySize: -128
AntiAlias: 1
FitToEm: 1
WidthSeparation: 150
WinInfo: 360 10 4
BeginPrivate: 0
EndPrivate
Grid
-1000 -402 m 0
 2000 -402 l 1024
-1000 510.5 m 0
 2000 510.5 l 1024
  Named: "XHGHT"
-982 752 m 0
 2018 752 l 1024
  Named: "CAPS"
-1000 1202 m 0
 2000 1202 l 1024
EndSplineSet
BeginChars: 65538 453

StartChar: exclam
Encoding: 33 33 0
Width: 252
VWidth: 0
Flags: HW
HStem: -2 142<50 202>
VStem: 50 152<-2 140 258 772>
LayerCount: 2
Fore
SplineSet
50 -2 m 1
 50 140 l 1
 202 140 l 1
 202 -2 l 1
 50 -2 l 1
50 258 m 1
 50 772 l 1
 202 772 l 1
 202 258 l 1
 50 258 l 1
EndSplineSet
EndChar

StartChar: quotedbl
Encoding: 34 34 1
Width: 452
VWidth: 0
Flags: HW
HStem: 532 257<50 202 250 402>
VStem: 50 152<532 789> 250 152<532 789>
LayerCount: 2
Fore
SplineSet
50 532 m 1
 50 789 l 1
 202 789 l 1
 202 532 l 1
 50 532 l 1
250 532 m 1
 250 789 l 1
 402 789 l 1
 402 532 l 1
 250 532 l 1
EndSplineSet
EndChar

StartChar: numbersign
Encoding: 35 35 2
Width: 644
VWidth: 0
Flags: HW
HStem: 216 152<55 64.8453 243.718 364.845 543.718 599> 466 152<55 109.044 287.917 409.044 587.917 599>
LayerCount: 2
Fore
SplineSet
409.044198895 466 m 1
 261.044198895 466 l 1
 243.718232044 368 l 1
 391.718232044 368 l 1
 409.044198895 466 l 1
149 692 m 1
 301 692 l 1
 287.917127072 618 l 1
 435.917127072 618 l 1
 449 692 l 1
 601 692 l 1
 587.917127072 618 l 1
 599 618 l 1
 599 466 l 1
 561.044198895 466 l 1
 543.718232044 368 l 1
 599 368 l 1
 599 216 l 1
 516.845303867 216 l 1
 505 149 l 1
 353 149 l 1
 364.845303867 216 l 1
 216.845303867 216 l 1
 205 149 l 1
 53 149 l 1
 64.8453038674 216 l 1
 55 216 l 1
 55 368 l 1
 91.7182320442 368 l 1
 109.044198895 466 l 1
 55 466 l 1
 55 618 l 1
 135.917127072 618 l 1
 149 692 l 1
EndSplineSet
EndChar

StartChar: dollar
Encoding: 36 36 3
Width: 512
VWidth: 0
Flags: HW
VStem: 253 210.5<155.062 301.804> 253 79<-182 -0.345529 442.672 585.787 774.489 1030>
LayerCount: 2
Fore
SplineSet
253 585.786987628 m 1
 246.98060167 579.74485626 241.647268336 572.815860384 237 565 c 0
 220.333333333 537.666666667 218.833333333 507.666666667 232.5 475 c 0
 237.901451462 462.089213579 244.734784795 451.313232858 253 442.672057836 c 1
 253 585.786987628 l 1
60 57 m 2
 135 182 l 1
 140.333333333 178 147.666666667 173 157 167 c 0
 182.333333333 152.333333333 209.333333333 148.333333333 238 155 c 0
 243.245543236 156.219893776 248.245543236 157.741136069 253 159.563726878 c 1
 253 309.608321509 l 1
 246.412287954 311.996122309 239.412287954 313.793348473 232 315 c 0
 199.333333333 333 171 353 147 375 c 0
 123 397 104 421.666666667 90 449 c 0
 76 476.333333333 70 506.333333333 72 539 c 0
 74 571.666666667 85.3333333333 605 106 639 c 0
 140.18626834 695.16315513 189.18626834 734.835552375 253 758.017191734 c 1
 253 1030 l 1
 332 1030 l 1
 332 774.489432646 l 1
 379.18066614 775.872802808 421.18066614 760.042991926 458 727 c 0
 460 725 463.5 722.5 468.5 719.5 c 0
 473.5 716.5 477 714 479 712 c 2
 404 587 l 1
 396 593.666666667 388.666666667 598.666666667 382 602 c 0
 365.936434903 610.877233343 349.269768237 615.532755695 332 615.966567057 c 1
 332 400.544512926 l 1
 351.361329682 388.93680017 368.361329682 377.255295861 383 365.5 c 0
 405 347.833333333 424.166666667 327.333333333 440.5 304 c 0
 456.833333333 280.666666667 464.5 254.333333333 463.5 225 c 0
 462.5 195.666666667 452 164 432 130 c 0
 408.666666667 90.6666666667 375.5 58.1666666667 332.5 32.5 c 0
 332.333343348 32.4005227733 332.166676681 32.3012358169 332 32.2021391306 c 2
 332 -182 l 1
 253 -182 l 1
 253 -0.345529008978 l 1
 235.934473186 -4.31867653794 218.767806519 -6.37016686828 201.5 -6.5 c 0
 157.166666667 -6.83333333333 117 9.33333333333 81 42 c 0
 79 44 75.5 46.5 70.5 49.5 c 0
 65.5 52.5 62 55 60 57 c 2
EndSplineSet
EndChar

StartChar: percent
Encoding: 37 37 4
Width: 691
VWidth: 0
Flags: HW
HStem: 82 75<498.188 521.812> 264 75<498.188 521.812> 483 75<193.188 216.812> 665 75<193.188 216.812>
VStem: 75 76<568.334 654.111> 259 76<568.933 653.698> 380 76<167.334 253.111> 564 76<167.933 252.698>
LayerCount: 2
Fore
SplineSet
535 818 m 1
 641 757 l 1
 156 -83 l 1
 50 -22 l 1
 535 818 l 1
510 264 m 0
 506 264 502 263 498 262 c 1
 498 263 l 1
 473 258 456 236 456 210 c 0
 456 184 473 163 498 158 c 1
 498 159 l 1
 502 158 506 157 510 157 c 0
 514 157 518 158 522 159 c 1
 522 158 l 1
 547 163 564 184 564 210 c 0
 564 236 547 258 522 263 c 1
 522 262 l 1
 518 263 514 264 510 264 c 0
509 82 m 0
 508 82 508 82 507 82 c 0
 505 82 502 82 500 82 c 0
 433 87 380 142 380 210 c 0
 380 278 433 334 500 339 c 0
 502 339 505 339 507 339 c 0
 508 339 508 339 509 339 c 0
 510 339 510 339 511 339 c 0
 583 339 640 282 640 210 c 0
 640 139 583 82 511 82 c 0
 510 82 510 82 509 82 c 0
205 665 m 4
 201 665 197 664 193 663 c 5
 193 664 l 5
 168 659 151 637 151 611 c 4
 151 585 168 564 193 559 c 5
 193 560 l 5
 197 559 201 558 205 558 c 4
 209 558 213 559 217 560 c 5
 217 559 l 5
 242 564 259 585 259 611 c 4
 259 637 242 659 217 664 c 5
 217 663 l 5
 213 664 209 665 205 665 c 4
204 483 m 4
 203 483 203 483 202 483 c 4
 200 483 197 483 195 483 c 4
 128 488 75 543 75 611 c 4
 75 679 128 735 195 740 c 4
 197 740 200 740 202 740 c 4
 203 740 203 740 204 740 c 4
 205 740 205 740 206 740 c 4
 278 740 335 683 335 611 c 4
 335 540 278 483 206 483 c 4
 205 483 205 483 204 483 c 4
EndSplineSet
EndChar

StartChar: ampersand
Encoding: 38 38 5
Width: 649
VWidth: 0
Flags: HW
HStem: 3 151<250.364 321.357> 498 20G<297.268 319.279>
VStem: 56.8926 151<196.066 271.468>
LayerCount: 2
Fore
SplineSet
321.578125 157.893554688 m 1
 208.534179688 272.051757812 l 1
 208.110351562 268.1015625 207.892578125 264.081054688 207.892578125 260 c 0
 207.892578125 201 254.892578125 154 314.892578125 154 c 0
 315.63671875 154 317.953125 155.373046875 321.578125 157.893554688 c 1
388.892578125 810 m 1
 385.892578125 691 l 1
 360.892578125 689 242.892578125 624 223.892578125 605 c 0
 200.892578125 582 190.892578125 551 192.892578125 521 c 1
 215.551757812 498.340820312 l 1
 246.095703125 511.012695312 279.643554688 518 314.892578125 518 c 0
 323.666015625 518 332.338867188 517.560546875 340.892578125 516.704101562 c 1
 340.892578125 373 l 1
 452.024414062 261.868164062 l 1
 509.897460938 309.09375 564.953125 354.163085938 568.892578125 355.131835938 c 1
 568.892578125 202.295898438 l 2
 567.041015625 202.110351562 554.50390625 192.668945312 535.904296875 177.98828125 c 1
 599.892578125 114 l 1
 481.892578125 -4 l 1
 405.688476562 72.955078125 l 1
 358.41015625 34.77734375 318.403320312 3 314.892578125 3 c 0
 171.892578125 3 56.892578125 118 56.892578125 260 c 0
 56.892578125 307.479492188 69.5703125 351.873046875 91.7412109375 389.995117188 c 1
 75.892578125 406 l 1
 20.81640625 505.021484375 62.6962890625 608.463867188 116.892578125 712 c 0
 143.875 763.546875 356.1484375 829.728515625 388.892578125 810 c 1
EndSplineSet
EndChar

StartChar: quotesingle
Encoding: 39 39 6
Width: 252
VWidth: 0
Flags: HW
HStem: 532 257<50 202>
VStem: 50 152<532 789>
LayerCount: 2
Fore
SplineSet
50 532 m 1
 50 789 l 1
 202 789 l 1
 202 532 l 1
 50 532 l 1
EndSplineSet
EndChar

StartChar: parenleft
Encoding: 40 40 7
Width: 555
VWidth: 0
Flags: HW
HStem: -14 25<373.819 460.389> 744 29<364.924 455.227>
VStem: 50 104<252.783 504.708>
LayerCount: 2
Fore
SplineSet
432 744 m 1
 304 744 154 579 154 378 c 0
 154 176 304 11 432 11 c 1
 505 -7 l 1
 481 -12 457 -14 432 -14 c 0
 221 -14 50 162 50 380 c 0
 50 597 221 773 432 773 c 0
 457 773 481 771 505 766 c 1
 432 744 l 1
EndSplineSet
EndChar

StartChar: parenright
Encoding: 41 41 8
Width: 555
VWidth: 0
Flags: HW
HStem: -14 25<94.6111 181.181> 744 29<99.7727 190.076>
VStem: 401 104<252.783 504.708>
LayerCount: 2
Fore
SplineSet
123 744 m 1
 50 766 l 1
 74 771 98 773 123 773 c 0
 334 773 505 597 505 380 c 0
 505 162 334 -14 123 -14 c 0
 98 -14 74 -12 50 -7 c 1
 123 11 l 1
 251 11 401 176 401 378 c 0
 401 579 251 744 123 744 c 1
EndSplineSet
EndChar

StartChar: asterisk
Encoding: 42 42 9
Width: 644
VWidth: 0
Flags: HW
HStem: 344 152<50 139 505 594>
VStem: 246 152<149 237 603 692>
LayerCount: 2
Fore
SplineSet
594 496 m 1
 594 344 l 1
 505 344 l 1
 568 281 l 1
 461 174 l 1
 398 237 l 1
 398 149 l 1
 246 149 l 1
 246 237 l 1
 183 174 l 1
 76 281 l 1
 139 344 l 1
 50 344 l 1
 50 496 l 1
 139 496 l 1
 76 559 l 1
 183 666 l 1
 246 603 l 1
 246 692 l 1
 398 692 l 1
 398 603 l 1
 461 666 l 1
 568 559 l 1
 505 496 l 1
 594 496 l 1
EndSplineSet
EndChar

StartChar: plus
Encoding: 43 43 10
Width: 644
VWidth: 0
Flags: HW
HStem: 344 152<50 594>
VStem: 246 152<149 692>
LayerCount: 2
Fore
SplineSet
246 692 m 1
 398 692 l 1
 398 496 l 1
 594 496 l 1
 594 344 l 1
 398 344 l 1
 398 149 l 1
 246 149 l 1
 246 344 l 1
 50 344 l 1
 50 496 l 1
 246 496 l 1
 246 692 l 1
EndSplineSet
EndChar

StartChar: comma
Encoding: 44 44 11
Width: 252
VWidth: 0
Flags: HW
HStem: -134 274<92.7671 145.182>
VStem: 50 152<-2 140>
LayerCount: 2
Fore
SplineSet
50 -2 m 1
 50 140 l 1
 202 140 l 1
 202 -2 l 1
 142 -134 l 1
 84 -130 l 1
 92.7671232877 -2 l 1
 50 -2 l 1
EndSplineSet
EndChar

StartChar: hyphen
Encoding: 45 45 12
Width: 644
VWidth: 0
Flags: HW
HStem: 344 152<50 594>
LayerCount: 2
Fore
SplineSet
594 496 m 1
 594 344 l 1
 50 344 l 1
 50 496 l 1
 594 496 l 1
EndSplineSet
EndChar

StartChar: period
Encoding: 46 46 13
Width: 252
VWidth: 0
Flags: HW
HStem: -2 142<50 202>
VStem: 50 152<-2 140>
LayerCount: 2
Fore
SplineSet
50 -2 m 1
 50 140 l 1
 202 140 l 1
 202 -2 l 1
 50 -2 l 1
EndSplineSet
EndChar

StartChar: slash
Encoding: 47 47 14
Width: 691
VWidth: 0
Flags: HW
LayerCount: 2
Fore
SplineSet
535 818 m 1
 641 757 l 1
 156 -83 l 1
 50 -22 l 1
 535 818 l 1
EndSplineSet
EndChar

StartChar: zero
Encoding: 48 48 15
Width: 864
VWidth: 0
Flags: HW
HStem: -14 157<356.32 508.56> 612 161<356.32 508.56>
VStem: 126.5 122<271.459 485.999> 615.5 122<268.943 488.503>
LayerCount: 2
Fore
SplineSet
615.5 378 m 0
 615.5 507 534.5 612 432.5 612 c 0
 330.5 612 248.5 507 248.5 378 c 0
 248.5 248 330.5 143 432.5 143 c 0
 534.5 143 615.5 248 615.5 378 c 0
737.5 380 m 0
 737.5 162 601.5 -14 432.5 -14 c 0
 263.5 -14 126.5 162 126.5 380 c 0
 126.5 597 263.5 773 432.5 773 c 0
 601.5 773 737.5 597 737.5 380 c 0
EndSplineSet
EndChar

StartChar: one
Encoding: 49 49 16
Width: 436
VWidth: 0
Flags: HW
HStem: -2 21G<234 386> 754 20G<234 386>
VStem: 234 152<-2 774>
LayerCount: 2
Fore
SplineSet
158 487 m 1
 50 594 l 1
 232 776 l 1
 234.018691589 774 l 1
 386 774 l 1
 386 -2 l 1
 234 -2 l 1
 234 563 l 1
 158 487 l 1
EndSplineSet
EndChar

StartChar: two
Encoding: 50 50 17
Width: 555
VWidth: 0
Flags: HW
HStem: 0 226<58.0748 244.22> 586 128.801<58.0915 234.536>
VStem: 359 153<324.465 477.36>
LayerCount: 2
Fore
SplineSet
130 586 m 0
 104.4453125 586 79.9033203125 582.599609375 57 576.325195312 c 1
 57 709.06640625 l 1
 80.62890625 712.829101562 105.034179688 714.80078125 130 714.80078125 c 0
 341 714.80078125 512 574 512 400.400390625 c 0
 512 270.616210938 417.301757812 167.858398438 281.891601562 123.775390625 c 1
 557 126.400390625 l 1
 557 4.80078125 l 1
 54 0 l 1
 57 235.682617188 l 1
 79.9033203125 229.401367188 104.4453125 226 130 226 c 0
 257 226 359 294.80078125 359 398.80078125 c 0
 359 502 257 586 130 586 c 0
EndSplineSet
EndChar

StartChar: three
Encoding: 51 51 18
Width: 435
VWidth: 0
Flags: HW
HStem: -6.12012 122.31<50 177.642> 288.149 122.641<101.207 198.605> 582.75 122.311<56 180.704>
VStem: 234 151<159.615 254.202 444.41 539.831>
LayerCount: 2
Fore
SplineSet
50 -5.0703125 m 1
 50 118.7265625 l 1
 58.326171875 117.068359375 67.0361328125 116.189453125 76 116.189453125 c 0
 164.59765625 116.189453125 234 154.260742188 234 202.049804688 c 0
 234 247.192382812 193.44921875 283.25 139.595703125 288.15234375 c 0
 135.422851562 287.991210938 131.223632812 287.91015625 127 287.91015625 c 0
 122.829101562 287.91015625 118.681640625 287.990234375 114.55859375 288.149414062 c 0
 109.943359375 287.72265625 105.41796875 287.061523438 101 286.1796875 c 1
 101 288.959960938 l 1
 101 409.979492188 l 1
 101 412.756835938 l 1
 105.41796875 411.876953125 109.943359375 411.216796875 114.557617188 410.790039062 c 0
 118.681640625 410.94921875 122.829101562 411.030273438 127 411.030273438 c 0
 131.224609375 411.030273438 135.423828125 410.948242188 139.59765625 410.787109375 c 0
 193.450195312 415.686523438 234 451.690429688 234 496.080078125 c 0
 234 544.6796875 167.233398438 582.75 82 582.75 c 0
 73.0361328125 582.75 64.326171875 581.87109375 56 580.209960938 c 1
 56 704.009765625 l 1
 64.5537109375 704.704101562 73.2265625 705.060546875 82 705.060546875 c 0
 249.94140625 705.060546875 385 611.91015625 385 496.080078125 c 0
 385 438.852539062 356.532226562 387.0390625 310.310546875 349.418945312 c 1
 356.532226562 311.696289062 385 259.680664062 385 202.049804688 c 0
 385 87.0302734375 247.267578125 -6.1201171875 76 -6.1201171875 c 0
 67.2265625 -6.1201171875 58.5537109375 -5.7646484375 50 -5.0703125 c 1
EndSplineSet
EndChar

StartChar: four
Encoding: 52 52 19
Width: 752
VWidth: 0
Flags: HW
HStem: 191.015 150<287.765 385.765> 754 20G<368.718 522.766>
VStem: 385.765 137.001<341.015 521.015> 393.764 129.002<0 192.015>
LayerCount: 2
Fore
SplineSet
385.764648438 341.014648438 m 1
 385.764648438 521.014648438 l 1
 287.764648438 344.014648438 l 1
 385.764648438 341.014648438 l 1
393.763671875 0 m 1
 393.763671875 192.014648438 l 1
 392.764648438 191.014648438 l 1
 57.7646484375 191.014648438 l 1
 379.764648438 774 l 1
 522.765625 774 l 1
 522.765625 0 l 1
 393.763671875 0 l 1
EndSplineSet
EndChar

StartChar: five
Encoding: 53 53 20
Width: 384
VWidth: 0
Flags: HW
HStem: 3 151<50 140.529> 622 152<202 367>
VStem: 50 152<471.593 622> 183 151<196.066 325.061>
LayerCount: 2
Fore
SplineSet
50 4 m 1
 50 157 l 1
 58 155 67 154 76 154 c 0
 136 154 183 201 183 260 c 0
 183 320 136 367 76 367 c 0
 67 367 58 366 50 364 c 1
 50 397 l 1
 50 517 l 1
 50 773 l 1
 51 773 l 1
 51 774 l 1
 368 774 l 1
 367 622 l 1
 202 622 l 1
 202 485 l 1
 281 441 334 357 334 260 c 0
 334 118 219 3 76 3 c 0
 67 3 59 3 50 4 c 1
EndSplineSet
EndChar

StartChar: six
Encoding: 54 54 21
Width: 729
VWidth: 0
Flags: HW
HStem: 612 161<337.002 549.858>
VStem: 50 224<251.187 324.857> 492 167<195.982 323.016>
LayerCount: 2
Fore
SplineSet
382.955078125 366.982421875 m 0
 374.64227937 367.129037445 366.393982318 365.848222764 359 364 c 1
 359 364.828125 l 1
 309.898666382 354.945550887 274 312.437469496 274 260 c 0
 273.999999576 224.543768392 290.973779003 193.421277828 317.542301242 174.228595904 c 0
 327.941962956 168.082459008 338.862464818 162.750704809 350.222734557 158.317562061 c 0
 353.096623042 157.485658526 356.024062585 156.768044868 359 156.169921875 c 1
 359 157 l 1
 366.393972898 155.151752524 374.642176384 154.15762207 382.955078125 154.017578125 c 0
 391.230953058 154.16349388 399.280360492 155.234183537 407 157.131835938 c 1
 407 156.169921875 l 1
 456.101318359 166.038622896 492 208.436493023 492 260 c 0
 492 312.437469496 456.101318359 354.945550887 407 364.828125 c 1
 407 363.864257812 l 1
 399.28037029 365.76539277 391.230942554 366.836457727 382.955078125 366.982421875 c 0
432 612 m 0
 317.670328662 612 223.601172199 526.905837875 205.969256783 415.812511233 c 1
 249.354779686 463.501108786 310.460782675 494.748835245 379.12890625 499.397460938 c 0
 384.006835938 499.727539062 388.66015625 499.930664062 393.451171875 499.9765625 c 0
 394.631835938 499.98828125 395.815429688 500 397 500 c 0
 397.301757812 500 397.603515625 499.999023438 397.905273438 499.998046875 c 0
 398.92578125 500 399.956054688 500 401 500 c 0
 524.041992188 500 626.35546875 414.859375 652.516601562 300 c 0
 656.759765625 281.370117188 659 261.958007812 659 242 c 0
 659 214.854492188 654.797851562 188.6953125 647 164.138671875 c 0
 627.598271266 103.033822211 585.939717489 51.8443866011 531.387759945 20.0410419676 c 0
 499.19846793 -2.30765230769 465.974024761 -14 432 -14 c 0
 429.58559311 -13.999995273 427.176423534 -13.9769506975 424.772687632 -13.9310623118 c 0
 416.946690964 -14.6385164443 409.01735085 -15 401 -15 c 0
 399.956054688 -15 398.92578125 -14.998046875 397.90625 -14.998046875 c 0
 397.604492188 -14.998046875 397.301757812 -15 397 -15 c 0
 395.815429688 -15 394.631835938 -14.9921875 393.451171875 -14.9765625 c 0
 388.662109375 -14.9130859375 384.004882812 -14.794921875 379.133789062 -14.3974609375 c 0
 325.603809587 -10.0245965702 276.634264559 9.94501177464 237.078901235 40.9840052466 c 1
 125.058137298 109.575386262 50 235.570027147 50 380 c 0
 50 597 221 773 432 773 c 0
 456.965667725 773 527.37109375 770.536132812 551 765.83203125 c 1
 551 599.90625 l 1
 528.096679688 607.749023438 457.554656982 612 432 612 c 0
EndSplineSet
EndChar

StartChar: seven
Encoding: 55 55 22
Width: 610
VWidth: 0
Flags: HW
HStem: 610 152<50 389>
LayerCount: 2
Fore
SplineSet
213 0 m 1
 51 0 l 1
 389 610 l 1
 50 610 l 1
 50 762 l 1
 560 762 l 1
 560 610 l 1
 213 0 l 1
EndSplineSet
EndChar

StartChar: eight
Encoding: 56 56 23
Width: 616
VWidth: 0
Flags: HW
HStem: 366.983 92.0348<286.347 333.638>
VStem: 50 151<197.14 324.826 500.772 628.449> 419 151<195.844 324.826 500.772 629.753>
LayerCount: 2
Fore
SplineSet
309.037109375 3.201171875 m 0
 308.771484375 3.201171875 308.505859375 3.2001953125 308.240234375 3.2001953125 c 0
 307.197265625 3.2001953125 306.15625 3.2060546875 305.116210938 3.220703125 c 0
 300.90234375 3.2607421875 296.8046875 3.380859375 292.518554688 3.7294921875 c 0
 174.077148438 11.744140625 81.2001953125 109.6484375 81.2001953125 229.359375 c 0
 81.2001953125 279.814453125 97.4677734375 326.307617188 125.0703125 363.905273438 c 1
 97.4677734375 401.375976562 81.2001953125 447.659179688 81.2001953125 497.759765625 c 0
 81.2001953125 618.3125 174.075195312 716.250976562 292.513671875 724.26953125 c 0
 296.801757812 724.619140625 300.901367188 724.73828125 305.116210938 724.779296875 c 0
 306.15625 724.793945312 307.197265625 724.799804688 308.240234375 724.799804688 c 0
 308.505859375 724.799804688 308.771484375 724.798828125 309.036132812 724.797851562 c 0
 309.934570312 724.799804688 310.840820312 724.799804688 311.759765625 724.799804688 c 0
 437.599609375 724.799804688 538.799804688 623.599609375 538.799804688 497.759765625 c 0
 538.799804688 447.659179688 522.532226562 401.375976562 494.9296875 363.905273438 c 1
 522.532226562 326.307617188 538.799804688 279.814453125 538.799804688 229.359375 c 0
 538.799804688 104.400390625 437.599609375 3.2001953125 311.759765625 3.2001953125 c 0
 310.840820312 3.2001953125 309.934570312 3.201171875 309.037109375 3.201171875 c 0
309.959960938 591.904296875 m 0
 302.64453125 591.78125 295.38671875 590.907226562 288.879882812 589.279296875 c 1
 288.879882812 590.008789062 l 1
 245.669921875 581.3125 214.080078125 543.904296875 214.080078125 497.759765625 c 0
 214.080078125 452.384765625 245.669921875 415.075195312 288.879882812 406.389648438 c 1
 288.879882812 407.120117188 l 1
 295.38671875 405.493164062 302.64453125 404.618164062 309.959960938 404.49609375 c 0
 317.2421875 404.624023438 324.327148438 405.565429688 331.120117188 407.236328125 c 1
 331.120117188 406.389648438 l 1
 374.330078125 415.075195312 405.919921875 452.384765625 405.919921875 497.759765625 c 0
 405.919921875 543.904296875 374.330078125 581.3125 331.120117188 590.008789062 c 1
 331.120117188 589.16015625 l 1
 324.327148438 590.833984375 317.2421875 591.776367188 309.959960938 591.904296875 c 0
309.959960938 323.504882812 m 0
 302.64453125 323.381835938 295.38671875 322.505859375 288.879882812 320.879882812 c 1
 288.879882812 321.609375 l 1
 245.669921875 312.912109375 214.080078125 275.504882812 214.080078125 229.359375 c 0
 214.080078125 183.984375 245.669921875 146.673828125 288.879882812 137.990234375 c 1
 288.879882812 138.720703125 l 1
 295.38671875 137.09375 302.64453125 136.21875 309.959960938 136.094726562 c 0
 317.243164062 136.223632812 324.327148438 137.166015625 331.120117188 138.8359375 c 1
 331.120117188 137.990234375 l 1
 374.330078125 146.673828125 405.919921875 183.984375 405.919921875 229.359375 c 0
 405.919921875 275.504882812 374.330078125 312.912109375 331.120117188 321.609375 c 1
 331.120117188 320.760742188 l 1
 324.327148438 322.434570312 317.243164062 323.375976562 309.959960938 323.504882812 c 0
EndSplineSet
EndChar

StartChar: nine
Encoding: 57 57 24
Width: 729
VWidth: 0
Flags: HW
HStem: -15 161<159.125 372.237> 753 20G<303.991 308.522 311.849 312.592>
VStem: 50 167<434.984 562.018> 435 224<269.5 508.141>
LayerCount: 2
Fore
SplineSet
326.044921875 391.017578125 m 0
 334.357421875 390.87109375 342.606445312 392.151367188 350 394 c 1
 350 393.171875 l 1
 399.1015625 403.0546875 435 445.5625 435 498 c 0
 435 533.456054688 418.026367188 564.579101562 391.458007812 583.771484375 c 0
 381.057617188 589.91796875 370.137695312 595.249023438 358.77734375 599.682617188 c 0
 355.903320312 600.514648438 352.975585938 601.232421875 350 601.830078125 c 1
 350 601 l 1
 342.606445312 602.848632812 334.357421875 603.842773438 326.044921875 603.982421875 c 0
 317.76953125 603.836914062 309.719726562 602.765625 302 600.868164062 c 1
 302 601.830078125 l 1
 252.8984375 591.9609375 217 549.563476562 217 498 c 0
 217 445.5625 252.8984375 403.0546875 302 393.171875 c 1
 302 394.135742188 l 1
 309.719726562 392.234375 317.76953125 391.163085938 326.044921875 391.017578125 c 0
277 146 m 0
 391.330078125 146 485.3984375 231.09375 503.030273438 342.1875 c 1
 459.645507812 294.499023438 398.5390625 263.250976562 329.87109375 258.602539062 c 0
 324.993164062 258.272460938 320.33984375 258.069335938 315.548828125 258.0234375 c 0
 314.368164062 258.01171875 313.184570312 258 312 258 c 0
 311.698242188 258 311.396484375 258.000976562 311.094726562 258.001953125 c 0
 310.07421875 258 309.043945312 258 308 258 c 0
 184.958007812 258 82.64453125 343.140625 56.4833984375 458 c 0
 52.240234375 476.629882812 50 496.041992188 50 516 c 0
 50 543.145507812 54.2021484375 569.3046875 62 593.861328125 c 0
 81.4013671875 654.965820312 123.060546875 706.155273438 177.612304688 737.958984375 c 0
 209.801757812 760.307617188 243.026367188 772 277 772 c 0
 279.4140625 772 281.823242188 771.9765625 284.227539062 771.930664062 c 0
 292.053710938 772.638671875 299.982421875 773 308 773 c 0
 309.043945312 773 310.07421875 772.998046875 311.09375 772.998046875 c 0
 311.395507812 772.998046875 311.698242188 773 312 773 c 0
 313.184570312 773 314.368164062 772.9921875 315.548828125 772.9765625 c 0
 320.337890625 772.913085938 324.995117188 772.794921875 329.866210938 772.397460938 c 0
 383.396484375 768.024414062 432.366210938 748.0546875 471.920898438 717.015625 c 1
 583.94140625 648.424804688 659 522.4296875 659 378 c 0
 659 161 488 -15 277 -15 c 0
 252.034179688 -15 181.62890625 -12.5361328125 158 -7.83203125 c 1
 158 158.09375 l 1
 180.903320312 150.250976562 251.4453125 146 277 146 c 0
EndSplineSet
EndChar

StartChar: colon
Encoding: 58 58 25
Width: 252
VWidth: 0
Flags: HW
HStem: -2 142<50 202> 398 142<50 202>
VStem: 50 152<-2 140 398 540>
LayerCount: 2
Fore
SplineSet
50 -2 m 1
 50 140 l 1
 202 140 l 1
 202 -2 l 1
 50 -2 l 1
50 398 m 1
 50 540 l 1
 202 540 l 1
 202 398 l 1
 50 398 l 1
EndSplineSet
EndChar

StartChar: semicolon
Encoding: 59 59 26
Width: 252
VWidth: 0
Flags: HW
HStem: 398 142<50 202>
VStem: 50 152<-2 140 398 540>
LayerCount: 2
Fore
SplineSet
50 398 m 1
 50 540 l 1
 202 540 l 1
 202 398 l 1
 50 398 l 1
50 -2 m 1
 50 140 l 1
 202 140 l 1
 202 -2 l 1
 142 -134 l 1
 84 -130 l 1
 92.7671232877 -2 l 1
 50 -2 l 1
EndSplineSet
EndChar

StartChar: less
Encoding: 60 60 27
Width: 644
VWidth: 0
Flags: HW
LayerCount: 2
Fore
SplineSet
594 546 m 1
 594 394 l 1
 379.895582329 337.718875502 l 1
 594 296 l 1
 594 144 l 1
 50 250 l 1
 50 251 l 1
 50 402 l 1
 50 403 l 1
 594 546 l 1
EndSplineSet
EndChar

StartChar: equal
Encoding: 61 61 28
Width: 644
VWidth: 0
Flags: HW
HStem: 144 152<50 594> 394 152<50 594>
LayerCount: 2
Fore
SplineSet
594 546 m 1
 594 394 l 1
 50 394 l 1
 50 546 l 1
 594 546 l 1
594 296 m 1
 594 144 l 1
 50 144 l 1
 50 296 l 1
 594 296 l 1
EndSplineSet
EndChar

StartChar: greater
Encoding: 62 62 29
Width: 644
VWidth: 0
Flags: HW
LayerCount: 2
Fore
SplineSet
50 546 m 1
 594 403 l 1
 594 402 l 1
 594 251 l 1
 594 250 l 1
 50 144 l 1
 50 296 l 1
 264 338 l 1
 50 394 l 1
 50 546 l 1
EndSplineSet
EndChar

StartChar: question
Encoding: 63 63 30
Width: 384
VWidth: 0
Flags: HW
HStem: -2 142<50 202> 230 238<50 144.438> 678 151<50 140.529>
VStem: 50 152<-2 140 230 359.991> 183 151<508.983 635.934>
LayerCount: 2
Fore
SplineSet
50 828 m 1
 59 829 67 829 76 829 c 0
 219 829 334 714 334 572 c 0
 334 474.830761529 280.901364171 390.589886565 202 346.573282595 c 1
 202 230 l 1
 50 230 l 1
 50 315 l 1
 50 440 l 1
 50 468 l 1
 58 466 67 465 76 465 c 0
 136 465 183 512 183 572 c 0
 183 631 136 678 76 678 c 0
 67 678 58 677 50 675 c 1
 50 828 l 1
50 -2 m 1
 50 140 l 1
 202 140 l 1
 202 -2 l 1
 50 -2 l 1
EndSplineSet
EndChar

StartChar: at
Encoding: 64 64 31
Width: 864
VWidth: 0
Flags: HW
HStem: 239 75<431.227 473> 421 71<431.227 485>
VStem: 343 76<325.505 409.715> 485 83.0107<315.318 421> 485 76<318.62 421>
LayerCount: 2
Fore
SplineSet
561 236 m 1025xe8
524 166 m 1025xe0
487 228 m 1
 473 239 l 1
 401 239 343 296 343 368 c 0
 343 439 401 492 473 492 c 0
 477 492 481 492 485 492 c 2
 561 492 l 1
 568.010742188 318.353515625 l 2
 572.831054688 287.021484375 653.69921875 219.975585938 662 326 c 0
 661.986328125 327.467773438 657.757707957 340.566438744 658 342 c 0
 670 413 649 487 595 541 c 0
 505 631 359 628 268 537 c 0
 176 445 174 299 264 209 c 0
 334 139 438 125 524 166 c 0
 548 177 637 54 637 54 c 1
 485 -46 283 -32 153 98 c 0
 4 247 7 493 161 647 c 0
 314 800 560 804 709 655 c 0
 823 541 850 362 787 220 c 1
 679.654298086 157.57419036 584.089114196 199.539097811 487 228 c 1
485 420 m 1
 481 421 477 421 473 421 c 0
 443 421 419 398 419 368 c 0
 419 338 443 314 473 314 c 0
 477 314 481 315 485 316 c 1
 485 420 l 1
EndSplineSet
EndChar

StartChar: A
Encoding: 65 65 32
Width: 752
VWidth: 0
Flags: HW
HStem: 227 140<297.449 406.827>
LayerCount: 2
Fore
SplineSet
406.827056885 367 m 1
 357.200195312 535.223632812 l 1
 297.448638916 367 l 1
 406.827056885 367 l 1
550 0 m 1
 461 228.136672974 l 1
 461 227 l 1
 261.037719727 227 l 1
 202 0 l 1
 50 0 l 1
 266 769 l 1
 418 769 l 1
 702 0 l 1
 550 0 l 1
EndSplineSet
EndChar

StartChar: B
Encoding: 66 66 33
Width: 512
VWidth: 0
Flags: HW
HStem: 4 129<202.375 290.409> 346 105<202.375 290.409> 664 116<202.375 290.409>
VStem: 50 152<133.026 345.974 451.026 663.974 779.664 780> 333 151<176.465 303.767 492.806 610.788>
LayerCount: 2
Fore
SplineSet
202 454 m 1
 210 452 218 451 226 451 c 0
 286 451 333 498 333 557 c 0
 333 617 286 664 226 664 c 0
 218 664 210 663 202 661 c 1
 202 454 l 1
202 136 m 1
 210 134 218 133 226 133 c 0
 286 133 333 180 333 239 c 0
 333 299 286 346 226 346 c 0
 218 346 210 345 202 343 c 1
 202 136 l 1
202 780 m 1
 202 779.663574219 l 1
 207.96484375 780 213.740570068 780 220 780 c 0
 363 780 478 665 478 522 c 0
 478 471.500762939 420 429 395 396 c 1
 424 361 484 314.768890381 484 260 c 0
 484 118 369 3 226 3 c 0
 218 3 210 3 202 4 c 2
 50 4 l 1
 50 780 l 1
 202 780 l 1
EndSplineSet
EndChar

StartChar: C
Encoding: 67 67 34
Width: 555
VWidth: 0
Flags: HW
HStem: -14 157<337.027 503.909> 612 161<337.027 503.909>
VStem: 50 153<281.299 476.2>
LayerCount: 2
Fore
SplineSet
432 612 m 0
 305 612 203 507 203 378 c 0
 203 248 305 143 432 143 c 0
 457.554656982 143 482.097106934 147.251296997 505 155.102142334 c 1
 505 -6.83008432388 l 1
 481.371307373 -11.5360393524 456.965667725 -14 432 -14 c 0
 221 -14 50 162 50 380 c 0
 50 597 221 773 432 773 c 0
 456.965667725 773 481.371307373 770.536010742 505 765.831726074 c 1
 505 599.906005859 l 1
 482.097106934 607.748718262 457.554656982 612 432 612 c 0
EndSplineSet
EndChar

StartChar: D
Encoding: 68 68 35
Width: 630
VWidth: 0
Flags: HW
HStem: -13.9789 157.014<202 287.489> 611.965 161.035<202 293.477>
VStem: 50 152<-14 -13.9789 143.035 611.965> 427 153<282.064 475.736>
LayerCount: 2
Fore
SplineSet
202 143.03477478 m 1
 327.134933472 145.212112427 427 249.36769104 427 378 c 0
 427 505.642822266 327.134933472 609.787963867 202 611.965209961 c 1
 202 143.03477478 l 1
50 768 m 1
 99.6211156208 760.911269197 148.382594462 773 198 773 c 0
 409 773 580 597 580 380 c 0
 580 163.379226685 411.156890869 -11.7713003159 202 -13.9788990021 c 2
 50 -14 l 1
 50 768 l 1
EndSplineSet
EndChar

StartChar: E
Encoding: 69 69 36
Width: 668
VWidth: 0
Flags: HW
HStem: -3 152<202 617> 333 152<202 509> 626 152<202 617>
VStem: 50 568<-3 149 626 778> 50 152<149 333 485 626>
LayerCount: 2
Fore
SplineSet
509 485 m 1
 510 333 l 1
 202 333 l 1
 202 149 l 1
 617 149 l 1
 618 -3 l 1
 51 -3 l 1
 50.9934196472 -2 l 1
 50 -2 l 1
 50 774 l 1
 50.0263175964 774 l 1
 50 778 l 1
 617 778 l 1
 618 626 l 1
 202 626 l 1
 202 485 l 1
 509 485 l 1
EndSplineSet
EndChar

StartChar: F
Encoding: 70 70 37
Width: 668
VWidth: 0
Flags: HW
HStem: -2 21G<50 202> 333 152<202 509> 626 152<202 617>
VStem: 50 152<-2 333 485 626>
LayerCount: 2
Fore
SplineSet
509 485 m 1
 510 333 l 1
 202 333 l 1
 202 -2 l 1
 50 -2 l 1
 50 774 l 1
 50.0263175964 774 l 1
 50 778 l 1
 617 778 l 1
 618 626 l 1
 202 626 l 1
 202 485 l 1
 509 485 l 1
EndSplineSet
EndChar

StartChar: G
Encoding: 71 71 38
Width: 651
VWidth: 0
Flags: HW
HStem: -14 157<337.532 449> 612 161<337.027 503.909>
VStem: 50 153<281.299 476.2> 449 152<-14 -13.6178 143 313>
LayerCount: 2
Fore
SplineSet
432 612 m 0
 305 612 203 507 203 378 c 0
 203 248 305 143 432 143 c 0
 437.719726562 143 443.38873291 143.212982178 449 143.631622314 c 1
 449 313 l 1
 601 313 l 1
 601 -14 l 1
 449 -14 l 1
 449 -13.6177682877 l 1
 443.364196777 -13.8717107773 437.696685791 -14 432 -14 c 0
 221 -14 50 162 50 380 c 0
 50 597 221 773 432 773 c 0
 456.965667725 773 481.371307373 770.536010742 505 765.831726074 c 1
 505 599.906005859 l 1
 482.097106934 607.748718262 457.554656982 612 432 612 c 0
EndSplineSet
EndChar

StartChar: H
Encoding: 72 72 39
Width: 652
VWidth: 0
Flags: HW
HStem: -2 21G<50 202 450 602> 333 152<202 450> 754 20G<50 202 450 602>
VStem: 50 152<-2 333 485 774> 450 152<-2 333 485 774>
LayerCount: 2
Fore
SplineSet
450 774 m 1
 602 774 l 1
 602 -2 l 1
 450 -2 l 1
 450 333 l 1
 202 333 l 1
 202 -2 l 1
 50 -2 l 1
 50 774 l 1
 202 774 l 1
 202 485 l 1
 450 485 l 1
 450 774 l 1
EndSplineSet
EndChar

StartChar: I
Encoding: 73 73 40
Width: 252
VWidth: 0
Flags: HW
HStem: -2 21G<50 202> 754 20G<50 202>
VStem: 50 152<-2 774>
LayerCount: 2
Fore
SplineSet
50 774 m 1
 202 774 l 1
 202 -2 l 1
 50 -2 l 1
 50 774 l 1
EndSplineSet
EndChar

StartChar: J
Encoding: 74 74 41
Width: 419
VWidth: 0
Flags: HW
HStem: -3 151<55.4451 185.159> 741 20G<202 369>
VStem: 202 164<168.881 761>
LayerCount: 2
Fore
SplineSet
50 6 m 1
 50 174 l 1
 69 158 94 148 121 148 c 0
 154 148 182 162 202 185 c 1
 202 761 l 1
 369 761 l 1
 366 184 l 1
 335 75 239 -3 121 -3 c 0
 96 -3 73 0 50 6 c 1
EndSplineSet
EndChar

StartChar: K
Encoding: 75 75 42
Width: 703
VWidth: 0
Flags: HW
HStem: -2 20G<50 202 511 686.026> 754 20G<50 202>
VStem: 50 152<-2 218.505 432.895 774>
LayerCount: 2
Fore
SplineSet
50 774 m 1
 202 774 l 1
 202 432.894744873 l 1
 447 770 l 1
 633 768 l 1
 372 387 l 1
 703 -3 l 1
 511 -2 l 1
 259.207733154 301.887695312 l 1
 202 218.504714966 l 1
 202 -2 l 1
 50 -2 l 1
 50 774 l 1
EndSplineSet
EndChar

StartChar: L
Encoding: 76 76 43
Width: 718
VWidth: 0
Flags: HW
HStem: -3 152<202 667> 754 20G<50 202>
VStem: 50 152<149 774>
LayerCount: 2
Fore
SplineSet
50 774 m 1
 202 774 l 1
 202 149 l 1
 667 149 l 1
 668 -3 l 1
 51 -3 l 1
 50.9934196472 -2 l 1
 50 -2 l 1
 50 774 l 1
EndSplineSet
EndChar

StartChar: M
Encoding: 77 77 44
Width: 1052
VWidth: 0
Flags: HW
HStem: -2 21G<50 202 850 1002>
VStem: 50 152<-2 476.16> 850 152<-2 476.16>
LayerCount: 2
Fore
SplineSet
50 768 m 1
 202 768 l 1
 526 145.919998169 l 1
 850 768 l 1
 1002 768 l 1
 1002 -2 l 1
 850 -2 l 1
 850 476.160003662 l 1
 602 0 l 1
 450 0 l 1
 202 476.160003662 l 1
 202 -2 l 1
 50 -2 l 1
 50 768 l 1
EndSplineSet
EndChar

StartChar: N
Encoding: 78 78 45
Width: 852
VWidth: 0
Flags: HW
HStem: -2 21G<50 202 632.937 802> 754 20G<50 219.116 650 802>
VStem: 50 152<-2 523.101> 650 152<250.522 774>
LayerCount: 2
Fore
SplineSet
50 774 m 1
 202 774 l 1
 650 250.521743774 l 1
 650 774 l 1
 802 774 l 1
 802 -2 l 1
 650 -2 l 1
 202 523.10144043 l 1
 202 -2 l 1
 50 -2 l 1
 50 774 l 1
EndSplineSet
EndChar

StartChar: O
Encoding: 79 79 46
Width: 864
VWidth: 0
Flags: HW
HStem: -14 157<337.027 526.973> 612 161<337.027 526.973>
VStem: 50 153<278.712 478.774> 661 153<278.712 478.774>
LayerCount: 2
Fore
SplineSet
661 378 m 0
 661 507 559 612 432 612 c 0
 305 612 203 507 203 378 c 0
 203 248 305 143 432 143 c 0
 559 143 661 248 661 378 c 0
814 380 m 0
 814 162 643 -14 432 -14 c 0
 221 -14 50 162 50 380 c 0
 50 597 221 773 432 773 c 0
 643 773 814 597 814 380 c 0
EndSplineSet
EndChar

StartChar: P
Encoding: 80 80 47
Width: 534
VWidth: 0
Flags: HW
HStem: 265 151<202 290.529> 629 150<202.375 290.409>
VStem: 50 152<3 266 416.026 628.974> 333 151<458.471 586.934>
LayerCount: 2
Fore
SplineSet
202 626 m 1
 202 419 l 1
 210 417 218 416 226 416 c 0
 286 416 333 463 333 523 c 0
 333 582 286 629 226 629 c 0
 218 629 210 628 202 626 c 1
202 3 m 1
 50 3 l 1
 50 779 l 1
 202 779 l 2
 210 780 218 780 226 780 c 0
 369 780 484 665 484 523 c 0
 484 380 369 265 226 265 c 0
 218 265 210 265 202 266 c 1
 202 3 l 1
EndSplineSet
EndChar

StartChar: Q
Encoding: 81 81 48
Width: 864
VWidth: 0
Flags: HW
HStem: -14 157<337.027 513.045> 612 161<337.027 526.973>
VStem: 50 153<281.299 476.2> 661 153<280.102 476.2>
LayerCount: 2
Fore
SplineSet
814 380 m 0
 814 262.352966309 764.198242188 156.937973022 685.184082031 84.8159484863 c 1
 822 -52 l 1
 684 -191 l 1
 500.666381836 -7.66637468338 l 1
 478.391113281 -11.8275365829 455.44241333 -14 432 -14 c 0
 221 -14 50 162 50 380 c 0
 50 597 221 773 432 773 c 0
 643 773 814 597 814 380 c 0
661 378 m 0
 661 507 559 612 432 612 c 0
 305 612 203 507 203 378 c 0
 203 248 305 143 432 143 c 0
 559 143 661 248 661 378 c 0
EndSplineSet
EndChar

StartChar: R
Encoding: 82 82 49
Width: 512
VWidth: 0
Flags: HW
HStem: -3 21G<359.703 512> 629 150<202.375 290.409>
VStem: 50 152<3 266 416.026 628.974> 333 151<460.25 586.934>
LayerCount: 2
Fore
SplineSet
202 3 m 1
 50 3 l 1
 50 779 l 1
 202 779 l 2
 210 780 218 780 226 780 c 0
 369 780 484 665 484 523 c 0
 484 410.657806396 413.023986816 315.596740723 313.255218506 280 c 1
 512 -3 l 1
 372 -3 l 1
 206.913360596 265.502990723 l 2
 205.27557373 265.632476807 203.637786865 265.795288086 202 266 c 1
 202 3 l 1
202 626 m 1
 202 419 l 1
 210 417 218 416 226 416 c 0
 286 416 333 463 333 523 c 0
 333 582 286 629 226 629 c 0
 218 629 210 628 202 626 c 1
EndSplineSet
EndChar

StartChar: S
Encoding: 83 83 50
Width: 512
VWidth: 0
Flags: HW
LayerCount: 2
Fore
SplineSet
55 57 m 1
 130 182 l 1
 136 177 142 172 152 167 c 0
 203 137 267 154 297 202 c 0
 329 258 279 306 227 315 c 1
 101 383 17 498 101 639 c 0
 171 755 328 794 453 727 c 0
 459 721 467 718 474 712 c 1
 399 587 l 1
 393 592 387 597 377 602 c 0
 326 630 262 614 232 565 c 0
 199 510 232 429 296 418 c 1
 413 355 512 270 427 130 c 0
 358 13 201 -26 76 42 c 0
 70 48 62 51 55 57 c 1
EndSplineSet
EndChar

StartChar: T
Encoding: 84 84 51
Width: 676
VWidth: 0
Flags: HW
HStem: -2 21G<265 417> 614 152<53 265 417 629>
VStem: 265 152<-2 614>
LayerCount: 2
Fore
SplineSet
53 614 m 1
 53 766 l 1
 629 766 l 1
 629 614 l 1
 417 614 l 1
 417 -2 l 1
 265 -2 l 1
 265 614 l 1
 53 614 l 1
EndSplineSet
EndChar

StartChar: U
Encoding: 85 85 52
Width: 669
VWidth: 0
Flags: HW
HStem: 741 20G<50 217 452 619>
VStem: 53 164<172.77 761> 452 164<172.95 761>
LayerCount: 2
Fore
SplineSet
616 184 m 1
 547.931600739 -55.413201197 122.236742402 -59.4453068289 53 184 c 1
 50 761 l 1
 217 761 l 1
 217 185 l 1
 255.237263098 141.0271551 414.430937416 139.917124899 452 185 c 1
 452 761 l 1
 619 761 l 1
 616 184 l 1
EndSplineSet
EndChar

StartChar: V
Encoding: 86 86 53
Width: 652
VWidth: 0
Flags: HW
LayerCount: 2
Fore
SplineSet
50 769 m 1
 202 769 l 1
 326 292.220001221 l 1
 450 769 l 1
 602 769 l 1
 402 0 l 1
 250 0 l 1
 50 769 l 1
EndSplineSet
EndChar

StartChar: W
Encoding: 87 87 54
Width: 1000
VWidth: 0
Flags: HW
LayerCount: 2
Fore
SplineSet
50 769 m 1
 202 769 l 1
 326 292.220001221 l 1
 450 769 l 1
 451 769 l 1
 602 769 l 1
 603 769 l 1
 727 292 l 1
 851 769 l 1
 1003 769 l 1
 803 0 l 1
 651 0 l 1
 526.5 478.7025 l 1
 402 0 l 1
 250 0 l 1
 50 769 l 1
EndSplineSet
EndChar

StartChar: X
Encoding: 88 88 55
Width: 724
VWidth: 0
Flags: HW
HStem: -1 20G<62.6104 229 487.368 674>
LayerCount: 2
Fore
SplineSet
50 770 m 1
 236 768 l 1
 365.550445557 540.843078613 l 1
 498 769 l 1
 673 768 l 1
 452.728759766 387.98248291 l 1
 674 0 l 1
 499 -2 l 1
 362.609527588 232.506546021 l 1
 229 2 l 1
 51 -1 l 1
 274.5 384 l 1
 50 770 l 1
EndSplineSet
EndChar

StartChar: Y
Encoding: 89 89 56
Width: 512
VWidth: 0
Flags: HW
VStem: 193 152<1 450>
LayerCount: 2
Fore
SplineSet
193 451 m 1
 193.365081787 451 l 1
 -6 765 l 1
 146 765 l 1
 270 594 l 1
 394 765 l 1
 546 765 l 1
 346 450 l 1
 345 450 l 1
 345 1 l 1
 193 1 l 1
 193 451 l 1
EndSplineSet
EndChar

StartChar: Z
Encoding: 90 90 57
Width: 783
VWidth: 0
Flags: HW
HStem: 10 152<301 733> 610 152<50 480>
LayerCount: 2
Fore
SplineSet
50 10 m 1
 50 162 l 1
 480 610 l 1
 50 610 l 1
 50 762 l 1
 733 762 l 1
 733 610 l 1
 301 162 l 1
 733 162 l 1
 733 10 l 1
 50 10 l 1
EndSplineSet
EndChar

StartChar: bracketleft
Encoding: 91 91 58
Width: 362
VWidth: 0
Flags: HW
HStem: -80 85<144 311> 689 85<144 311>
VStem: 50 262<-80 5 689 774> 50 94<5 689>
LayerCount: 2
Fore
SplineSet
51 -80 m 1
 50 -80 l 1
 50 -79 l 1
 50 773 l 1
 50 774 l 1
 51 774 l 1
 312 774 l 1
 311 689 l 1
 144 689 l 1
 144 5 l 1
 311 5 l 1
 312 -80 l 1
 51 -80 l 1
EndSplineSet
EndChar

StartChar: backslash
Encoding: 92 92 59
Width: 691
VWidth: 0
Flags: HW
LayerCount: 2
Fore
SplineSet
156 818 m 1
 641 -22 l 1
 535 -83 l 1
 50 757 l 1
 156 818 l 1
EndSplineSet
EndChar

StartChar: bracketright
Encoding: 93 93 60
Width: 362
VWidth: 0
Flags: HW
HStem: -81 85<51 218> 689 85<51 218>
VStem: 50 262<-81 4 689 774> 218 94<4 689>
LayerCount: 2
Fore
SplineSet
311 -81 m 1
 50 -81 l 1
 51 4 l 1
 218 4 l 1
 218 689 l 1
 51 689 l 1
 50 774 l 1
 311 774 l 1
 312 774 l 1
 312 773 l 1
 312 -80 l 1
 312 -81 l 1
 311 -81 l 1
EndSplineSet
EndChar

StartChar: asciicircum
Encoding: 94 94 61
Width: 644
VWidth: 0
Flags: HW
LayerCount: 2
Fore
SplineSet
121 283 m 1
 264 617 l 1
 265 617 l 1
 416 617 l 1
 417 617 l 1
 523 283 l 1
 371 283 l 1
 329 497 l 1
 273 283 l 1
 121 283 l 1
EndSplineSet
EndChar

StartChar: underscore
Encoding: 95 95 62
Width: 544
VWidth: 0
Flags: HW
HStem: 44 152<0 544>
LayerCount: 2
Fore
SplineSet
544 196 m 1
 544 44 l 1
 0 44 l 1
 0 196 l 1
 544 196 l 1
EndSplineSet
EndChar

StartChar: grave
Encoding: 96 96 63
Width: 252
VWidth: 0
Flags: HW
HStem: 516 289
VStem: -19 290
LayerCount: 2
Fore
SplineSet
163 516 m 1
 -19 698 l 1
 89 805 l 1
 271 623 l 1
 163 516 l 1
EndSplineSet
EndChar

StartChar: a
Encoding: 97 97 64
Width: 512
VWidth: 0
Flags: HW
HStem: 8 151<243.471 332> 372 143<243.351 331.625>
VStem: 50 151<201.471 329.671> 332 152<1 9 159.012 371.988>
LayerCount: 2
Fore
SplineSet
332 369 m 1
 324 371 316 372 308 372 c 0
 248 372 201 325 201 266 c 0
 201 206 248 159 308 159 c 0
 316 159 324 160 332 162 c 1
 332 369 l 1
332 1 m 1
 332 9 l 1
 324 8 316 8 308 8 c 0
 165 8 50 123 50 266 c 0
 50 408 165 515 308 515 c 0
 316 515 324 515 332 514 c 2
 484 514 l 1
 484 1 l 1
 332 1 l 1
EndSplineSet
EndChar

StartChar: b
Encoding: 98 98 65
Width: 512
VWidth: 0
Flags: HW
HStem: 4 150<202.375 290.649> 367 151<202 290.529>
VStem: 50 152<154.012 366.988 517 780> 333 151<196.066 324.529>
LayerCount: 2
Fore
SplineSet
202 157 m 1
 210 155 218 154 226 154 c 0
 286 154 333 201 333 260 c 0
 333 320 286 367 226 367 c 0
 218 367 210 366 202 364 c 1
 202 157 l 1
202 780 m 1
 202 517 l 1
 210 518 218 518 226 518 c 0
 369 518 484 403 484 260 c 0
 484 118 369 3 226 3 c 0
 218 3 210 3 202 4 c 2
 50 4 l 1
 50 780 l 1
 202 780 l 1
EndSplineSet
EndChar

StartChar: c
Encoding: 99 99 66
Width: 384
VWidth: 0
Flags: HW
HStem: 3 151<243.471 334> 367 151<243.471 334>
VStem: 50 151<196.066 324.529>
LayerCount: 2
Fore
SplineSet
334 4.29609966278 m 1
 325.446716309 3.43895053864 316.772979736 3 308 3 c 0
 165 3 50 118 50 260 c 0
 50 403 165 518 308 518 c 0
 316.772979736 518 325.446716309 517.561035156 334 516.703674316 c 1
 334 363.864593506 l 1
 325.673736572 365.915100098 316.96383667 367 308 367 c 0
 248 367 201 320 201 260 c 0
 201 201 248 154 308 154 c 0
 316.96383667 154 325.673736572 155.084884644 334 157.131896973 c 1
 334 4.29609966278 l 1
EndSplineSet
EndChar

StartChar: d
Encoding: 100 100 67
Width: 512
VWidth: 0
Flags: HW
HStem: 3 151<242.454 332> 367 151<243.471 332>
VStem: 50 151<196.066 324.529> 332 152<4 4.10351 154.011 366.989 516.896 780>
LayerCount: 2
Fore
SplineSet
332 156.660415649 m 1
 332 364.336853027 l 1
 324.282409668 366.081298828 316.248718262 367 308 367 c 0
 248 367 201 320 201 260 c 0
 201 201 248 154 308 154 c 0
 316.248718262 154 324.282409668 154.918685913 332 156.660415649 c 1
332 780 m 1
 484 780 l 1
 484 4 l 1
 332 4 l 1
 332 4.10350751877 l 1
 324.095489502 3.37326002121 316.089935303 3 308 3 c 0
 165 3 50 118 50 260 c 0
 50 403 165 518 308 518 c 0
 316.089935303 518 324.095489502 517.626708984 332 516.89630127 c 1
 332 780 l 1
EndSplineSet
EndChar

StartChar: e
Encoding: 101 101 68
Width: 617
VWidth: 0
Flags: HW
HStem: 3 151<243.073 556.239> 205.32 128.941<230.301 387.264> 367 151<242.682 372.767>
VStem: 50 517<208.188 330.811>
LayerCount: 2
Fore
SplineSet
210.680664062 296.67578125 m 1
 406.883789062 294.1015625 l 1
 382.395507812 320.966796875 347.046875 375.099609375 307.8046875 375.099609375 c 0
 269.188476562 375.099609375 234.879882812 322.025390625 210.680664062 296.67578125 c 1
566 260 m 0
 566 241.327877436 567 223 567 208 c 1
 215.985275269 205.320495605 l 1
 234.489715576 174.456954956 268.415710449 154 308 154 c 0
 322.516235352 154 544 157 557 162 c 1
 557 6 l 1
 544 4 321.945861816 3 308 3 c 0
 165 3 50 118 50 260 c 0
 50 403 165 518 308 518 c 0
 450 518 566 403 566 260 c 0
EndSplineSet
EndChar

StartChar: f
Encoding: 102 102 69
Width: 512
VWidth: 0
Flags: HW
HStem: -3 21G<145 312> 359 152<50 146.882 312 409> 610 151<328.841 458.555>
VStem: 145 167<-3 359 511 589.119>
LayerCount: 2
Fore
SplineSet
464 752 m 1
 464 584 l 1
 445 600 420 610 393 610 c 0
 360 610 332 596 312 573 c 1
 312 511 l 1
 409 511 l 1
 409 359 l 1
 312 359 l 1
 312 -3 l 1
 145 -3 l 1
 146.882149047 359 l 1
 50 359 l 1
 50 511 l 1
 147.672443674 511 l 1
 148 574 l 1
 179 683 275 761 393 761 c 0
 418 761 441 758 464 752 c 1
EndSplineSet
EndChar

StartChar: g
Encoding: 103 103 70
Width: 620
VWidth: 0
Flags: HW
HStem: -205 151<129.297 399.488> 498 20G<307.408 308.151 311.478 383.333>
VStem: 50 151<197.15 323.449> 419 151<-33.1189 25.9655 195.937 324.857>
LayerCount: 2
Fore
SplineSet
308.905792236 3.00155997276 m 0
 308.603973389 3.00155997276 308.302032471 3 308 3 c 0
 306.815063477 3 305.632049561 3.00789618492 304.45123291 3.02363610268 c 0
 303.723999023 3.03060817719 302.284912109 3.03491783142 300.34942627 3.04071426392 c 0
 289.538635254 3.07309031487 263.240753174 3.15184640884 259 4 c 0
 125 13 50 123.964859009 50 260 c 0
 50 396.991333008 155.538726807 508.286254883 290.128723145 517.397338867 c 0
 295.001708984 517.795227051 299.66027832 517.930419922 304.451171875 517.976379395 c 0
 305.632171631 517.992126465 306.815124512 518 308 518 c 0
 308.302062988 518 308.604003906 517.999450684 308.905517578 517.998413086 c 0
 309.925628662 518 310.956085205 518 312 518 c 0
 454.666503906 518 569.463439941 403.535736084 569.99810791 261 c 2
 569.998596191 260.868469238 l 2
 569.999511719 260.579101562 570 260.289611816 570 260 c 0
 570 257.823120117 569.972961426 255.652557373 569.919250488 253.488677979 c 2
 567 -18 l 1
 536 -127 443 -205 325 -205 c 0
 300 -205 143 -202 120 -196 c 1
 120 -28 l 1
 139 -44 298 -54 325 -54 c 0
 358 -54 399 -40 419 -17 c 1
 419 25.9655418396 l 1
 386.440979004 11.215256691 350.220611572 3 312 3 c 0
 310.956176758 3 309.925842285 3.00155997276 308.905792236 3.00155997276 c 0
309.954681396 366.982788086 m 0
 301.641906738 366.84274292 293.393859863 365.848449707 286 364 c 1
 286 364.828063965 l 1
 236.898666382 354.945495605 201 312.437438965 201 260 c 0
 201 208.436508179 236.898666382 166.038650513 286 156.169952393 c 1
 286 157 l 1
 293.393859863 155.151535034 301.641937256 154.157287598 309.954711914 154.017227173 c 0
 318.230712891 154.163162231 326.28024292 155.23399353 334 157.131896973 c 1
 334 156.169952393 l 1
 383.101318359 166.038650513 419 208.436508179 419 260 c 0
 419 312.437438965 383.101318359 354.945495605 334 364.828063965 c 1
 334 363.864593506 l 1
 326.28024292 365.76574707 318.230682373 366.83682251 309.954681396 366.982788086 c 0
EndSplineSet
EndChar

StartChar: h
Encoding: 104 104 71
Width: 597
VWidth: 0
Flags: HW
HStem: 373 151<233.435 363.159>
VStem: 50 169<6 355.866 512 768> 380 167<6 352.119>
LayerCount: 2
Fore
SplineSet
50 768 m 1
 219 768 l 1
 219 512 l 1
 245 520 271 524 299 524 c 0
 417 524 513 446 544 337 c 1
 547 6 l 1
 380 6 l 1
 380 336 l 1
 360 359 332 373 299 373 c 0
 267 373 239 360 219 338 c 1
 219 6 l 1
 50 6 l 1
 50 768 l 1
EndSplineSet
EndChar

StartChar: i
Encoding: 105 105 72
Width: 252
VWidth: 0
Flags: HW
HStem: -2 21G<50 202> 492 20G<50 202> 630 142<50 202>
VStem: 50 152<-2 512 630 772>
LayerCount: 2
Fore
SplineSet
50 772 m 1
 202 772 l 1
 202 630 l 1
 50 630 l 1
 50 772 l 1
50 512 m 1
 202 512 l 1
 202 -2 l 1
 50 -2 l 1
 50 512 l 1
EndSplineSet
EndChar

StartChar: j
Encoding: 106 106 73
Width: 419
VWidth: 0
Flags: HW
HStem: -204 151<55.4451 185.159> 497 20G<202 369> 630 142<214 366>
VStem: 202 164<-32.1189 517> 214 152<630 772>
LayerCount: 2
Fore
SplineSet
214 772 m 1
 366 772 l 1
 366 630 l 1
 214 630 l 1
 214 772 l 1
50 -195 m 1
 50 -27 l 1
 69 -43 94 -53 121 -53 c 0
 154 -53 182 -39 202 -16 c 1
 202 517 l 1
 369 517 l 1
 366 -17 l 1
 335 -126 239 -204 121 -204 c 0
 96 -204 73 -201 50 -195 c 1
EndSplineSet
EndChar

StartChar: k
Encoding: 107 107 74
Width: 753
VWidth: 0
Flags: HW
HStem: -2 20G<61 202 463 630.185> 754 20G<61 202>
VStem: 61 141<-2 154 317 774>
LayerCount: 2
Fore
SplineSet
61 752 m 1
 202 752 l 1
 202 317 l 1
 447 514 l 1
 640 512 l 1
 379 284 l 1
 649 -3 l 1
 463 -2 l 1
 259 226 l 1
 202 154 l 1
 202 -2 l 1
 61 -2 l 1
 61 752 l 1
EndSplineSet
EndChar

StartChar: l
Encoding: 108 108 75
Width: 419
VWidth: 0
Flags: HW
HStem: -3 151<233.008 363.885> 741 20G<50 217>
VStem: 53 164<166.215 761>
LayerCount: 2
Fore
SplineSet
369 6 m 1
 346.333333333 0 322.666666667 -3 298 -3 c 0
 240 -3 188.666666667 14.3333333333 144 49 c 0
 99.3333333333 83.6666666667 69 128.666666667 53 184 c 1
 50 761 l 1
 217 761 l 1
 217 185 l 1
 238.333333333 160.333333333 265.333333333 148 298 148 c 0
 324.666666667 148 348.333333333 156.666666667 369 174 c 1
 369 6 l 1
EndSplineSet
EndChar

StartChar: m
Encoding: 109 109 76
Width: 924
VWidth: 0
Flags: HW
HStem: 373 151<232.824 364.747 559.824 690.715>
VStem: 50 169<6 356.608 512 522> 380 166<6 355.109> 707 167<6 352.119>
LayerCount: 2
Fore
SplineSet
50 522 m 1
 219 522 l 1
 219 512 l 1
 245 520 271 524 299 524 c 0
 360.004988784 524 415.129814507 503.152149152 458.432670891 467.950979903 c 1
 546 512 l 1
 572 520 598 524 626 524 c 0
 744 524 840 446 871 337 c 1
 874 6 l 1
 707 6 l 1
 707 336 l 1
 687 359 659 373 626 373 c 0
 594 373 566 360 546 338 c 1
 546 116.333333333 l 1
 547 6 l 1
 546 6 l 1
 380 6 l 1
 377 6 l 1
 380 323.25 l 1
 380 336 l 1
 360 359 332 373 299 373 c 0
 267 373 239 360 219 338 c 1
 219 6 l 1
 50 6 l 1
 50 522 l 1
EndSplineSet
EndChar

StartChar: n
Encoding: 110 110 77
Width: 597
VWidth: 0
Flags: HW
HStem: 373 151<232.824 363.715>
VStem: 50 169<6 356.608 512 522> 380 167<6 352.119>
LayerCount: 2
Fore
SplineSet
50 522 m 1
 219 522 l 1
 219 512 l 1
 245 520 271 524 299 524 c 0
 417 524 513 446 544 337 c 1
 547 6 l 1
 380 6 l 1
 380 336 l 1
 360 359 332 373 299 373 c 0
 267 373 239 360 219 338 c 1
 219 6 l 1
 50 6 l 1
 50 522 l 1
EndSplineSet
EndChar

StartChar: o
Encoding: 111 111 78
Width: 616
VWidth: 0
Flags: HW
HStem: 3 21G<307.408 308.151 311.478 383.5> 498 20G<307.408 308.151 311.478 383.5>
VStem: 50 151<197.14 323.449> 419 151<195.844 324.753>
LayerCount: 2
Fore
SplineSet
309.954681396 366.982788086 m 0
 301.641906738 366.84274292 293.393859863 365.848449707 286 364 c 1
 286 364.828063965 l 1
 236.898666382 354.945495605 201 312.437438965 201 260 c 0
 201 208.436508179 236.898666382 166.038650513 286 156.169952393 c 1
 286 157 l 1
 293.393859863 155.151535034 301.641937256 154.157287598 309.954711914 154.017227173 c 0
 318.230712891 154.163162231 326.28024292 155.23399353 334 157.131896973 c 1
 334 156.169952393 l 1
 383.101318359 166.038650513 419 208.436508179 419 260 c 0
 419 312.437438965 383.101318359 354.945495605 334 364.828063965 c 1
 334 363.864593506 l 1
 326.28024292 365.76574707 318.230682373 366.83682251 309.954681396 366.982788086 c 0
308.905792236 3.00155997276 m 0
 308.603973389 3.00155997276 308.302032471 3 308 3 c 0
 306.815063477 3 305.632049561 3.00789618492 304.45123291 3.02363610268 c 0
 299.66192627 3.0695514679 295.0050354 3.20466184616 290.134063721 3.60223269463 c 0
 155.541519165 12.7090320587 50 123.964859009 50 260 c 0
 50 396.991333008 155.538726807 508.286254883 290.128723145 517.397338867 c 0
 295.001708984 517.795227051 299.66027832 517.930419922 304.451171875 517.976379395 c 0
 305.632171631 517.992126465 306.815124512 518 308 518 c 0
 308.302062988 518 308.604003906 517.999450684 308.905517578 517.998413086 c 0
 309.925628662 518 310.956085205 518 312 518 c 0
 455 518 570 403 570 260 c 0
 570 118 455 3 312 3 c 0
 310.956176758 3 309.925842285 3.00155997276 308.905792236 3.00155997276 c 0
EndSplineSet
EndChar

StartChar: p
Encoding: 112 112 79
Width: 512
VWidth: 0
Flags: HW
HStem: -202 21G<50 202> -5 151<202 290.529> 359 150<202.375 290.409>
VStem: 50 152<-202 -4 146.026 358.974> 333 151<188.471 316.934>
LayerCount: 2
Fore
SplineSet
202 356 m 1
 202 149 l 1
 210 147 218 146 226 146 c 0
 286 146 333 193 333 253 c 0
 333 312 286 359 226 359 c 0
 218 359 210 358 202 356 c 1
202 -202 m 1
 50 -202 l 1
 50 509 l 1
 202 509 l 2
 210 510 218 510 226 510 c 0
 369 510 484 395 484 253 c 0
 484 110 369 -5 226 -5 c 0
 218 -5 210 -5 202 -4 c 1
 202 -202 l 1
EndSplineSet
EndChar

StartChar: q
Encoding: 113 113 80
Width: 512
VWidth: 0
Flags: HW
HStem: -202 21G<332 484> -5 151<243.471 332> 359 151<243.591 331.625>
VStem: 50 151<188.471 316.934> 332 152<-202 -4 146.026 358.974>
LayerCount: 2
Fore
SplineSet
332 356 m 1
 324 358 316 359 308 359 c 0
 248 359 201 312 201 253 c 0
 201 193 248 146 308 146 c 0
 316 146 324 147 332 149 c 1
 332 356 l 1
332 -202 m 1
 332 -4 l 1
 324 -5 316 -5 308 -5 c 0
 165 -5 50 110 50 253 c 0
 50 395 165 510 308 510 c 0
 316 510 324 510 332 509 c 2
 484 509 l 1
 484 -202 l 1
 332 -202 l 1
EndSplineSet
EndChar

StartChar: r
Encoding: 114 114 81
Width: 587
VWidth: 0
Flags: HW
HStem: 373 151<232.824 364.013>
VStem: 50 169<6 356.608 512 522>
LayerCount: 2
Fore
SplineSet
50 522 m 1
 219 522 l 1
 219 512 l 1
 245 520 271 524 299 524 c 0
 409.273376465 524 500 443 537 345 c 1
 372 345 l 1
 372 344.316375732 l 1
 352.808166504 362.329833984 327.80947876 373 299 373 c 0
 267 373 239 360 219 338 c 1
 219 6 l 1
 50 6 l 1
 50 522 l 1
EndSplineSet
EndChar

StartChar: s
Encoding: 115 115 82
Width: 508
VWidth: 0
Flags: HW
LayerCount: 2
Fore
SplineSet
68.6148213609 47 m 1
 135.614821361 159 l 1
 141.614821361 153 148.614821361 150 157.614821361 147 c 0
 210.614821361 123 254.614821361 131 280.614821361 162 c 0
 309.614821361 196 258.614821361 202 204.614821361 211 c 1
 76.6148213609 262 5.61482136094 345 80.6148213609 434 c 0
 143.614821361 510 296.614821361 527 423.614821361 473 c 0
 430.614821361 470 438.614821361 468 445.614821361 462 c 1
 378.614821361 332 l 1
 372.614821361 336 365.614821361 341 356.614821361 344 c 0
 303.614821361 366 281.614821361 359 255.614821361 328 c 0
 225.614821361 293 222.614821361 286 286.614821361 275 c 1
 405.614821361 225 508.614821361 164 432.614821361 75 c 0
 370.614821361 -1 217.614821361 -21 90.6148213609 34 c 0
 83.6148213609 36 76.6148213609 41 68.6148213609 47 c 1
EndSplineSet
EndChar

StartChar: t
Encoding: 116 116 83
Width: 514
VWidth: 0
Flags: HW
HStem: -3 151<328.285 459.024> 364 152<50 146.274 312 409> 741 20G<145 312>
VStem: 146.274 165.726<168.881 364 516 761>
LayerCount: 2
Fore
SplineSet
464 6 m 1
 441 0 418 -3 393 -3 c 0
 275 -3 179 75 148 184 c 1
 147.064117432 364 l 1
 50 364 l 1
 50 516 l 1
 146.273834229 516 l 1
 145 761 l 1
 312 761 l 1
 312 516 l 1
 409 516 l 1
 409 364 l 1
 312 364 l 1
 312 185 l 1
 332 162 360 148 393 148 c 0
 420 148 445 158 464 174 c 1
 464 6 l 1
EndSplineSet
EndChar

StartChar: u
Encoding: 117 117 84
Width: 598
VWidth: 0
Flags: HW
HStem: 6 151<234.841 364.565> 504 20G<51 218 379 548>
VStem: 54 164<177.881 524> 379 169<8 18 174.134 524>
LayerCount: 2
Fore
SplineSet
548 2 m 1
 379 2 l 1
 379 12 l 1
 353 4 327 0 299 0 c 0
 181 0 85 78 54 187 c 1
 51 518 l 1
 218 518 l 1
 218 188 l 1
 238 165 266 151 299 151 c 0
 331 151 359 164 379 186 c 1
 379 518 l 1
 548 518 l 1
 548 2 l 1
EndSplineSet
EndChar

StartChar: v
Encoding: 118 118 85
Width: 652
VWidth: 0
Flags: HW
HStem: 491 20G<50 208.757 443.243 602>
LayerCount: 2
Fore
SplineSet
50 511 m 1
 202 511 l 1
 326 144 l 1
 450 511 l 1
 602 511 l 1
 402 0 l 1
 250 0 l 1
 50 511 l 1
EndSplineSet
EndChar

StartChar: w
Encoding: 119 119 86
Width: 1044
VWidth: 0
Flags: HW
HStem: 491 20G<50 204.757 439.243 604.54 835.243 994>
LayerCount: 2
Fore
SplineSet
446 511 m 1
 598 511 l 1
 718 144 l 1
 842 511 l 1
 994 511 l 1
 794 0 l 1
 646 0 l 1
 522 316.820007324 l 1
 398 0 l 1
 250 0 l 1
 50 511 l 1
 198 511 l 1
 322 144 l 1
 446 511 l 1
EndSplineSet
EndChar

StartChar: x
Encoding: 120 120 87
Width: 724
VWidth: 0
Flags: HW
HStem: -1 20G<68.4269 229 481.563 674> 493 20G<67.4369 236 480.573 673>
LayerCount: 2
Fore
SplineSet
50 513 m 1
 236 511 l 1
 365.491546631 359.926544189 l 1
 498 512 l 1
 673 511 l 1
 452.585205078 258.317260742 l 1
 674 0 l 1
 499 -2 l 1
 362.290985107 154.804321289 l 1
 229 2 l 1
 51 -1 l 1
 274.5 255.5 l 1
 50 513 l 1
EndSplineSet
EndChar

StartChar: y
Encoding: 121 121 88
Width: 652
VWidth: 0
Flags: HW
HStem: 491 20G<50 227.757 450 627.185>
LayerCount: 2
Fore
SplineSet
50 511 m 1
 221 511 l 1
 345 144 l 1
 450 511 l 1
 635 514 l 1
 356 -200 l 1
 208 -204 l 1
 277.328125 0 l 1
 277 0 l 1
 50 511 l 1
EndSplineSet
EndChar

StartChar: z
Encoding: 122 122 89
Width: 512
VWidth: 0
Flags: HW
HStem: 10 152<301 503> 366 152<50 293>
LayerCount: 2
Fore
SplineSet
50 10 m 1
 50 162 l 1
 293 366 l 1
 50 366 l 1
 50 518 l 1
 503 518 l 1
 503 366 l 1
 301 162 l 1
 503 162 l 1
 503 10 l 1
 50 10 l 1
EndSplineSet
EndChar

StartChar: braceleft
Encoding: 123 123 90
Width: 419
VWidth: 0
Flags: HW
HStem: -92 121<378.218 450.506> 684 121<378.745 450.506>
VStem: 289 84<34.1962 228 485 674.933>
LayerCount: 2
Fore
SplineSet
451 -85 m 1
 440 -90 427 -92 414 -92 c 0
 354 -92 305 -29 289 58 c 1
 288 228 l 1
 179 358 l 1
 288 485 l 1
 289 655 l 1
 305 742 354 805 414 805 c 0
 427 805 440 803 451 798 c 1
 451 663 l 1
 441 676 428 684 414 684 c 0
 397 684 383 672 373 654 c 1
 374 470 l 1
 292 369 l 1
 373 228 l 1
 373 58 l 1
 383 40 397 29 414 29 c 0
 428 29 441 37 451 50 c 1
 451 -85 l 1
EndSplineSet
EndChar

StartChar: bar
Encoding: 124 124 91
Width: 252
VWidth: 0
Flags: HW
VStem: 65 122<-99 871>
LayerCount: 2
Fore
SplineSet
65 871 m 1
 187 871 l 1
 187 -99 l 1
 65 -99 l 1
 65 871 l 1
EndSplineSet
EndChar

StartChar: braceright
Encoding: 125 125 92
Width: 419
VWidth: 0
Flags: HW
HStem: -92 121<179.494 251.782> 684 121<179.494 251.255>
VStem: 257 84<34.1962 228 485 674.933>
LayerCount: 2
Fore
SplineSet
179 -85 m 1
 179 50 l 1
 189 37 202 29 216 29 c 0
 233 29 247 40 257 58 c 1
 257 228 l 1
 338 369 l 1
 256 470 l 1
 257 654 l 1
 247 672 233 684 216 684 c 0
 202 684 189 676 179 663 c 1
 179 798 l 1
 190 803 203 805 216 805 c 0
 276 805 325 742 341 655 c 1
 342 485 l 1
 451 358 l 1
 342 228 l 1
 341 58 l 1
 325 -29 276 -92 216 -92 c 0
 203 -92 190 -90 179 -85 c 1
EndSplineSet
EndChar

StartChar: asciitilde
Encoding: 126 126 93
Width: 644
VWidth: 0
Flags: HW
HStem: 344 152.581<255.052 477.98> 400 152<101.251 233.491>
LayerCount: 2
Fore
SplineSet
549 577 m 1
 549 425 l 2
 548.596972099 423.50077041 492.831054688 344 421 344 c 0
 373 344 369 344 321 344 c 0
 257 344 232 400 168 400 c 0
 117 400 50 344 50 344 c 1
 50 496 l 1
 50 496 114 552 164 552 c 0
 230 552 258 497 324 497 c 0
 368 497 369 497 413 496.581054688 c 0
 482 497 549 577 549 577 c 1
EndSplineSet
EndChar

StartChar: .notdef
Encoding: 0 0 94
Width: 1000
Flags: HW
HStem: 0 66<293 685> 205.75 71<421 497> 321.75 117.5<421 477.005> 545.75 75.5<421 476.239> 732 62<293 685>
VStem: 243 50<66 732> 421 76<205.75 276.75 321.75 394.448> 487.5 75.5<449.629 534.632> 685 48<66 732>
LayerCount: 2
Fore
SplineSet
258 794 m 2
 718 794 l 2
 726 794 733 787 733 779 c 2
 733 15 l 2
 733 7 726 0 718 0 c 2
 258 0 l 2
 250 0 243 7 243 15 c 2
 243 779 l 2
 243 787 250 794 258 794 c 2
308 732 m 2
 300 732 293 725 293 717 c 2
 293 81 l 2
 293 73 300 66 308 66 c 2
 670 66 l 2
 678 66 685 73 685 81 c 2
 685 717 l 2
 685 725 678 732 670 732 c 2
 308 732 l 2
421 620.75 m 1
 425.5 621.25 429.5 621.25 434 621.25 c 0
 505.5 621.25 563 563.75 563 492.75 c 0
 563 444.165039062 536.450195312 402.044921875 497 380.037109375 c 1
 497 321.75 l 1
 421 321.75 l 1
 421 364.25 l 1
 421 426.75 l 1
 421 440.75 l 1
 425 439.75 429.5 439.25 434 439.25 c 0
 464 439.25 487.5 462.75 487.5 492.75 c 0
 487.5 522.25 464 545.75 434 545.75 c 0
 429.5 545.75 425 545.25 421 544.25 c 1
 421 620.75 l 1
421 205.75 m 1
 421 276.75 l 1
 497 276.75 l 1
 497 205.75 l 1
 421 205.75 l 1
EndSplineSet
EndChar

StartChar: u09a4
Encoding: 2468 2468 95
Width: 726
VWidth: 75
Flags: HW
HStem: 4.7002 133.6<305.264 468.805> 513.479 120.821<395.987 467.023> 671 132<0 726>
VStem: 92.4004 111.399<240.829 328.876> 570.2 133.399<240.829 414.049>
LayerCount: 2
Fore
SplineSet
389.780273438 513.478515625 m 1
 389.780273438 513.478515625 395.987304688 634.29296875 395.987304688 634.29296875 c 2
 396.657226562 634.297851562 397.328125 634.299804688 398 634.299804688 c 0
 566.799804688 634.299804688 703.599609375 493.5 703.599609375 319.900390625 c 0
 703.599609375 145.5 566.799804688 4.7001953125 398 4.7001953125 c 0
 229.200195312 4.7001953125 92.400390625 145.5 92.400390625 319.900390625 c 0
 92.400390625 320.77734375 203.86328125 330.658203125 203.870117188 331.533203125 c 1
 203.823242188 329.794921875 203.799804688 328.049804688 203.799804688 326.299804688 c 0
 203.799804688 222.299804688 285.400390625 138.299804688 387 138.299804688 c 0
 488.599609375 138.299804688 570.200195312 222.299804688 570.200195312 326.299804688 c 0
 570.200195312 428.556640625 490.084960938 511.962890625 389.780273438 513.478515625 c 1
726 803 m 5
 726 671 l 5
 0 671 l 5
 0 803 l 5
 726 803 l 5
EndSplineSet
EndChar

StartChar: uni09AC
Encoding: 2476 2476 96
Width: 723
VWidth: 0
Flags: HW
HStem: 671 132<0 524 670 723> 671 106<524 670>
VStem: 524 146<1 73.5 225.5 473.5 625.5 777> 524 57.5<73.5 225.5 473.5 473.5>
LayerCount: 2
Fore
SplineSet
723 803 m 1
 723 671 l 1
 670 671 l 1
 670 1 l 1
 524 1 l 1
 524 2.79845814978 l 1
 70.5 273.5 l 1
 70.5 425.5 l 1
 524 602.995107632 l 1
 524 671 l 1
 0 671 l 1
 0 803 l 1
 723 803 l 1
524 154.814516129 m 1
 524 454.072207084 l 1
 214.5 349.5 l 1
 524 154.814516129 l 1
EndSplineSet
EndChar

StartChar: exclamdown
Encoding: 161 161 99
Width: 252
VWidth: 0
Flags: HW
HStem: -2 21G<50 202> 492 20G<50 202> 630 142<50 202>
VStem: 50 152<-2 512 630 772>
LayerCount: 2
Fore
SplineSet
202 772 m 1
 202 630 l 1
 50 630 l 1
 50 772 l 1
 202 772 l 1
202 512 m 1
 202 -2 l 1
 50 -2 l 1
 50 512 l 1
 202 512 l 1
EndSplineSet
EndChar

StartChar: sterling
Encoding: 163 163 103
Width: 772
VWidth: 0
Flags: HW
HStem: -3 169.5<2.5 597.285> 359 152<50 146.882 312 409> 610 151<328.841 458.555>
VStem: 145 167<-3 359 511 589.119> 615.5 151<182.508 312.889>
LayerCount: 2
Fore
SplineSet
464 752 m 1
 464 584 l 1
 445 600 420 610 393 610 c 0
 360 610 332 596 312 573 c 1
 312 511 l 1
 409 511 l 1
 409 359 l 1
 312 359 l 1
 312 166.5 l 1
 578.5 166.5 l 1
 603.166992188 187.833007812 615.5 214.833007812 615.5 247.5 c 0
 615.5 274.166992188 606.833007812 297.833007812 589.5 318.5 c 1
 757.5 318.5 l 1
 763.5 295.833007812 766.5 272.166992188 766.5 247.5 c 0
 766.5 189.5 749.166992188 138.166992188 714.5 93.5 c 0
 679.833007812 48.8330078125 634.833007812 18.5 579.5 2.5 c 1
 312 1.10918544194 l 1
 312 -3 l 1
 145 -3 l 1
 145.016850895 0.240988826144 l 1
 2.5 -0.5 l 1
 2.5 166.5 l 1
 145.881282496 166.5 l 1
 146.882149047 359 l 1
 50 359 l 1
 50 511 l 1
 147.672443674 511 l 1
 148 574 l 1
 179 683 275 761 393 761 c 0
 418 761 441 758 464 752 c 1
EndSplineSet
EndChar

StartChar: uni098F
Encoding: 2447 2447 104
Width: 697
VWidth: 0
Flags: HW
HStem: 610 151<310.445 440.159>
VStem: 2.5 151<182.508 312.889>
LayerCount: 2
Fore
SplineSet
11.5 318.5 m 1
 179.5 318.5 l 1
 162.166992188 297.833007812 153.5 274.166992188 153.5 247.5 c 0
 153.5 214.833007812 165.833007812 187.833007812 190.5 166.5 c 1
 457 166.5 l 1
 457 573 l 1
 437 596 409 610 376 610 c 0
 349 610 324 600 305 584 c 1
 305 752 l 1
 328 758 351 761 376 761 c 0
 494 761 590 683 621 574 c 1
 624 -3 l 5
 476.245256985 -4.0880763483 337.399286618 3.73261995089 189.5 2.5 c 5
 134.166992188 18.5 89.1669921875 48.8330078125 54.5 93.5 c 0
 19.8330078125 138.166992188 2.5 189.5 2.5 247.5 c 0
 2.5 272.166992188 5.5 295.833007812 11.5 318.5 c 1
EndSplineSet
EndChar

StartChar: uni0985
Encoding: 2437 2437 105
Width: 946
VWidth: 0
Flags: HW
HStem: -2 21G<751 791.187> 4.7002 125.6<314.372 481.628> 505.479 128.821<400.78 481.669> 671 132<0 773 925 946> 671 105<773 925>
VStem: 92.4004 122.399<233.067 322.113> 581.2 122.399<273.807 406.338> 773 152<105 776>
LayerCount: 2
Fore
SplineSet
400.780273438 505.478515625 m 1
 400.780273438 505.478515625 395.987304688 634.29296875 395.987304688 634.29296875 c 1
 396.657226562 634.297851562 397.328125 634.299804688 398 634.299804688 c 0
 566.799804688 634.299804688 703.599609375 493.5 703.599609375 319.900390625 c 0
 703.599609375 307.249759895 702.87980426 294.775926739 701.480193538 282.519806462 c 1
 773 211 l 1
 773 671 l 1
 0 671 l 1
 0 803 l 1
 946 803 l 1
 946 671 l 1
 925 671 l 1
 925 0 l 1
 773.018691589 -7.1054273576e-15 l 1
 771 -2 l 1
 640.748918214 128.251081786 l 1
 584.901120504 53.0813157972 496.948422479 4.7001953125 398 4.7001953125 c 0
 229.200195312 4.7001953125 92.400390625 145.5 92.400390625 319.900390625 c 0
 92.400390625 320.77734375 214.86328125 322.658203125 214.870117188 323.533203125 c 1
 214.823242188 321.794921875 214.799804688 320.049804688 214.799804688 318.299804688 c 0
 214.799804688 214.299804688 296.400390625 130.299804688 398 130.299804688 c 0
 499.599609375 130.299804688 581.200195312 214.299804688 581.200195312 318.299804688 c 0
 581.200195312 420.556640625 501.084960938 503.962890625 400.780273438 505.478515625 c 1
EndSplineSet
EndChar

StartChar: uni09BE
Encoding: 2494 2494 106
Width: 436
VWidth: 0
Flags: HW
HStem: -2 21G<234 386> 671 132<273 434>
VStem: 234 200<671 803> 234 152<-2 487 803 847> 273 113<671 803>
LayerCount: 2
Fore
SplineSet
234 847 m 1
 386 847 l 1
 386 803 l 1
 434 803 l 1
 434 671 l 1
 386 671 l 1
 386 -2 l 1
 234 -2 l 1
 234 488.981481481 l 1
 232 487 l 1
 -73 785 l 1
 128 782 l 1
 234 688 l 1
 234 847 l 1
EndSplineSet
EndChar

StartChar: uni0986
Encoding: 2438 2438 107
Width: 1261
VWidth: 0
Flags: HW
HStem: -2 21G<751 791.187> 4.7002 125.6<314.372 481.628> 505.479 128.821<400.78 481.669> 671 129<0 754 773 946 1100 1261> 671 105<773 925>
VStem: 92.4004 122.399<233.067 322.113> 581.2 122.399<273.807 406.338> 773 173<671 776> 1061 200<671 803> 1061 152<-2 487 803 850> 1100 113<671 803>
LayerCount: 2
Fore
SplineSet
1061 850 m 1
 1213 850 l 1
 1213 803 l 1
 1261 803 l 1
 1261 671 l 1
 1213 671 l 1
 1213 -2 l 1
 1061 -2 l 1
 1061 488.981481481 l 1
 1059 487 l 1
 925 624.514754098 l 1
 925 0 l 1
 773.018691589 -7.1054273576e-15 l 1
 771 -2 l 1
 640.748918214 128.251081786 l 1
 584.901120504 53.0813157972 496.948422479 4.7001953125 398 4.7001953125 c 0
 229.200195312 4.7001953125 92.400390625 145.5 92.400390625 319.900390625 c 0
 92.400390625 320.77734375 214.86328125 322.658203125 214.870117188 323.533203125 c 1
 214.823242188 321.794921875 214.799804688 320.049804688 214.799804688 318.299804688 c 0
 214.799804688 214.299804688 296.400390625 130.299804688 398 130.299804688 c 0
 499.599609375 130.299804688 581.200195312 214.299804688 581.200195312 318.299804688 c 0
 581.200195312 420.556640625 501.084960938 503.962890625 400.780273438 505.478515625 c 1
 400.780273438 505.478515625 395.987304688 634.29296875 395.987304688 634.29296875 c 1
 396.657226562 634.297851562 397.328125 634.299804688 398 634.299804688 c 0
 566.799804688 634.299804688 703.599609375 493.5 703.599609375 319.900390625 c 0
 703.599609375 307.249759895 702.87980426 294.775926739 701.480193538 282.519806462 c 1
 773 211 l 1
 773 671 l 1
 0 671 l 1
 0 800 l 1
 754 800 l 1
 946 800 l 1
 955 800 l 1
 1061 697 l 1
 1061 850 l 1
EndSplineSet
EndChar

StartChar: uni09B9
Encoding: 2489 2489 108
Width: 689
VWidth: 0
Flags: HW
HStem: -1 21G<407 593> 671 132<0 689>
LayerCount: 2
Fore
SplineSet
689 803 m 1
 689 671 l 1
 0 671 l 1
 0 803 l 1
 689 803 l 1
236.141601562 472.20703125 m 1
 236.141601562 472.20703125 128.799804688 578.45703125 128.026367188 577.68359375 c 1
 230.65625 680.313476562 392.620117188 682.33203125 495.080078125 579.872070312 c 0
 596.706054688 478.24609375 594.452148438 316.5078125 492.18359375 213.525390625 c 0
 466.661126095 187.824885392 439.724758431 169.067382236 412.25783953 156.351998526 c 1
 593 -1 l 1
 434 -1 l 1
 225.735839667 153.269748394 l 1
 190.403837657 167.595218234 157.993184242 189.702943722 130.920898438 217.127929688 c 1
 233.453125 319.66015625 l 1
 233.686523438 319.422851562 233.921875 319.186523438 234.158203125 318.950195312 c 0
 276.666992188 276.440429688 340.711914062 277.127929688 386.141601562 321.051757812 c 0
 429.873046875 366.353515625 430.990234375 430.416015625 388.306640625 473.099609375 c 0
 345.163085938 516.244140625 281.517578125 515.487304688 236.141601562 472.20703125 c 1
EndSplineSet
EndChar

StartChar: uni0987
Encoding: 2439 2439 109
Width: 689
VWidth: 0
Flags: HW
HStem: -1 21G<407 593> 671 132<0 307.581 543.755 689>
LayerCount: 2
Fore
SplineSet
689 803 m 1
 689 671 l 1
 0 671 l 1
 0 803 l 1
 333.488825367 803 l 1
 327.990715846 828.393884523 317.923165746 854.420599746 299.7890625 872.776367188 c 0
 268.380859375 903.592773438 267.673828125 904.299804688 236.560546875 935.412109375 c 0
 189.891601562 982.081054688 131.202148438 962.989257812 84.5322265625 1009.65820312 c 0
 49.177734375 1045.01367188 43.5205078125 1129.8671875 43.5205078125 1129.8671875 c 1
 131.909179688 1218.25488281 l 1
 131.909179688 1218.25488281 139.6875 1131.28125 175.749023438 1095.21875 c 0
 221.00390625 1049.96386719 278.280273438 1071.88378906 323.53515625 1026.62890625 c 0
 357.475585938 992.688476562 360.3046875 989.859375 394.245117188 955.918945312 c 0
 444.2734375 905.890625 424.794921875 808.1796875 427.479492188 808.1328125 c 1
 422.346622977 803 l 1
 689 803 l 1
236.141601562 472.20703125 m 1
 236.141601562 472.20703125 128.799804688 578.45703125 128.026367188 577.68359375 c 1
 230.65625 680.313476562 392.620117188 682.33203125 495.080078125 579.872070312 c 0
 596.706054688 478.24609375 594.452148438 316.5078125 492.18359375 213.525390625 c 0
 466.661126095 187.824885392 439.724758431 169.067382236 412.25783953 156.351998526 c 1
 593 -1 l 1
 434 -1 l 1
 225.735839667 153.269748394 l 1
 190.403837657 167.595218234 157.993184242 189.702943722 130.920898438 217.127929688 c 1
 233.453125 319.66015625 l 1
 233.686523438 319.422851562 233.921875 319.186523438 234.158203125 318.950195312 c 0
 276.666992188 276.440429688 340.711914062 277.127929688 386.141601562 321.051757812 c 0
 429.873046875 366.353515625 430.990234375 430.416015625 388.306640625 473.099609375 c 0
 345.163085938 516.244140625 281.517578125 515.487304688 236.141601562 472.20703125 c 1
EndSplineSet
EndChar

StartChar: uni09A1
Encoding: 2465 2465 110
Width: 616
VWidth: 0
Flags: HW
HStem: 3.00156 151.016<243.473 373.671> 366 151.998<309 441> 671 132<0 309 441 616> 671 80<309 441>
VStem: 309 132<517.998 751>
LayerCount: 2
Fore
SplineSet
616 803 m 1
 616 671 l 1
 441 671 l 1
 441 483.792173248 l 1
 519.61082036 439.65999026 572.310417467 356.931210526 570 260 c 0
 566.541106206 114.885635484 452.286645156 2.8001721638 308.905792236 3.00155997276 c 0
 139.039267851 3.24014864388 55.1649552713 131.789550758 56.0009765625 261 c 1
 201.004086554 261 l 1
 201.001363701 260.667152961 201 260.33381812 201 260 c 0
 201 199.88239772 246.772259079 155.081776804 309.954711914 154.017227173 c 0
 372.911202253 155.127371927 419 199.636531606 419 260 c 0
 419 316.657057215 379.734620075 359.047087306 323.932153737 366 c 1
 309 366 l 1
 309 517.624026064 l 2
 308.968785327 517.871154762 308.937287529 517.998413086 308.905517578 517.998413086 c 1
 308.937012931 517.998413086 308.968507072 517.998397104 309 517.998397104 c 1
 309 671 l 1
 0 671 l 1
 0 803 l 1
 616 803 l 1
EndSplineSet
EndChar

StartChar: uni0989
Encoding: 2441 2441 111
Width: 612
VWidth: 0
Flags: HW
HStem: 3.00195 151.016<238.473 368.671> 366 151.998<304 436> 671 132<-5 436 543.755 611>
LayerCount: 2
Fore
SplineSet
611 803 m 1
 611 671 l 1
 436 671 l 1
 436 483.791928804 l 1
 514.610898659 439.659933408 567.310629944 356.931448937 565 260 c 0
 561.541015625 114.885742188 447.287109375 2.7998046875 303.90625 3.001953125 c 0
 134.0390625 3.240234375 50.1650390625 131.7890625 51.0009765625 261 c 1
 196.00390625 261 l 1
 196.000976562 260.666992188 196 260.333984375 196 260 c 0
 196 199.8828125 241.772460938 155.08203125 304.955078125 154.017578125 c 0
 367.911132812 155.126953125 414 199.63671875 414 260 c 0
 414 316.657272303 374.735147705 359.047133286 318.932544409 366 c 1
 304 366 l 1
 304 517.621889665 l 2
 303.968705502 517.870180824 303.937126301 517.998046875 303.905273438 517.998046875 c 1
 303.936850177 517.998046875 303.968425698 517.998030811 304 517.998030811 c 1
 304 671 l 1
 -5 671 l 1
 -5 803 l 1
 294.169993045 803 l 1
 288.782967079 829.090358008 278.663846542 856.108013886 260 875 c 0
 228.591796875 905.81640625 227.884765625 906.5234375 196.771484375 937.635742188 c 0
 150.102539062 984.3046875 91.4130859375 965.212890625 44.7431640625 1011.88183594 c 0
 9.388671875 1047.23730469 3.7314453125 1132.09082031 3.7314453125 1132.09082031 c 1
 92.1201171875 1220.47851562 l 1
 92.1201171875 1220.47851562 99.8984375 1133.50488281 135.959960938 1097.44238281 c 0
 181.21484375 1052.1875 238.491210938 1074.10742188 283.74609375 1028.85253906 c 0
 317.686523438 994.912109375 320.515625 992.083007812 354.456054688 958.142578125 c 0
 404.484375 908.114257812 385.005859375 810.403320312 387.690429688 810.356445312 c 1
 380.333903097 803 l 1
 611 803 l 1
EndSplineSet
EndChar

StartChar: uni09A2
Encoding: 2466 2466 112
Width: 642
VWidth: 0
Flags: HW
HStem: 671 132<0 50 217 639> 671 90<50 217>
VStem: 53 164<172.77 761> 452 164<172.95 373>
LayerCount: 2
Fore
SplineSet
616 184 m 1
 547.931600739 -55.413201197 122.236742402 -59.4453068289 53 184 c 1
 50.4679376083 671 l 1
 0 671 l 1
 0 803 l 1
 639 803 l 1
 639 671 l 1
 217 671 l 1
 217 185 l 1
 255.237263098 141.0271551 414.430937416 139.917124899 452 185 c 1
 452 373 l 1
 619 373 l 1
 616 184 l 1
EndSplineSet
EndChar

StartChar: uni099F
Encoding: 2463 2463 113
Width: 642
VWidth: 0
Flags: HW
HStem: 671 132<0 50 543.755 639> 671 90<50 217>
VStem: 53 164<172.77 761> 452 164<172.95 373>
LayerCount: 2
Fore
SplineSet
616 184 m 1
 547.931600739 -55.413201197 122.236742402 -59.4453068289 53 184 c 1
 50.4679376083 671 l 1
 0 671 l 1
 0 803 l 1
 251.8359375 803 l 1
 236.87109375 817.96484375 l 2
 191.616210938 863.219726562 213.536132812 920.49609375 168.28125 965.750976562 c 0
 132.21875 1001.8125 45.2451171875 1009.59082031 45.2451171875 1009.59082031 c 1
 133.6328125 1097.97949219 l 1
 133.6328125 1097.97949219 218.486328125 1092.32226562 253.841796875 1056.96777344 c 0
 300.510742188 1010.29785156 281.418945312 951.608398438 328.087890625 904.939453125 c 0
 359.200195312 873.826171875 359.907226562 873.119140625 390.723632812 841.7109375 c 0
 417.475317522 815.282306061 460.520195433 805.987138779 494.153626507 803 c 2
 639 803 l 1
 639 671 l 1
 217 671 l 1
 217 185 l 1
 255.237263098 141.0271551 414.430937416 139.917124899 452 185 c 1
 452 373 l 1
 619 373 l 1
 616 184 l 1
EndSplineSet
EndChar

StartChar: uni0995
Encoding: 2453 2453 114
Width: 1095
VWidth: 0
Flags: HW
HStem: 351.5 151<716.566 845.029> 671 132<0 524 670 1088> 671 106<524 670>
VStem: 523.5 58<73.5 218.5 473.5 473.5> 524 146<1 73.5 218.5 244.5 625.5 777> 887.5 151<218.5 309.029>
LayerCount: 2
Fore
SplineSet
1098 803 m 1
 1098 671 l 1
 670 671 l 1
 670 477.600069761 l 1
 703.468509368 493.572796798 740.936278656 502.5 780.5 502.5 c 0
 923.5 502.5 1038.5 387.5 1038.5 244.5 c 0
 1038.5 235.7265625 1038.06054688 227.053710938 1037.20410156 218.5 c 1
 884.364257812 218.5 l 1
 886.415039062 226.826171875 887.5 235.536132812 887.5 244.5 c 0
 887.5 304.5 840.5 351.5 780.5 351.5 c 0
 721.5 351.5 674.5 304.5 674.5 244.5 c 0
 674.5 235.536132812 675.584960938 226.826171875 677.631835938 218.5 c 1
 670 218.5 l 1
 670 1 l 1
 527 1 l 1
 70.5 273.5 l 1
 70.5 425.5 l 1
 524 602.995107632 l 1
 524 671 l 1
 0 671 l 1
 0 803 l 1
 1098 803 l 1
524.961512551 155.461554656 m 1
 524.961512551 155.461554656 524.008083867 452 524 454.072207084 c 1
 214.5 349.5 l 1
 524.961512551 155.461554656 l 1
EndSplineSet
EndChar

StartChar: uni0993
Encoding: 2451 2451 115
Width: 616
VWidth: 0
Flags: HW
HStem: 3 151.017<247.114 376.368> 676 6<225.316 227.624>
VStem: 50 151<198.344 364.102> 419 151<195.94 324.826 500.937 633.001>
LayerCount: 2
Fore
SplineSet
287 682 m 0
 280.208007812 681.634765625 231.076171875 677.51953125 225 676 c 1
 227.624023438 676.109375 204.358392055 760.16298253 207 760 c 0
 218.190429688 759.309570313 279.1413532 800.811067387 331 808 c 0
 474.523173823 827.895976636 572.978594643 717.309350141 570 565 c 0
 568.886810809 508.077476926 551.513465846 455.473502878 520.147722665 412.892506528 c 1
 551.513465846 370.167623622 570 317.334346404 570 260 c 0
 570 118 455 3 312 3 c 0
 310.956176758 3 309.925842285 3.00155997276 308.905792236 3.00155997276 c 0
 308.603973389 3.00155997276 308.302032471 3 308 3 c 0
 306.815063477 3 305.632049561 3.00789618492 304.45123291 3.02363610268 c 0
 299.66192627 3.0695514679 295.0050354 3.20466184616 290.134063721 3.60223269463 c 0
 155.541519165 12.7090320587 50 123.964859009 50 260 c 0
 50 315.204104449 67.1383262217 366.2353949 96.41015625 408.088867188 c 1
 108 412 l 1
 286.961635046 362.550074527 201 404.883119019 201 260 c 0
 201 199.879084003 246.760359118 155.081977304 309.954711914 154.017227173 c 0
 372.901330704 155.127197857 419 199.640275116 419 260 c 0
 419 312.437438965 383.101318359 354.945495605 334 364.828063965 c 1
 334 363.864593506 l 1
 309.955078125 459.017578125 l 1
 318.23046875 459.163085938 326.280273438 460.234375 334 462.131835938 c 1
 334 461.169921875 l 1
 383.1015625 471.0390625 419 513.436523438 419 565 c 0
 419 643.319849683 365.104366021 686.19526104 287 682 c 0
EndSplineSet
EndChar

StartChar: uni09B0
Encoding: 2480 2480 116
Width: 723
VWidth: 0
Flags: HW
HStem: -2 142<161 313> 671 132<0 524 670 723> 671 106<524 670>
VStem: 161 152<-2 140> 524 146<1 73.5 225.5 473.5 625.5 777> 524 57.5<73.5 225.5 473.5 473.5>
LayerCount: 2
Fore
SplineSet
723 803 m 1
 723 671 l 1
 670 671 l 1
 670 1 l 1
 523 1 l 1
 523 2.79911699779 l 1
 70.5 273.5 l 1
 70.5 425.5 l 1
 524 602.995107632 l 1
 524 671 l 1
 0 671 l 1
 0 803 l 1
 723 803 l 1
94 -2 m 1
 94 140 l 1
 246 140 l 1
 246 -2 l 1
 94 -2 l 1
523 154.815533981 m 1
 523 454.072265625 l 1
 214.5 349.5 l 1
 523 154.815533981 l 1
EndSplineSet
EndChar

StartChar: mu
Encoding: 181 181 119
Width: 598
VWidth: 0
Flags: HW
HStem: 6 151<234.435 364.159> 504 20G<51 220 381 548>
VStem: 51 169<-189 18 174.134 524> 381 164<177.881 524>
LayerCount: 2
Fore
SplineSet
51 -189 m 1
 51 524 l 1
 220 524 l 1
 220 192 l 1
 240 170 268 157 300 157 c 0
 333 157 361 171 381 194 c 1
 381 524 l 1
 548 524 l 1
 545 193 l 1
 514 84 418 6 300 6 c 0
 272 6 246 10 220 18 c 1
 220 -189 l 1
 51 -189 l 1
EndSplineSet
EndChar

StartChar: guillemotleft
Encoding: 171 171 120
Width: 1282
VWidth: 0
Flags: HW
LayerCount: 2
Fore
SplineSet
594 663 m 1
 594 511 l 1
 187.895507812 337.71875 l 1
 594 158 l 1
 594 6 l 1
 50 250 l 1
 50 251 l 1
 50 402 l 1
 50 403 l 1
 594 663 l 1
1194 663 m 1
 1194 511 l 1
 787.895507812 337.71875 l 1
 1194 158 l 1
 1194 6 l 1
 650 250 l 1
 650 251 l 1
 650 402 l 1
 650 403 l 1
 1194 663 l 1
EndSplineSet
EndChar

StartChar: guillemotright
Encoding: 187 187 121
Width: 1282
VWidth: 0
Flags: HW
LayerCount: 2
Fore
SplineSet
650 663 m 1
 1194 403 l 1
 1194 402 l 1
 1194 251 l 1
 1194 250 l 1
 650 6 l 1
 650 158 l 1
 1056.10449219 337.71875 l 1
 650 511 l 1
 650 663 l 1
50 663 m 1
 594 403 l 1
 594 402 l 1
 594 251 l 1
 594 250 l 1
 50 6 l 1
 50 158 l 1
 456.104492188 337.71875 l 1
 50 511 l 1
 50 663 l 1
EndSplineSet
EndChar

StartChar: cent
Encoding: 162 162 122
Width: 384
VWidth: 0
Flags: HW
HStem: 3 151<287.13 334> 367 151<287.13 334>
VStem: 50 151<196.066 324.529> 238 47<-99 700>
LayerCount: 2
Fore
SplineSet
334 4.29609966278 m 1
 325.446716309 3.43895053864 316.772979736 3 308 3 c 0
 300.246392814 3 292.575103388 3.3380908018 285 4.00024472233 c 1
 285 -99 l 1
 238 -99 l 1
 238 12.5172419365 l 1
 129.259927693 42.8346657063 50 142.112906559 50 260 c 0
 50 378.71728424 129.259927693 478.136499129 238 508.477861587 c 1
 238 700 l 1
 285 700 l 1
 285 516.999595872 l 1
 292.575103388 517.661909198 300.246392814 518 308 518 c 0
 316.772979736 518 325.446716309 517.561035156 334 516.703674316 c 1
 334 363.864593506 l 1
 325.673736572 365.915100098 316.96383667 367 308 367 c 0
 300.080809309 367 292.388084329 366.181239357 285 364.621893012 c 1
 285 156.375807725 l 1
 292.388084329 154.818760643 300.080809309 154 308 154 c 0
 316.96383667 154 325.673736572 155.084884644 334 157.131896973 c 1
 334 4.29609966278 l 1
238 341.549384085 m 1
 215.219268495 322.071115539 201 293.002052349 201 260 c 0
 201 227.547981857 215.219268495 198.726415245 238 179.359511694 c 1
 238 341.549384085 l 1
EndSplineSet
EndChar

StartChar: yen
Encoding: 165 165 123
Width: 612
VWidth: 0
Flags: HW
HStem: 196 62<36 580> 334 62<36 580>
VStem: 229 152<1 450>
LayerCount: 2
Fore
SplineSet
229 451 m 1
 229.365234375 451 l 1
 30 765 l 1
 182 765 l 1
 306 594 l 1
 430 765 l 1
 582 765 l 1
 382 450 l 1
 381 450 l 1
 381 396 l 1
 580 396 l 1
 580 334 l 1
 381 334 l 1
 381 258 l 1
 580 258 l 1
 580 196 l 1
 381 196 l 1
 381 1 l 1
 229 1 l 1
 229 196 l 1
 36 196 l 1
 36 258 l 1
 229 258 l 1
 229 334 l 1
 36 334 l 1
 36 396 l 1
 229 396 l 1
 229 451 l 1
EndSplineSet
EndChar

StartChar: questiondown
Encoding: 191 191 124
Width: 384
VWidth: 0
Flags: HW
HStem: -2 151<243.471 334> 687 142<182 334>
VStem: 50 151<191.066 318.017> 182 152<467.009 597 687 829>
LayerCount: 2
Fore
SplineSet
334 -1 m 1
 325 -2 317 -2 308 -2 c 0
 165 -2 50 113 50 255 c 0
 50 352.168945312 103.098632812 436.41015625 182 480.426757812 c 1
 182 597 l 1
 334 597 l 1
 334 512 l 1
 334 387 l 1
 334 359 l 1
 326 361 317 362 308 362 c 0
 248 362 201 315 201 255 c 0
 201 196 248 149 308 149 c 0
 317 149 326 150 334 152 c 1
 334 -1 l 1
334 829 m 1
 334 687 l 1
 182 687 l 1
 182 829 l 1
 334 829 l 1
EndSplineSet
EndChar

StartChar: plusminus
Encoding: 177 177 125
Width: 644
VWidth: 0
Flags: HW
HStem: -30 152<50 594> 344 152<50 594>
VStem: 246 152<149 692>
LayerCount: 2
Fore
SplineSet
246 692 m 1
 398 692 l 1
 398 496 l 1
 594 496 l 1
 594 344 l 1
 398 344 l 1
 398 149 l 1
 246 149 l 1
 246 344 l 1
 50 344 l 1
 50 496 l 1
 246 496 l 1
 246 692 l 1
594 122 m 1
 594 -30 l 1
 50 -30 l 1
 50 122 l 1
 594 122 l 1
EndSplineSet
EndChar

StartChar: gravecomb
Encoding: 768 768 127
Width: 0
VWidth: 0
GlyphClass: 4
Flags: HW
HStem: 516 289
VStem: -145 290
LayerCount: 2
Fore
SplineSet
37 516 m 1
 -145 698 l 1
 -37 805 l 1
 145 623 l 1
 37 516 l 1
EndSplineSet
EndChar

StartChar: acutecomb
Encoding: 769 769 128
Width: 0
VWidth: 0
GlyphClass: 4
Flags: HW
HStem: 516 289
VStem: -145 290
LayerCount: 2
Fore
SplineSet
-37 516 m 1
 -145 623 l 1
 37 805 l 1
 145 698 l 1
 -37 516 l 1
EndSplineSet
EndChar

StartChar: uni0302
Encoding: 770 770 129
Width: 0
VWidth: 0
GlyphClass: 4
Flags: HW
HStem: 766.5 167<-29 -24.5 24.5 47.5>
VStem: -100.5 201
LayerCount: 2
Fore
SplineSet
-100.5 766.5 m 1
 -29 933.5 l 1
 -28.5 933.5 l 1
 47 933.5 l 1
 47.5 933.5 l 1
 100.5 766.5 l 1
 24.5 766.5 l 1
 3.5 873.5 l 1
 -24.5 766.5 l 1
 -100.5 766.5 l 1
EndSplineSet
EndChar

StartChar: tildecomb
Encoding: 771 771 130
Width: 0
VWidth: 0
GlyphClass: 4
Flags: HW
HStem: 802.25 76.291<-40.2727 104.864> 830.25 76<-116.384 -14.504>
VStem: -124.75 249.5<754.486 802.25>
LayerCount: 2
Fore
SplineSet
124.75 918.75 m 1
 124.75 842.75 l 2
 124.548828125 842 96.666015625 802.25 60.75 802.25 c 0
 36.75 802.25 34.75 802.25 10.75 802.25 c 0
 -21.25 802.25 -33.75 830.25 -65.75 830.25 c 0
 -91.25 830.25 -124.75 802.25 -124.75 802.25 c 1
 -124.75 878.25 l 1
 -124.75 878.25 -92.75 906.25 -67.75 906.25 c 0
 -34.75 906.25 -20.75 878.75 12.25 878.75 c 0
 34.25 878.75 34.75 878.75 56.75 878.541015625 c 0
 91.25 878.75 124.75 918.75 124.75 918.75 c 1
EndSplineSet
EndChar

StartChar: uni0306
Encoding: 774 774 131
Width: 0
VWidth: 0
GlyphClass: 4
Flags: HW
HStem: 807.75 52<-90.3917 88.2935>
VStem: -197.25 14.5<965.212 1021.98> 183.75 12.5<969.659 1027.14>
LayerCount: 2
Fore
SplineSet
128.5 931.5 m 1
 128.5 927.5 128.5 922.5 128.5 918.5 c 0
 128.5 846.5 71.5 789.5 0.5 789.5 c 0
 -71.5 789.5 -128.5 846.5 -128.5 918.5 c 0
 -128.5 922.5 -128.5 927.5 -128.5 931.5 c 1
 -51.5 931.5 l 1
 -52.5 927.5 -53.5 922.5 -53.5 918.5 c 0
 -53.5 888.5 -29.5 864.5 0.5 864.5 c 0
 30.5 864.5 53.5 888.5 53.5 918.5 c 0
 53.5 922.5 52.5 927.5 51.5 931.5 c 1
 128.5 931.5 l 1
EndSplineSet
EndChar

StartChar: uni0304
Encoding: 772 772 132
Width: 0
VWidth: 0
GlyphClass: 4
Flags: HW
HStem: 782 76<-136 136>
VStem: -136 272<782 858>
LayerCount: 2
Fore
SplineSet
136 858 m 1
 136 782 l 1
 -136 782 l 1
 -136 858 l 1
 136 858 l 1
EndSplineSet
EndChar

StartChar: dieresis
Encoding: 168 168 133
Width: 452
VWidth: 0
Flags: HW
HStem: -2 142<50 202 250 402>
VStem: 50 152<-2 140> 250 152<-2 140>
LayerCount: 2
Fore
SplineSet
50 -2 m 1
 50 140 l 1
 202 140 l 1
 202 -2 l 1
 50 -2 l 1
250 -2 m 1
 250 140 l 1
 402 140 l 1
 402 -2 l 1
 250 -2 l 1
EndSplineSet
EndChar

StartChar: uni0308
Encoding: 776 776 135
Width: 0
VWidth: 0
GlyphClass: 4
Flags: HW
HStem: 498 142<-176 -24 24 176>
VStem: -176 152<498 640> 24 152<498 640>
LayerCount: 2
Fore
SplineSet
-176 498 m 1
 -176 640 l 1
 -24 640 l 1
 -24 498 l 1
 -176 498 l 1
24 498 m 1
 24 640 l 1
 176 640 l 1
 176 498 l 1
 24 498 l 1
EndSplineSet
EndChar

StartChar: uni0307
Encoding: 775 775 136
Width: 0
VWidth: 0
GlyphClass: 4
Flags: HW
HStem: 498 142<-76 76>
VStem: -76 152<498 640>
LayerCount: 2
Fore
SplineSet
-76 498 m 1
 -76 640 l 1
 76 640 l 1
 76 498 l 1
 -76 498 l 1
EndSplineSet
EndChar

StartChar: hookabovecomb
Encoding: 777 777 137
Width: 0
VWidth: 0
GlyphClass: 4
Flags: HW
HStem: 432 77<-71 -13.343> 614 75<-71 -16.3337>
VStem: -4 75<518.071 602.495>
LayerCount: 2
Fore
SplineSet
-71 432 m 1
 -71 509 l 1
 -67 508 -62 507 -58 507 c 0
 -28 507 -4 530 -4 560 c 0
 -4 590 -28 614 -58 614 c 0
 -62 614 -67 613 -71 612 c 1
 -71 689 l 1
 -67 689 -62 689 -58 689 c 0
 14 689 71 632 71 560 c 0
 71 489 14 432 -58 432 c 0
 -62 432 -67 432 -71 432 c 1
EndSplineSet
EndChar

StartChar: uni030A
Encoding: 778 778 138
Width: 0
VWidth: 0
GlyphClass: 4
Flags: HW
HStem: 432 75<-11.8125 11.8125> 614 75<-11.8125 11.8125>
VStem: -130 76<517.334 603.111> 54 76<517.933 602.698>
LayerCount: 2
Fore
SplineSet
0 614 m 0
 -4 614 -8 613 -12 612 c 1
 -12 613 l 1
 -37 608 -54 586 -54 560 c 0
 -54 534 -37 513 -12 508 c 1
 -12 509 l 1
 -8 508 -4 507 0 507 c 0
 4 507 8 508 12 509 c 1
 12 508 l 1
 37 513 54 534 54 560 c 0
 54 586 37 608 12 613 c 1
 12 612 l 1
 8 613 4 614 0 614 c 0
-1 432 m 0
 -2 432 -2 432 -3 432 c 0
 -5 432 -8 432 -10 432 c 0
 -77 437 -130 492 -130 560 c 0
 -130 628 -77 684 -10 689 c 0
 -8 689 -5 689 -3 689 c 0
 -2 689 -2 689 -1 689 c 0
 0 689 0 689 1 689 c 0
 73 689 130 632 130 560 c 0
 130 489 73 432 1 432 c 0
 0 432 0 432 -1 432 c 0
EndSplineSet
EndChar

StartChar: uni030B
Encoding: 779 779 139
Width: 0
VWidth: 0
GlyphClass: 4
Flags: HW
HStem: 514 289
LayerCount: 2
Fore
SplineSet
-180 516 m 1
 -288 623 l 1
 -106 805 l 1
 2 698 l 1
 -180 516 l 1
106 514 m 1
 -2 621 l 1
 180 803 l 1
 288 696 l 1
 106 514 l 1
EndSplineSet
EndChar

StartChar: uni030C
Encoding: 780 780 140
Width: 0
VWidth: 0
GlyphClass: 4
Flags: HW
HStem: 766 168<-29 -24 24 48>
VStem: -100 200
LayerCount: 2
Fore
SplineSet
-100 934 m 1
 -24 934 l 1
 4 826 l 1
 24 934 l 1
 100 934 l 1
 48 766 l 1
 47 766 l 1
 -28 766 l 1
 -29 766 l 1
 -100 934 l 1
EndSplineSet
EndChar

StartChar: uni030F
Encoding: 783 783 141
Width: 0
VWidth: 0
GlyphClass: 4
Flags: HW
HStem: 514 289
LayerCount: 2
Fore
SplineSet
180 516 m 1
 -2 698 l 1
 106 805 l 1
 288 623 l 1
 180 516 l 1
-106 514 m 1
 -288 696 l 1
 -180 803 l 1
 2 621 l 1
 -106 514 l 1
EndSplineSet
EndChar

StartChar: dotbelowcomb
Encoding: 803 803 142
Width: 0
VWidth: 0
GlyphClass: 4
Flags: HW
HStem: -2 142<-76 76>
VStem: -76 152<-2 140>
LayerCount: 2
Fore
SplineSet
-76 -2 m 1
 -76 140 l 1
 76 140 l 1
 76 -2 l 1
 -76 -2 l 1
EndSplineSet
EndChar

StartChar: uni0328
Encoding: 808 808 143
Width: 0
VWidth: 0
GlyphClass: 4
Flags: HW
HStem: -68 75<16.3337 71> 114 75<16.3337 71>
VStem: -71 75<18.0713 102.495>
LayerCount: 2
Fore
SplineSet
71 -68 m 1
 67 -68 62 -68 58 -68 c 0
 -14 -68 -71 -11 -71 60 c 0
 -71 132 -14 189 58 189 c 0
 62 189 67 189 71 189 c 1
 71 112 l 1
 67 113 62 114 58 114 c 0
 28 114 4 90 4 60 c 0
 4 30 28 7 58 7 c 0
 62 7 67 8 71 9 c 1
 71 -68 l 1
EndSplineSet
EndChar

StartChar: uni0327
Encoding: 807 807 144
Width: 0
VWidth: 0
GlyphClass: 4
Flags: HW
HStem: -68 77<-71 -13.343> 114 75<-71 -16.3337>
VStem: -4 75<18.0713 102.495>
LayerCount: 2
Fore
SplineSet
-71 -68 m 1
 -71 9 l 1
 -67 8 -62 7 -58 7 c 0
 -28 7 -4 30 -4 60 c 0
 -4 90 -28 114 -58 114 c 0
 -62 114 -67 113 -71 112 c 1
 -71 189 l 1
 -67 189 -62 189 -58 189 c 0
 14 189 71 132 71 60 c 0
 71 -11 14 -68 -58 -68 c 0
 -62 -68 -67 -68 -71 -68 c 1
EndSplineSet
EndChar

StartChar: dotlessi
Encoding: 305 305 145
Width: 252
VWidth: 0
Flags: HW
HStem: -2 21G<50 202> 492 20G<50 202>
VStem: 50 152<-2 512>
LayerCount: 2
Fore
SplineSet
50 512 m 1
 202 512 l 1
 202 -2 l 1
 50 -2 l 1
 50 512 l 1
EndSplineSet
EndChar

StartChar: uni0313
Encoding: 787 787 292
Width: 0
VWidth: 400
GlyphClass: 4
Flags: HW
HStem: 266 274<-33.2324 19.1818>
VStem: -76 152<398 540>
LayerCount: 2
Fore
SplineSet
-76 398 m 1
 -76 540 l 1
 76 540 l 1
 76 398 l 1
 16 266 l 1
 -42 270 l 1
 -33.232421875 398 l 1
 -76 398 l 1
EndSplineSet
EndChar

StartChar: uni0312
Encoding: 786 786 293
Width: 0
VWidth: 400
GlyphClass: 4
Flags: HW
HStem: 266 274<-19.1818 33.2324>
VStem: -76 152<266 408>
LayerCount: 2
Fore
SplineSet
76 408 m 1
 76 266 l 1
 -76 266 l 1
 -76 408 l 1
 -16 540 l 1
 42 536 l 1
 33.232421875 408 l 1
 76 408 l 1
EndSplineSet
EndChar

StartChar: uni0326
Encoding: 806 806 297
Width: 0
VWidth: 100
GlyphClass: 4
Flags: HW
HStem: -34 274<-33.2324 19.1818>
VStem: -76 152<98 240>
LayerCount: 2
Fore
SplineSet
-76 98 m 1
 -76 240 l 1
 76 240 l 1
 76 98 l 1
 16 -34 l 1
 -42 -30 l 1
 -33.232421875 98 l 1
 -76 98 l 1
EndSplineSet
EndChar

StartChar: multiply
Encoding: 215 215 308
Width: 724
VWidth: 200
Flags: HW
HStem: 199 20G<68.4269 229 481.563 674> 693 20G<67.4369 236 480.573 673>
LayerCount: 2
Fore
SplineSet
50 713 m 1
 236 711 l 1
 365.491210938 559.926757812 l 1
 498 712 l 1
 673 711 l 1
 452.584960938 458.317382812 l 1
 674 200 l 1
 499 198 l 1
 362.291015625 354.8046875 l 1
 229 202 l 1
 51 199 l 1
 274.5 455.5 l 1
 50 713 l 1
EndSplineSet
EndChar

StartChar: periodcentered
Encoding: 183 183 309
Width: 252
VWidth: 400
Flags: HW
HStem: 398 142<50 202>
VStem: 50 152<398 540>
LayerCount: 2
Fore
SplineSet
50 398 m 1
 50 540 l 1
 202 540 l 1
 202 398 l 1
 50 398 l 1
EndSplineSet
EndChar

StartChar: registered
Encoding: 174 174 310
Width: 864
VWidth: 0
Flags: HW
LayerCount: 2
Fore
SplineSet
666.760742188 378.5546875 m 0
 666.760742188 510.799804688 562.1953125 618.44140625 432 618.44140625 c 0
 301.8046875 618.44140625 197.239257812 510.799804688 197.239257812 378.5546875 c 0
 197.239257812 245.284179688 301.8046875 137.642578125 432 137.642578125 c 0
 562.1953125 137.642578125 666.760742188 245.284179688 666.760742188 378.5546875 c 0
710.477539062 379.865234375 m 0
 710.477539062 220.942382812 585.819335938 92.638671875 432 92.638671875 c 0
 278.180664062 92.638671875 153.522460938 220.942382812 153.522460938 379.865234375 c 0
 153.522460938 538.057617188 278.180664062 666.361328125 432 666.361328125 c 0
 585.819335938 666.361328125 710.477539062 538.057617188 710.477539062 379.865234375 c 0
395.185546875 245.545898438 m 1
 339.78125 245.545898438 l 1
 339.78125 528.3984375 l 1
 395.185546875 528.3984375 l 2
 398.1015625 528.762695312 401.017578125 528.762695312 403.932617188 528.762695312 c 0
 456.057617188 528.762695312 497.974609375 486.845703125 497.974609375 435.0859375 c 0
 497.974609375 394.137695312 472.103515625 359.48828125 435.73828125 346.512695312 c 1
 508.1796875 243.359375 l 1
 457.150390625 243.359375 l 1
 396.977539062 341.228515625 l 2
 396.37890625 341.275390625 395.783203125 341.334960938 395.185546875 341.409179688 c 1
 395.185546875 245.545898438 l 1
395.185546875 472.629882812 m 2
 395.185546875 397.178710938 l 2
 398.1015625 396.44921875 401.017578125 396.083984375 403.932617188 396.083984375 c 0
 425.802734375 396.083984375 442.935546875 413.216796875 442.935546875 435.0859375 c 0
 442.935546875 456.591796875 425.802734375 473.72265625 403.932617188 473.72265625 c 0
 401.017578125 473.72265625 398.1015625 473.358398438 395.185546875 472.629882812 c 2
EndSplineSet
EndChar

StartChar: copyright
Encoding: 169 169 311
Width: 864
VWidth: 0
Flags: HW
LayerCount: 2
Fore
SplineSet
725.451171875 378.318359375 m 0
 725.451171875 543.625 594.744140625 678.176757812 432 678.176757812 c 0
 269.255859375 678.176757812 138.548828125 543.625 138.548828125 378.318359375 c 0
 138.548828125 211.73046875 269.255859375 77.177734375 432 77.177734375 c 0
 594.744140625 77.177734375 725.451171875 211.73046875 725.451171875 378.318359375 c 0
780.096679688 379.95703125 m 0
 780.096679688 181.302734375 624.274414062 20.923828125 432 20.923828125 c 0
 239.725585938 20.923828125 83.9033203125 181.302734375 83.9033203125 379.95703125 c 0
 83.9033203125 577.697265625 239.725585938 738.076171875 432 738.076171875 c 0
 624.274414062 738.076171875 780.096679688 577.697265625 780.096679688 379.95703125 c 0
493.25 195.623046875 m 1
 487.904296875 195.086914062 482.483398438 194.8125 477 194.8125 c 0
 387.625 194.8125 315.75 266.6875 315.75 355.4375 c 0
 315.75 444.8125 387.625 516.6875 477 516.6875 c 0
 482.483398438 516.6875 487.904296875 516.413085938 493.25 515.876953125 c 1
 493.25 420.353515625 l 1
 488.045898438 421.634765625 482.6015625 422.3125 477 422.3125 c 0
 439.5 422.3125 410.125 392.9375 410.125 355.4375 c 0
 410.125 318.5625 439.5 289.1875 477 289.1875 c 0
 482.6015625 289.1875 488.045898438 289.865234375 493.25 291.145507812 c 1
 493.25 195.623046875 l 1
EndSplineSet
EndChar

StartChar: brokenbar
Encoding: 166 166 312
Width: 252
VWidth: 0
Flags: HW
HStem: -2 21G<50 202> 492 20G<50 202> 630 142<50 202>
VStem: 50 152<-2 512 630 772>
LayerCount: 2
Fore
SplineSet
202 833 m 1
 202 459 l 1
 50 459 l 1
 50 833 l 1
 202 833 l 1
202 370 m 1
 202 -30 l 1
 50 -30 l 1
 50 370 l 1
 202 370 l 1
EndSplineSet
EndChar

StartChar: section
Encoding: 167 167 313
Width: 512
VWidth: 0
Flags: HW
LayerCount: 2
Fore
SplineSet
-25 108 m 1
 50 233 l 1
 56 228 62 223 72 218 c 0
 123 188 187 205 217 253 c 0
 249 309 199 357 147 366 c 1
 21 434 -63 549 21 690 c 0
 47.2392773485 733.482231035 85.7029366954 766.14518145 130.123274426 786.461427676 c 1
 66.1707292682 852.720557001 41.6457316701 939.369621018 101 1039 c 0
 171 1155 328 1194 453 1127 c 0
 459 1121 467 1118 474 1112 c 1
 399 987 l 1
 393 992 387 997 377 1002 c 0
 326 1030 262 1014 232 965 c 0
 199 910 232 829 296 818 c 1
 310.347450548 810.274449705 324.424224782 802.218072803 337.924214944 793.770017219 c 0
 349.823784092 789.388455971 361.546229302 784.139220227 373 778 c 0
 379 772 387 769 394 763 c 1
 389.928795786 756.214659643 l 1
 455.18424227 700.543461567 487.126592513 629.032034728 427 530 c 0
 395.942214334 477.336798219 347.055490958 440.476518499 291.283057658 422.063774224 c 1
 368.590213945 364.361607173 412.611602703 289.066169158 347 181 c 0
 278 64 121 25 -4 93 c 0
 -10 99 -18 102 -25 108 c 1
139.249300589 574.679681055 m 0
 142.808914169 572.11978737 146.88021263 569.559893685 152 567 c 0
 203 537 267 554 297 602 c 0
 306.247495978 618.183117961 308.647016455 633.698140752 306.129251246 647.796926069 c 0
 303.456152293 649.531284046 300.468715954 651.265642023 297 653 c 0
 246 681 182 665 152 616 c 0
 144.33674665 603.227911083 140.232611597 589.05374526 139.249300589 574.679681055 c 0
EndSplineSet
EndChar

StartChar: paragraph
Encoding: 182 182 314
Width: 776
VWidth: 0
Flags: HW
HStem: 265 151<243.471 332> 629 150<243.591 331.625>
VStem: 332 152<3 266 416.026 628.974> 50 151<458.471 586.934>
LayerCount: 2
Fore
SplineSet
332 3 m 1
 332 266 l 1
 324 265 316 265 308 265 c 0
 165 265 50 380 50 523 c 0
 50 665 165 780 308 780 c 0
 316 780 324 780 332 779 c 2
 484 779 l 1
 484 3 l 1
 332 3 l 1
550 774 m 1
 702 774 l 1
 702 -2 l 1
 550 -2 l 1
 550 774 l 1
EndSplineSet
EndChar

StartChar: Thorn
Encoding: 222 222 315
Width: 512
VWidth: 0
Flags: HW
HStem: -202 21G<50 202> -5 151<202 290.529> 359 150<202.375 290.409>
VStem: 50 152<-202 -4 146.026 358.974> 333 151<188.471 316.934>
LayerCount: 2
Fore
SplineSet
202 561 m 1
 202 354 l 1
 210 352 218 351 226 351 c 0
 286 351 333 398 333 458 c 0
 333 517 286 564 226 564 c 0
 218 564 210 563 202 561 c 1
202 3 m 1
 50 3 l 1
 50 903 l 1
 197 903 l 1
 202 714 l 1
 210 715 218 715 226 715 c 0
 369 715 484 600 484 458 c 0
 484 315 369 200 226 200 c 0
 218 200 210 200 202 201 c 1
 202 3 l 1
EndSplineSet
EndChar

StartChar: germandbls
Encoding: 223 223 316
Width: 771
VWidth: 0
Flags: HW
LayerCount: 2
Fore
SplineSet
238.615234375 47 m 1
 305.615234375 159 l 1
 311.615234375 153 318.615234375 150 327.615234375 147 c 0
 380.615234375 123 424.615234375 131 450.615234375 162 c 0
 479.615234375 196 428.615234375 202 374.615234375 211 c 1
 246.615234375 262 175.615234375 345 250.615234375 434 c 0
 311.996388419 508.047106466 356.811523438 598.086914062 481.775390625 549.022460938 c 0
 482.515625 549.0078125 483.256835938 549 484 549 c 0
 544 549 591 596 591 656 c 0
 591 720.255828523 215.542104214 732.190707732 173 683 c 1
 173 2 l 1
 6 2 l 1
 9 684 l 1
 25 739.333007812 55.3330078125 784.333007812 100 819 c 0
 239.345309054 927.148825425 742 856.984739035 742 656 c 0
 742 283.000662842 540.864314142 537.412364338 425.615234375 400 c 0
 395.615234375 365 392.615234375 286 456.615234375 275 c 1
 575.615234375 225 678.615234375 164 602.615234375 75 c 0
 540.615234375 -1 387.615234375 -21 260.615234375 34 c 0
 253.615234375 36 246.615234375 41 238.615234375 47 c 1
EndSplineSet
EndChar

StartChar: thorn
Encoding: 254 254 317
Width: 512
VWidth: 0
Flags: HW
HStem: -202 21G<50 202> -5 151<202 290.529> 359 150<202.375 290.409>
VStem: 50 152<-202 -4 146.026 358.974> 333 151<188.471 316.934>
LayerCount: 2
Fore
SplineSet
202 359 m 1
 202 152 l 1
 210 150 218 149 226 149 c 0
 286 149 333 196 333 256 c 0
 333 315 286 362 226 362 c 0
 218 362 210 361 202 359 c 1
202 -199 m 1
 50 -199 l 1
 50 701 l 1
 197 701 l 1
 202 512 l 1
 210 513 218 513 226 513 c 0
 369 513 484 398 484 256 c 0
 484 113 369 -2 226 -2 c 0
 218 -2 210 -2 202 -1 c 1
 202 -199 l 1
EndSplineSet
EndChar

StartChar: AE
Encoding: 198 198 318
Width: 1024
VWidth: 0
Flags: HW
HStem: -3 152<558 973> 333 152<558 865> 626 152<558 973>
VStem: 406 568<-3 149 626 778> 406 152<149 333 485 626>
LayerCount: 2
Fore
SplineSet
865 485 m 1
 866 333 l 1
 558 333 l 1
 558 149 l 1
 973 149 l 1
 974 -3 l 1
 407 -3 l 1
 406.993164062 -2 l 1
 406 -2 l 1
 406 227 l 1
 261.038085938 227 l 1
 202 0 l 1
 50 0 l 1
 250 778 l 1
 973 778 l 1
 974 626 l 1
 558 626 l 1
 558 485 l 1
 865 485 l 1
406.827148438 367 m 1
 341.200195312 535.223632812 l 1
 297.448242188 367 l 1
 406.827148438 367 l 1
EndSplineSet
EndChar

StartChar: Eth
Encoding: 208 208 319
Width: 690
VWidth: 0
Flags: HW
HStem: -13.9789 157.014<262 347.489> 611.965 161.035<262 353.477>
VStem: 110 152<-14 -13.9789 143.035 611.965> 487 153<282.064 475.736>
LayerCount: 2
Fore
SplineSet
110 768 m 1
 159.62109375 760.911132812 208.3828125 773 258 773 c 0
 469 773 640 597 640 380 c 0
 640 163.37890625 471.157226562 -11.771484375 262 -13.978515625 c 2
 110 -14 l 1
 110 344 l 1
 50 344 l 1
 50 496 l 1
 110 496 l 1
 110 768 l 1
262 143.03515625 m 1
 387.134765625 145.211914062 487 249.368164062 487 378 c 0
 487 505.642578125 387.134765625 609.788085938 262 611.96484375 c 1
 262 496 l 1
 321 496 l 1
 321 344 l 1
 262 344 l 1
 262 143.03515625 l 1
EndSplineSet
EndChar

StartChar: Oslash
Encoding: 216 216 320
Width: 864
VWidth: 0
Flags: HW
HStem: -14 157<337.027 526.973> 612 161<337.027 526.973>
VStem: 50 153<278.712 478.774> 661 153<278.712 478.774>
LayerCount: 2
Fore
SplineSet
598.806473053 538.438015185 m 1
 374.731302318 150.349059685 l 1
 393.019217602 145.550649247 412.205960081 143 432 143 c 0
 559 143 661 248 661 378 c 0
 661 440.030781663 637.415033765 496.512159507 598.806473053 538.438015185 c 1
494.917552918 603.094318457 m 1
 474.945697396 608.894077778 453.842601343 612 432 612 c 0
 305 612 203 507 203 378 c 0
 203 313.299989375 228.265166878 254.792421611 269.303151047 212.339478101 c 1
 494.917552918 603.094318457 l 1
814 380 m 0
 814 162 643 -14 432 -14 c 0
 383.677326913 -14 337.452612753 -4.76898072303 294.899393872 12.0834862942 c 1
 240 -83 l 1
 134 -22 l 1
 190.00199535 74.9931465863 l 1
 104.530904967 147.181232094 50 256.893838244 50 380 c 0
 50 597 221 773 432 773 c 0
 483.051899881 773 531.762166392 762.696813173 576.275305098 744.002590273 c 1
 619 818 l 1
 725 757 l 1
 679.946246068 678.968756077 l 1
 761.990985758 606.878654225 814 499.674325896 814 380 c 0
EndSplineSet
EndChar

StartChar: ae
Encoding: 230 230 321
Width: 905
VWidth: 0
Flags: HW
HStem: 3 151<531.073 844.239> 205.32 128.941<518.301 675.264> 367 151<530.682 660.767>
VStem: 338 517<208.188 330.811>
LayerCount: 2
Fore
SplineSet
854 260 m 0
 854 241.328125 855 223 855 208 c 1
 507.985351562 205.3203125 l 1
 526.489257812 174.45703125 556.416015625 154 596 154 c 0
 610.516601562 154 832 157 845 162 c 1
 845 6 l 1
 832 4 609.946289062 3 596 3 c 0
 563.931640625 3 533.271484375 8.783203125 505 19.357421875 c 1
 332 1 l 1
 332 9 l 1
 324 8 316 8 308 8 c 0
 165 8 50 123 50 266 c 0
 50 408 165 515 308 515 c 0
 316 515 324 515 332 514 c 2
 505 514 l 1
 596 518 l 1
 738 518 854 403 854 260 c 0
332 369 m 1
 324 371 316 372 308 372 c 0
 248 372 201 325 201 266 c 0
 201 206 248 159 308 159 c 0
 316 159 324 160 332 162 c 1
 332 369 l 1
502.680664062 296.67578125 m 1
 694.883789062 294.1015625 l 1
 670.395507812 320.966796875 635.046875 375.099609375 595.8046875 375.099609375 c 0
 557.188476562 375.099609375 526.879882812 322.025390625 502.680664062 296.67578125 c 1
EndSplineSet
EndChar

StartChar: eth
Encoding: 240 240 322
Width: 612
VWidth: 0
Flags: HW
HStem: 3 151<242.454 332> 367 151<243.471 332>
VStem: 50 151<196.066 324.529> 332 152<4 4.10351 154.011 366.989 516.896 780>
LayerCount: 2
Fore
SplineSet
135 780 m 1
 287 780 l 1
 291.97764262 775.721755337 296.989716489 771.398168562 302.025825151 767.025825151 c 1
 340 805 l 1
 427 729 l 1
 386.727324567 688.727324567 l 1
 530.247928085 544.008430973 645.581709145 342.996110635 484 4 c 1
 332 4 l 1
 332 4.10350751877 l 1
 324.095489502 3.37326002121 316.089935303 3 308 3 c 0
 165 3 50 118 50 260 c 0
 50 403 165 518 308 518 c 0
 316.089935303 518 324.095489502 517.626708984 332 516.89630127 c 1
 281.86037123 583.86037123 l 1
 245 547 l 1
 158 623 l 1
 212.06958257 677.06958257 l 1
 135 780 l 1
309.954681396 366.982788086 m 0
 301.641906738 366.84274292 293.393859863 365.848449707 286 364 c 1
 286 364.828063965 l 1
 236.898666382 354.945495605 201 312.437438965 201 260 c 0
 201 208.436508179 236.898666382 166.038650513 286 156.169952393 c 1
 286 157 l 1
 293.393859863 155.151535034 301.641937256 154.157287598 309.954711914 154.017227173 c 0
 318.230712891 154.163162231 326.28024292 155.23399353 334 157.131896973 c 1
 334 156.169952393 l 1
 383.101318359 166.038650513 419 208.436508179 419 260 c 0
 419 312.437438965 383.101318359 354.945495605 334 364.828063965 c 1
 334 363.864593506 l 1
 326.28024292 365.76574707 318.230682373 366.83682251 309.954681396 366.982788086 c 0
EndSplineSet
EndChar

StartChar: divide
Encoding: 247 247 323
Width: 644
VWidth: 0
Flags: HW
HStem: -2 142<50 202> 398 142<50 202>
VStem: 50 152<-2 140 398 540>
LayerCount: 2
Fore
SplineSet
250 151 m 1
 250 293 l 1
 402 293 l 1
 402 151 l 1
 250 151 l 1
250 551 m 1
 250 693 l 1
 402 693 l 1
 402 551 l 1
 250 551 l 1
594 496 m 1
 594 344 l 1
 50 344 l 1
 50 496 l 1
 594 496 l 1
EndSplineSet
EndChar

StartChar: oslash
Encoding: 248 248 324
Width: 616
VWidth: 0
Flags: HW
HStem: 3 21G<307.408 308.151 311.478 383.5> 498 20G<307.408 308.151 311.478 383.5>
VStem: 50 151<197.14 323.449> 419 151<195.844 324.753>
LayerCount: 2
Fore
SplineSet
323.872278164 155.150957822 m 1
 327.303628876 155.653330953 330.682269533 156.316232437 334 157.131896973 c 1
 334 156.169952393 l 1
 383.101318359 166.038650513 419 208.436508179 419 260 c 0
 419 275.224543412 415.973894199 289.612082231 410.477150021 302.607147536 c 1
 323.872278164 155.150957822 l 1
306.393656043 366.87025121 m 1
 299.299696772 366.540807315 292.336203131 365.584037707 286 364 c 1
 286 364.828063965 l 1
 236.898666382 354.945495605 201 312.437438965 201 260 c 0
 201 241.526391164 205.607837586 224.229253707 213.779808204 209.182989231 c 1
 306.393656043 366.87025121 l 1
50 260 m 0
 50 400.960208359 161.197316369 518 308 518 c 0
 308.302062988 518 308.604003906 517.999450684 308.905517578 517.998413086 c 0
 309.925628662 518 310.956085205 518 312 518 c 0
 338.643724238 518 364.315427098 514.007769341 388.452383943 506.586032661 c 1
 458 625 l 1
 564 564 l 1
 493.417705665 443.82435675 l 1
 540.753204707 397.109257716 570 332.115108285 570 260 c 0
 570 118 455 3 312 3 c 0
 310.956176758 3 309.925842285 3.00155997276 308.905792236 3.00155997276 c 0
 308.603973389 3.00155997276 308.302032471 3 308 3 c 0
 282.426642008 3 261.399706555 6.16967414411 239.807894379 12.0202833249 c 1
 184 -83 l 1
 78 -22 l 1
 132.735181214 71.1938480148 l 1
 81.7941079846 118.136184617 50 185.335740374 50 260 c 0
EndSplineSet
EndChar

StartChar: dcaron
Encoding: 271 271 326
Width: 710
VWidth: 0
Flags: HW
HStem: 3 151<242.454 332> 367 151<243.471 332>
VStem: 50 151<196.066 324.529> 332 152<4 4.10351 154.011 366.989 516.896 780>
LayerCount: 2
Fore
SplineSet
332 156.660415649 m 1
 332 364.336853027 l 1
 324.282409668 366.081298828 316.248718262 367 308 367 c 0
 248 367 201 320 201 260 c 0
 201 201 248 154 308 154 c 0
 316.248718262 154 324.282409668 154.918685913 332 156.660415649 c 1
332 780 m 1
 484 780 l 1
 484 4 l 1
 332 4 l 1
 332 4.10350751877 l 1
 324.095489502 3.37326002121 316.089935303 3 308 3 c 0
 165 3 50 118 50 260 c 0
 50 403 165 518 308 518 c 0
 316.089935303 518 324.095489502 517.626708984 332 516.89630127 c 1
 332 780 l 1
516 532 m 1
 516 789 l 1
 668 789 l 1
 623 532 l 1
 516 532 l 1
EndSplineSet
EndChar

StartChar: dcroat
Encoding: 273 273 327
Width: 585
VWidth: 0
Flags: HW
HStem: 3 151<242.454 332> 367 151<243.471 332>
VStem: 50 151<196.066 324.529> 332 152<4 4.10351 154.011 366.989 516.896 780>
LayerCount: 2
Fore
SplineSet
332 156.660415649 m 1
 332 364.336853027 l 1
 324.282409668 366.081298828 316.248718262 367 308 367 c 0
 248 367 201 320 201 260 c 0
 201 201 248 154 308 154 c 0
 316.248718262 154 324.282409668 154.918685913 332 156.660415649 c 1
332 780 m 1
 484 780 l 1
 484 739 l 1
 535 739 l 1
 535 587 l 1
 484 587 l 1
 484 4 l 1
 332 4 l 1
 332 4.10350751877 l 1
 324.095489502 3.37326002121 316.089935303 3 308 3 c 0
 165 3 50 118 50 260 c 0
 50 403 165 518 308 518 c 0
 316.089935303 518 324.095489502 517.626708984 332 516.89630127 c 1
 332 587 l 1
 264 587 l 1
 264 739 l 1
 332 739 l 1
 332 780 l 1
EndSplineSet
EndChar

StartChar: Hbar
Encoding: 294 294 328
Width: 652
VWidth: 0
Flags: HW
HStem: -2 21G<50 202 450 602> 333 152<202 450> 754 20G<50 202 450 602>
VStem: 50 152<-2 333 485 774> 450 152<-2 333 485 774>
LayerCount: 2
Fore
SplineSet
202 561 m 1
 202 485 l 1
 450 485 l 1
 450 561 l 1
 202 561 l 1
450 774 m 1
 602 774 l 1
 602 713 l 1
 647 713 l 1
 647 561 l 1
 602 561 l 1
 602 -2 l 1
 450 -2 l 1
 450 333 l 1
 202 333 l 1
 202 -2 l 1
 50 -2 l 1
 50 561 l 1
 0 561 l 1
 0 713 l 1
 50 713 l 1
 50 774 l 1
 202 774 l 1
 202 713 l 1
 450 713 l 1
 450 774 l 1
EndSplineSet
EndChar

StartChar: hbar
Encoding: 295 295 329
Width: 658
VWidth: 0
Flags: HW
HStem: 644 152<61 605>
LayerCount: 2
Fore
SplineSet
338 731 m 1
 338 579 l 1
 280 579 l 1
 280 512 l 1
 306 520 332 524 360 524 c 0
 478 524 574 446 605 337 c 1
 608 6 l 1
 441 6 l 1
 441 336 l 1
 421 359 393 373 360 373 c 0
 328 373 300 360 280 338 c 1
 280 6 l 1
 111 6 l 1
 111 579 l 1
 50 579 l 1
 50 731 l 1
 111 731 l 1
 111 768 l 1
 280 768 l 1
 280 731 l 1
 338 731 l 1
EndSplineSet
EndChar

StartChar: lcaron
Encoding: 318 318 332
Width: 419
VWidth: 0
Flags: HW
HStem: -3 151<233.008 363.885> 741 20G<50 217>
VStem: 53 164<166.215 761>
LayerCount: 2
Fore
SplineSet
369 6 m 1
 346.333333333 0 322.666666667 -3 298 -3 c 0
 240 -3 188.666666667 14.3333333333 144 49 c 0
 99.3333333333 83.6666666667 69 128.666666667 53 184 c 1
 50 761 l 1
 217 761 l 1
 217 185 l 1
 238.333333333 160.333333333 265.333333333 148 298 148 c 0
 324.666666667 148 348.333333333 156.666666667 369 174 c 1
 369 6 l 1
260 504 m 1
 260 761 l 1
 412 761 l 1
 367 504 l 1
 260 504 l 1
EndSplineSet
EndChar

StartChar: Lslash
Encoding: 321 321 333
Width: 718
VWidth: 0
Flags: HW
HStem: -3 152<202 667> 754 20G<50 202>
VStem: 50 152<149 774>
LayerCount: 2
Fore
SplineSet
50 774 m 1
 202 774 l 1
 202 149 l 1
 667 149 l 1
 668 -3 l 1
 51 -3 l 1
 50.9934196472 -2 l 1
 50 -2 l 1
 50 774 l 1
EndSplineSet
EndChar

StartChar: Lcaron
Encoding: 317 317 334
Width: 718
VWidth: 0
Flags: HW
HStem: -3 152<202 667> 754 20G<50 202>
VStem: 50 152<149 774>
LayerCount: 2
Fore
SplineSet
50 774 m 1
 202 774 l 1
 202 149 l 1
 667 149 l 1
 668 -3 l 1
 51 -3 l 1
 50.9934196472 -2 l 1
 50 -2 l 1
 50 774 l 1
252 520 m 1
 252 777 l 1
 404 777 l 1
 359 520 l 1
 252 520 l 1
EndSplineSet
EndChar

StartChar: lslash
Encoding: 322 322 335
Width: 419
VWidth: 0
Flags: HW
HStem: -3 151<233.008 363.885> 741 20G<50 217>
VStem: 53 164<166.215 761>
LayerCount: 2
Fore
SplineSet
369 6 m 1
 346.333333333 0 322.666666667 -3 298 -3 c 0
 240 -3 188.666666667 14.3333333333 144 49 c 0
 99.3333333333 83.6666666667 69 128.666666667 53 184 c 1
 50 761 l 1
 217 761 l 1
 217 185 l 1
 238.333333333 160.333333333 265.333333333 148 298 148 c 0
 324.666666667 148 348.333333333 156.666666667 369 174 c 1
 369 6 l 1
EndSplineSet
EndChar

StartChar: OE
Encoding: 338 338 336
Width: 1068
VWidth: 0
Flags: HW
HStem: -3 152<602 1017> 333 152<602 909> 626 152<602 1017>
VStem: 450 568<-3 149 626 778> 450 152<149 333 485 626>
LayerCount: 2
Fore
SplineSet
432 612 m 0
 305 612 203 507 203 378 c 0
 203 248 305 143 432 143 c 0
 438.059570312 143 444.0625 143.239257812 450 143.708007812 c 1
 450 611.291992188 l 1
 444.0625 611.760742188 438.059570312 612 432 612 c 0
909 485 m 1
 910 333 l 1
 602 333 l 1
 602 149 l 1
 1017 149 l 1
 1018 -3 l 1
 505 -3 l 1
 505 -6.830078125 l 1
 481.37109375 -11.5361328125 456.965820312 -14 432 -14 c 0
 221 -14 50 162 50 380 c 0
 50 597 221 773 432 773 c 0
 438.034179688 773 444.03515625 772.856445312 450 772.571289062 c 1
 450 774 l 1
 450 778 l 1
 1017 778 l 1
 1018 626 l 1
 602 626 l 1
 602 485 l 1
 909 485 l 1
EndSplineSet
EndChar

StartChar: oe
Encoding: 339 339 337
Width: 1000
VWidth: 0
Flags: HW
LayerCount: 2
Fore
SplineSet
308.905792236 3.00155997276 m 0
 308.603973389 3.00155997276 308.302032471 3 308 3 c 0
 306.815063477 3 305.632049561 3.00789618492 304.45123291 3.02363610268 c 0
 299.66192627 3.0695514679 295.0050354 3.20466184616 290.134063721 3.60223269463 c 0
 155.541519165 12.7090320587 50 123.964859009 50 260 c 0
 50 396.991333008 155.538726807 508.286254883 290.128723145 517.397338867 c 0
 295.001708984 517.795227051 299.66027832 517.930419922 304.451171875 517.976379395 c 0
 305.632171631 517.992126465 306.815124512 518 308 518 c 0
 308.302062988 518 308.604003906 517.999450684 308.905517578 517.998413086 c 0
 309.925628662 518 310.956085205 518 312 518 c 0
 386.818310007 518 453.971803821 486.519504918 501 436.018996196 c 1
 548.028196179 486.519504918 615.181689993 518 690 518 c 0
 832 518 948 403 948 260 c 0
 948 241.328125 949 223 949 208 c 1
 597.985351562 205.3203125 l 1
 616.489257812 174.45703125 650.416015625 154 690 154 c 0
 704.516601562 154 926 157 939 162 c 1
 939 6 l 1
 926 4 703.946289062 3 690 3 c 0
 615.181689993 3 548.028196179 34.4804950815 501 84.837779879 c 1
 453.971803821 34.4804950815 386.818310007 3 312 3 c 0
 310.956176758 3 309.925842285 3.00155997276 308.905792236 3.00155997276 c 0
592.680664062 296.67578125 m 1
 788.883789062 294.1015625 l 1
 764.395507812 320.966796875 729.046875 375.099609375 689.8046875 375.099609375 c 0
 651.188476562 375.099609375 616.879882812 322.025390625 592.680664062 296.67578125 c 1
309.954681396 366.982788086 m 0
 301.641906738 366.84274292 293.393859863 365.848449707 286 364 c 1
 286 364.828063965 l 1
 236.898666382 354.945495605 201 312.437438965 201 260 c 0
 201 208.436508179 236.898666382 166.038650513 286 156.169952393 c 1
 286 157 l 1
 293.393859863 155.151535034 301.641937256 154.157287598 309.954711914 154.017227173 c 0
 318.230712891 154.163162231 326.28024292 155.23399353 334 157.131896973 c 1
 334 156.169952393 l 1
 383.101318359 166.038650513 419 208.436508179 419 260 c 0
 419 312.437438965 383.101318359 354.945495605 334 364.828063965 c 1
 334 363.864593506 l 1
 326.28024292 365.76574707 318.230682373 366.83682251 309.954681396 366.982788086 c 0
EndSplineSet
EndChar

StartChar: tcaron
Encoding: 357 357 338
Width: 630
VWidth: 0
Flags: HW
HStem: -3 151<328.285 459.024> 364 152<50 146.274 312 409> 741 20G<145 312>
VStem: 146.274 165.726<168.881 364 516 761>
LayerCount: 2
Fore
SplineSet
464 6 m 1
 441 0 418 -3 393 -3 c 0
 275 -3 179 75 148 184 c 1
 147.064117432 364 l 1
 50 364 l 1
 50 516 l 1
 146.273834229 516 l 1
 145 761 l 1
 312 761 l 1
 312 516 l 1
 409 516 l 1
 409 364 l 1
 312 364 l 1
 312 185 l 1
 332 162 360 148 393 148 c 0
 420 148 445 158 464 174 c 1
 464 6 l 1
441 504 m 1
 441 761 l 1
 593 761 l 1
 548 504 l 1
 441 504 l 1
EndSplineSet
EndChar

StartChar: uni0237
Encoding: 567 567 343
Width: 419
VWidth: 0
Flags: HW
HStem: -204 151<55.4451 185.159> 497 20G<202 369> 630 142<214 366>
VStem: 202 164<-32.1189 517> 214 152<630 772>
LayerCount: 2
Fore
SplineSet
50 -195 m 1
 50 -27 l 1
 69 -43 94 -53 121 -53 c 0
 154 -53 182 -39 202 -16 c 1
 202 517 l 1
 369 517 l 1
 366 -17 l 1
 335 -126 239 -204 121 -204 c 0
 96 -204 73 -201 50 -195 c 1
EndSplineSet
EndChar

StartChar: uni1E9E
Encoding: 7838 7838 359
Width: 771
VWidth: 0
Flags: HW
LayerCount: 2
Fore
SplineSet
238.615234375 47 m 1
 305.615234375 159 l 1
 311.615234375 153 318.615234375 150 327.615234375 147 c 0
 380.615234375 123 424.615234375 131 450.615234375 162 c 0
 479.615234375 196 428.615234375 202 374.615234375 211 c 1
 246.615234375 262 175.615234375 440 250.615234375 529 c 0
 311.99609375 603.046875 356.811523438 693.086914062 481.775390625 644.022460938 c 0
 482.515625 644.0078125 483.256835938 644 484 644 c 0
 544 644 591 596 591 656 c 0
 591 720.255828523 215.542104214 732.190707732 173 683 c 1
 173 2 l 1
 6 2 l 1
 9 684 l 1
 25 739.333007812 55.3330078125 784.333007812 100 819 c 0
 239.345309054 927.148825425 742 856.984739035 742 656 c 0
 742 283.000662842 540.864257812 632.412109375 425.615234375 495 c 0
 395.615234375 460 392.615234375 381 456.615234375 370 c 1
 575.615234375 320 678.615234375 164 602.615234375 75 c 0
 540.615234375 -1 387.615234375 -21 260.615234375 34 c 0
 253.615234375 36 246.615234375 41 238.615234375 47 c 1
EndSplineSet
EndChar

StartChar: uni0982
Encoding: 2434 2434 365
Width: 445
VWidth: 0
Flags: HW
HStem: 82 75<498.188 521.812> 264 75<498.188 521.812> 483 75<193.188 216.812> 665 75<193.188 216.812>
VStem: 75 76<568.334 654.111> 259 76<568.933 653.698> 380 76<167.334 253.111> 564 76<167.933 252.698>
LayerCount: 2
Fore
SplineSet
158 427 m 5
 391 69 l 5
 285 8 l 5
 52 366 l 5
 158 427 l 5
205 665 m 0
 201 665 197 664 193 663 c 1
 193 664 l 1
 168 659 151 637 151 611 c 0
 151 585 168 564 193 559 c 1
 193 560 l 1
 197 559 201 558 205 558 c 0
 209 558 213 559 217 560 c 1
 217 559 l 1
 242 564 259 585 259 611 c 0
 259 637 242 659 217 664 c 1
 217 663 l 1
 213 664 209 665 205 665 c 0
204 483 m 0
 203 483 203 483 202 483 c 0
 200 483 197 483 195 483 c 0
 128 488 75 543 75 611 c 0
 75 679 128 735 195 740 c 0
 197 740 200 740 202 740 c 0
 203 740 203 740 204 740 c 0
 205 740 205 740 206 740 c 0
 278 740 335 683 335 611 c 0
 335 540 278 483 206 483 c 0
 205 483 205 483 204 483 c 0
EndSplineSet
EndChar

StartChar: uni0983
Encoding: 2435 2435 366
Width: 445
VWidth: 0
Flags: HW
LayerCount: 2
Fore
SplineSet
205 665 m 4
 201 665 197 664 193 663 c 5
 193 664 l 5
 168 659 151 637 151 611 c 4
 151 585 168 564 193 559 c 5
 193 560 l 5
 197 559 201 558 205 558 c 4
 209 558 213 559 217 560 c 5
 217 559 l 5
 242 564 259 585 259 611 c 4
 259 637 242 659 217 664 c 5
 217 663 l 5
 213 664 209 665 205 665 c 4
204 483 m 4
 203 483 203 483 202 483 c 4
 200 483 197 483 195 483 c 4
 128 488 75 543 75 611 c 4
 75 679 128 735 195 740 c 4
 197 740 200 740 202 740 c 4
 203 740 203 740 204 740 c 4
 205 740 205 740 206 740 c 4
 278 740 335 683 335 611 c 4
 335 540 278 483 206 483 c 4
 205 483 205 483 204 483 c 4
205 265 m 0
 201 265 197 264 193 263 c 1
 193 264 l 1
 168 259 151 237 151 211 c 0
 151 185 168 164 193 159 c 1
 193 160 l 1
 197 159 201 158 205 158 c 0
 209 158 213 159 217 160 c 1
 217 159 l 1
 242 164 259 185 259 211 c 0
 259 237 242 259 217 264 c 1
 217 263 l 1
 213 264 209 265 205 265 c 0
204 83 m 0
 203 83 203 83 202 83 c 0
 200 83 197 83 195 83 c 0
 128 88 75 143 75 211 c 0
 75 279 128 335 195 340 c 4
 197 340 200 340 202 340 c 4
 203 340 203 340 204 340 c 4
 205 340 205 340 206 340 c 4
 278 340 335 283 335 211 c 0
 335 140 278 83 206 83 c 0
 205 83 205 83 204 83 c 0
EndSplineSet
EndChar

StartChar: uni098A
Encoding: 2442 2442 367
Width: 612
VWidth: 0
Flags: HW
HStem: 3.00195 151.016<238.473 368.671> 366 151.998<304 436> 671 132<-5 436 543.755 611>
LayerCount: 2
Fore
SplineSet
611 803 m 1
 611 671 l 1
 436 671 l 1
 436 483.791928804 l 1
 514.610898659 439.659933408 567.310629944 356.931448937 565 260 c 0
 561.541015625 114.885742188 447.287109375 2.7998046875 303.90625 3.001953125 c 0
 134.0390625 3.240234375 50.1650390625 131.7890625 51.0009765625 261 c 1
 196.00390625 261 l 1
 196.000976562 260.666992188 196 260.333984375 196 260 c 0
 196 199.8828125 241.772460938 155.08203125 304.955078125 154.017578125 c 0
 367.911132812 155.126953125 414 199.63671875 414 260 c 0
 414 316.657272303 374.735147705 359.047133286 318.932544409 366 c 1
 304 366 l 1
 304 517.621889665 l 2
 303.968705502 517.870180824 303.937126301 517.998046875 303.905273438 517.998046875 c 1
 303.936850177 517.998046875 303.968425698 517.998030811 304 517.998030811 c 1
 304 671 l 1
 -5 671 l 1
 -5 803 l 1
 294.169993045 803 l 1
 288.782967079 829.090358008 278.663846542 856.108013886 260 875 c 0
 228.591796875 905.81640625 227.884765625 906.5234375 196.771484375 937.635742188 c 0
 150.102539062 984.3046875 91.4130859375 965.212890625 44.7431640625 1011.88183594 c 0
 9.388671875 1047.23730469 3.7314453125 1132.09082031 3.7314453125 1132.09082031 c 1
 92.1201171875 1220.47851562 l 1
 92.1201171875 1220.47851562 99.8984375 1133.50488281 135.959960938 1097.44238281 c 0
 181.21484375 1052.1875 238.491210938 1074.10742188 283.74609375 1028.85253906 c 0
 317.686523438 994.912109375 320.515625 992.083007812 354.456054688 958.142578125 c 0
 404.484375 908.114257812 385.005859375 810.403320312 387.690429688 810.356445312 c 1
 380.333903097 803 l 1
 611 803 l 1
EndSplineSet
EndChar

StartChar: uni0990
Encoding: 2448 2448 368
Width: 956
VWidth: 0
Flags: HW
HStem: 610 151<310.445 440.159>
VStem: 2.5 151<182.508 312.889>
LayerCount: 2
Fore
SplineSet
305 752 m 1
 328 758 351 761 376 761 c 0
 494 761 590 683 621 574 c 1
 621.70426363 438.546628475 l 1
 651.973002881 427.77182984 699.523734321 413.371098868 736 414 c 0
 758 414 770 432 775 453 c 0
 800.106821904 562.842345831 738.099135477 683.875891727 662.560546875 759.412109375 c 0
 615.891601562 806.081054688 557.202148438 786.989257812 510.532226562 833.658203125 c 0
 475.177734375 869.013671875 469.520507812 953.8671875 469.520507812 953.8671875 c 1
 557.909179688 1042.25488281 l 1
 557.909179688 1042.25488281 565.6875 955.28125 601.749023438 919.21875 c 0
 647.00390625 873.963867188 704.280273438 895.883789062 749.53515625 850.62890625 c 0
 783.475585938 816.688476562 786.3046875 813.859375 820.245117188 779.918945312 c 0
 870.132756054 730.031306446 983.613208221 407.951203969 847 342 c 0
 802 321 773 312 724 312 c 0
 692.087131999 312 650.744345998 322.477686667 622.263177433 331.048873647 c 1
 624 -3 l 5
 476.245256985 -4.0880763483 337.399286618 3.73261995089 189.5 2.5 c 5
 134.166992188 18.5 89.1669921875 48.8330078125 54.5 93.5 c 0
 19.8330078125 138.166992188 2.5 189.5 2.5 247.5 c 0
 2.5 272.166992188 5.5 295.833007812 11.5 318.5 c 1
 179.5 318.5 l 1
 162.166992188 297.833007812 153.5 274.166992188 153.5 247.5 c 0
 153.5 214.833007812 165.833007812 187.833007812 190.5 166.5 c 1
 457 166.5 l 1
 457 573 l 1
 437 596 409 610 376 610 c 0
 349 610 324 600 305 584 c 1
 305 752 l 1
EndSplineSet
EndChar

StartChar: uni0994
Encoding: 2452 2452 369
Width: 616
VWidth: 0
Flags: HW
HStem: 3.00195 151.016<238.473 368.671> 366 151.998<304 436> 671 132<-5 436 543.755 611>
LayerCount: 2
Fore
SplineSet
287 682 m 0
 280.208007812 681.634765625 231.076171875 677.51953125 225 676 c 1
 227.624023438 676.109375 204.358392055 760.16298253 207 760 c 0
 218.190429688 759.309570313 279.1413532 800.811067387 331 808 c 0
 474.523173823 827.895976636 572.978594643 717.309350141 570 565 c 0
 569.127750476 520.397838863 558.272336553 478.44711511 538.524725961 441.892102519 c 1
 567.556849173 431.06296076 621.578302834 413.303074187 662 414 c 0
 684 414 696 432 701 453 c 0
 726.106445312 562.842773438 664.099609375 683.875976562 588.560546875 759.412109375 c 0
 541.891601562 806.081054688 483.202148438 786.989257812 436.532226562 833.658203125 c 0
 401.177734375 869.013671875 395.520507812 953.8671875 395.520507812 953.8671875 c 1
 483.909179688 1042.25488281 l 1
 483.909179688 1042.25488281 491.6875 955.28125 527.749023438 919.21875 c 0
 573.00390625 873.963867188 630.280273438 895.883789062 675.53515625 850.62890625 c 0
 709.475585938 816.688476562 712.3046875 813.859375 746.245117188 779.918945312 c 0
 796.1328125 730.03125 909.61328125 407.951171875 773 342 c 0
 728 321 699 312 650 312 c 0
 622.655147911 312 588.386768639 319.692807981 561.218775277 327.287361114 c 1
 566.94751529 305.852274016 570 283.297743842 570 260 c 0
 570 118 455 3 312 3 c 0
 310.956176758 3 309.925842285 3.00155997276 308.905792236 3.00155997276 c 0
 308.603973389 3.00155997276 308.302032471 3 308 3 c 0
 306.815063477 3 305.632049561 3.00789618492 304.45123291 3.02363610268 c 0
 299.66192627 3.0695514679 295.0050354 3.20466184616 290.134063721 3.60223269463 c 0
 155.541519165 12.7090320587 50 123.964859009 50 260 c 0
 50 315.204104449 67.1383262217 366.2353949 96.41015625 408.088867188 c 1
 92.798828125 407.602539062 108 412 108 412 c 1
 286.961635046 362.550074527 201 404.883119019 201 260 c 0
 201 199.879084003 246.760359118 155.081977304 309.954711914 154.017227173 c 0
 372.901330704 155.127197857 419 199.640275116 419 260 c 0
 419 312.437438965 383.101318359 354.945495605 334 364.828063965 c 1
 334 363.864593506 l 1
 309.955078125 459.017578125 l 1
 318.23046875 459.163085938 326.280273438 460.234375 334 462.131835938 c 1
 334 461.169921875 l 1
 383.1015625 471.0390625 419 513.436523438 419 565 c 0
 419 643.319849683 365.104366021 686.19526104 287 682 c 0
EndSplineSet
EndChar

StartChar: uni099E
Encoding: 2462 2462 370
Width: 821
VWidth: 0
Flags: HW
HStem: 610 151<310.445 440.159>
VStem: 2.5 151<182.508 312.889>
LayerCount: 2
Fore
SplineSet
11.5 318.5 m 1
 179.5 318.5 l 1
 162.166992188 297.833007812 153.5 274.166992188 153.5 247.5 c 0
 153.5 214.833007812 165.833007812 187.833007812 190.5 166.5 c 1
 457 166.5 l 1
 457 573 l 1
 437 596 409 610 376 610 c 0
 349 610 324 600 305 584 c 1
 305 752 l 1
 328 758 351 761 376 761 c 0
 487.87912218 761 579.981410437 690.88213427 615.657235642 590.705299762 c 1
 628.000398678 596.860119776 644.509691034 604.671839135 659.5 606.75 c 0
 731.26171875 616.698242188 780.489257812 561.404296875 779 485.25 c 0
 778.443359375 456.7890625 769.756835938 430.486328125 754.07421875 409.196289062 c 1
 769.756835938 387.833984375 779 361.416992188 779 332.75 c 0
 779 261.75 721.5 204.25 650 204.25 c 0
 649.478515625 204.25 648.962890625 204.250976562 648.453125 204.250976562 c 0
 648.301757812 204.250976562 648.151367188 204.25 648 204.25 c 0
 647.407226562 204.25 646.81640625 204.25390625 646.225585938 204.26171875 c 0
 643.831054688 204.28515625 641.502929688 204.352539062 639.067382812 204.55078125 c 0
 633.577981117 204.922227154 628.185232847 205.633503249 622.909894555 206.663613945 c 1
 624 -3 l 1
 457 -3 l 1
 457 0.301369863014 l 1
 189.5 2.5 l 1
 134.166992188 18.5 89.1669921875 48.8330078125 54.5 93.5 c 0
 19.8330078125 138.166992188 2.5 189.5 2.5 247.5 c 0
 2.5 272.166992188 5.5 295.833007812 11.5 318.5 c 1
622.496619456 286.150191225 m 1
 630.201232512 282.196071662 639.169395264 279.923996083 648.977539062 279.758789062 c 0
 680.450195312 280.313476562 703.5 302.5703125 703.5 332.75 c 0
 703.5 358.96875 685.55078125 380.22265625 661 385.1640625 c 1
 661 384.682617188 l 1
 648.977539062 432.258789062 l 1
 653.115234375 432.33203125 657.140625 432.8671875 661 433.81640625 c 1
 661 433.334960938 l 1
 685.55078125 438.26953125 703.5 459.46875 703.5 485.25 c 0
 703.5 524.41015625 676.551757812 545.84765625 637.5 543.75 c 0
 635.744570841 543.655616661 628.334480406 543.060382206 621.16428596 542.402333654 c 1
 622.496619456 286.150191225 l 1
EndSplineSet
EndChar

StartChar: uni099D
Encoding: 2461 2461 371
Width: 944
VWidth: 0
Flags: HW
HStem: 671 132<0 524 670 723> 671 106<524 670>
VStem: 524 146<1 73.5 225.5 473.5 625.5 777> 524 57.5<73.5 225.5 473.5 473.5>
LayerCount: 2
Fore
SplineSet
670 671 m 1
 670 284.027777778 l 1
 673 287 l 1
 749 211 l 1
 749 671 l 1
 670 671 l 1
944 803 m 1
 944 671 l 1
 901 671 l 1
 901 0 l 1
 749.018691589 -7.1054273576e-15 l 1
 747 -2 l 1
 670 75 l 1
 670 1 l 1
 525.5 1 l 1
 525.5 0.5 l 1
 70.5 273.5 l 1
 70.5 425.5 l 1
 524 602.995107632 l 1
 524 671 l 1
 0 671 l 1
 0 803 l 1
 944 803 l 1
524 153.450160772 m 1
 524 454.072207084 l 1
 214.5 349.5 l 1
 524 153.450160772 l 1
EndSplineSet
EndChar

StartChar: uni099C
Encoding: 2460 2460 372
Width: 616
VWidth: 0
Flags: HW
HStem: 3.00156 151.016<243.473 373.671> 366 151.998<309 441> 671 132<0 309 441 616> 671 80<309 441>
VStem: 309 132<517.998 751>
LayerCount: 2
Fore
SplineSet
616 803 m 1
 616 671 l 1
 441 671 l 1
 441 483.792173248 l 1
 519.61082036 439.65999026 572.310417467 356.931210526 570 260 c 0
 566.541106206 114.885635484 452.286645156 2.8001721638 308.905792236 3.00155997276 c 0
 139.039267851 3.24014864388 55.1649552713 131.789550758 56.0009765625 261 c 1
 201.004086554 261 l 1
 201.001363701 260.667152961 201 260.33381812 201 260 c 0
 201 199.88239772 246.772259079 155.081776804 309.954711914 154.017227173 c 0
 372.911202253 155.127371927 419 199.636531606 419 260 c 0
 419 316.657057215 379.734620075 359.047087306 323.932153737 366 c 1
 309 366 l 1
 309 517.624026064 l 2
 308.968785327 517.871154762 308.937287529 517.998413086 308.905517578 517.998413086 c 1
 308.937012931 517.998413086 308.968507072 517.998397104 309 517.998397104 c 1
 309 671 l 1
 0 671 l 1
 0 803 l 1
 616 803 l 1
EndSplineSet
EndChar

StartChar: uni09A3
Encoding: 2467 2467 373
Width: 613
VWidth: 0
Flags: HW
LayerCount: 2
Fore
SplineSet
411.5 850 m 1
 563.5 850 l 1
 563.5 803 l 1
 611.5 803 l 1
 611.5 671 l 1
 563.5 671 l 1
 563.5 522.630595376 l 2
 564.491472476 513.394600695 565 504.009208046 565 494.5 c 0
 565 485.7265625 564.560546875 477.053710938 563.704101562 468.5 c 1
 563.5 468.5 l 1
 563.5 -2 l 1
 411.5 -2 l 1
 411.5 468.5 l 1
 410.864257812 468.5 l 1
 411.087687297 469.407123707 411.299652717 470.318802903 411.5 471.234869622 c 2
 411.5 518.06994533 l 1
 401.03561864 566.364649947 358.876953476 601.5 307 601.5 c 0
 248 601.5 201 554.5 201 494.5 c 0
 201 485.536132812 202.084960938 476.826171875 204.131835938 468.5 c 1
 51.2958984375 468.5 l 1
 50.4384765625 477.053710938 50 485.7265625 50 494.5 c 0
 50 637.5 165 752.5 307 752.5 c 0
 344.245162535 752.5 379.590884526 744.698726333 411.5 730.633344971 c 1
 411.5 850 l 1
EndSplineSet
EndChar

StartChar: uni0964
Encoding: 2404 2404 374
Width: 252
VWidth: 0
Flags: HW
HStem: -2 21G<50 202> 492 20G<50 202> 630 142<50 202>
VStem: 50 152<-2 512 630 772>
LayerCount: 2
Fore
SplineSet
202 370 m 1
 202 -30 l 1
 50 -30 l 1
 50 370 l 1
 202 370 l 1
EndSplineSet
EndChar

StartChar: uni0981
Encoding: 2433 2433 376
Width: 0
Flags: HW
LayerCount: 2
Fore
SplineSet
-61 658 m 1
 -61 772 l 1
 61 772 l 1
 61 658 l 1
 -61 658 l 1
193 619 m 1
 193 613 193 606 193 600 c 0
 193 492 107 406 1 406 c 0
 -107 406 -193 492 -193 600 c 0
 -193 606 -193 613 -193 619 c 1
 -77 619 l 1
 -79 613 -80 606 -80 600 c 0
 -80 555 -44 519 1 519 c 0
 46 519 80 555 80 600 c 0
 80 606 79 613 77 619 c 1
 193 619 l 1
EndSplineSet
EndChar

StartChar: uni09AD
Encoding: 2477 2477 377
Width: 726
VWidth: 75
Flags: HW
HStem: 4.7002 133.6<305.264 468.805> 513.479 120.821<395.987 467.023> 671 132<0 726>
VStem: 92.4004 111.399<240.829 328.876> 570.2 133.399<240.829 414.049>
LayerCount: 2
Fore
SplineSet
726 803 m 1
 726 671 l 1
 0 671 l 1
 0 803 l 1
 726 803 l 1
395.098851406 617 m 1
 395.987304688 634.29296875 l 2
 396.657226562 634.297851562 397.328125 634.299804688 398 634.299804688 c 0
 433.107226425 634.299804688 466.830251911 628.209329008 498.226244675 617 c 1
 509 617 l 1
 509 612.916767154 l 1
 622.907594786 567.2092207 703.599609375 453.228365959 703.599609375 319.900390625 c 0
 703.599609375 145.5 566.799804688 4.7001953125 398 4.7001953125 c 0
 229.200195312 4.7001953125 92.400390625 145.5 92.400390625 319.900390625 c 0
 92.400390625 320.77734375 203.86328125 330.658203125 203.870117188 331.533203125 c 1
 203.823242188 329.794921875 203.799804688 328.049804688 203.799804688 326.299804688 c 0
 203.799804688 222.299804688 285.400390625 138.299804688 387 138.299804688 c 0
 488.599609375 138.299804688 570.200195312 222.299804688 570.200195312 326.299804688 c 0
 570.200195312 396.395134257 532.55508531 457.632817876 476.566935874 489.70768376 c 1
 442.103524034 437.833390986 383.485877248 404 317 404 c 0
 209 404 123 490 123 598 c 0
 123 604 123 611 123 617 c 1
 239 617 l 1
 237 611 236 604 236 598 c 0
 236 553 272 517 317 517 c 0
 354.058201303 517 383.656445509 541.414405046 392.949460674 575.163982856 c 1
 394.754949612 610.306251335 l 2
 394.296547259 612.604034819 393.711564055 614.865307835 393 617 c 1
 395.098851406 617 l 1
EndSplineSet
EndChar

StartChar: uni09A7
Encoding: 2471 2471 378
Width: 752
Flags: HW
LayerCount: 2
Fore
SplineSet
702.5 803 m 1
 702.5 671 l 1
 649.5 671 l 1
 649.5 1 l 1
 503.5 1 l 1
 503.5 2.79845814978 l 1
 50 273.5 l 1
 50 425.5 l 1
 188.989888452 479.899173562 l 1
 159.646124123 513.572783219 142 557.484516712 142 605.5 c 0
 142 713.5 228 799.5 336 799.5 c 0
 342 799.5 349 799.5 355 799.5 c 1
 355 683.5 l 1
 349 685.5 342 686.5 336 686.5 c 0
 291 686.5 255 650.5 255 605.5 c 0
 255 567.858035588 280.189644174 537.912906896 314.765804363 529.126537911 c 1
 503.5 602.995107632 l 1
 503.5 777 l 1
 504.5 777 l 1
 504.5 803 l 1
 702.5 803 l 1
503.5 154.814516129 m 1
 503.5 454.072207084 l 1
 194 349.5 l 1
 503.5 154.814516129 l 1
EndSplineSet
EndChar

StartChar: uni09A8
Encoding: 2472 2472 379
Width: 661
VWidth: 0
Flags: HW
LayerCount: 2
Fore
SplineSet
661 803 m 1
 661 671 l 1
 616 671 l 1
 616 122.996886061 l 2
 619.605340177 105.748552166 621.5 87.8549303221 621.5 69.5 c 0
 621.5 60.7265625 621.060546875 52.0537109375 620.204101562 43.5 c 1
 616 43.5 l 1
 616 -2 l 1
 464 -2 l 1
 464 106.95426036 l 1
 449.125166816 147.953432875 410.260512904 176.5 363.5 176.5 c 0
 304.5 176.5 257.5 129.5 257.5 69.5 c 0
 257.5 60.5361328125 258.584960938 51.826171875 260.631835938 43.5 c 1
 107.795898438 43.5 l 1
 106.938476562 52.0537109375 106.5 60.7265625 106.5 69.5 c 0
 106.5 212.5 221.5 327.5 363.5 327.5 c 0
 399.19575942 327.5 433.146825078 320.334293478 464 307.356077409 c 1
 464 671 l 1
 0 671 l 1
 0 803 l 1
 464 803 l 1
 616 803 l 1
 661 803 l 1
EndSplineSet
EndChar

StartChar: uni09B6
Encoding: 2486 2486 380
Width: 642
Flags: HW
LayerCount: 2
Fore
SplineSet
0 705.5 m 1
 6 705.5 13 705.5 19 705.5 c 0
 118.685299068 705.5 199.627671634 632.232196406 211.499999995 537.596429004 c 1
 223.372328624 632.232196405 304.314701207 705.500000038 404 705.5 c 0
 410 705.5 417 705.5 423 705.5 c 1
 423 700.87109375 l 1
 442.5 684.265625 l 1
 442.5 847 l 1
 594.5 847 l 1
 594.5 803 l 1
 642.5 803 l 1
 642.5 671 l 1
 594.5 671 l 1
 594.5 -2 l 1
 442.5 -2 l 1
 442.5 574.649253731 l 1
 423 594.294776119 l 1
 423 589.5 l 1
 417 591.5 410 592.5 404 592.5 c 0
 359 592.5 323 558.5 323 513.5 c 0
 323 468.5 359 432.5 404 432.5 c 0
 410 432.5 417 433.5 423 435.5 c 1
 423 319.5 l 1
 417 319.5 410 319.5 404 319.5 c 0
 304.314700914 319.5 223.372328335 392.767803621 211.500000005 488.976293469 c 1
 199.6276714 392.767803622 118.685298805 319.499999962 19 319.5 c 0
 13 319.5 6 319.5 0 319.5 c 1
 0 435.5 l 1
 6 433.5 13 432.5 19 432.5 c 0
 64 432.5 100 468.5 100 513.5 c 0
 100 558.5 64 592.5 19 592.5 c 0
 13 592.5 6 591.5 0 589.5 c 1
 0 705.5 l 1
EndSplineSet
EndChar

StartChar: uni0988
Encoding: 2440 2440 381
Width: 1077
VWidth: 0
Flags: HW
HStem: -1 21G<407 593> 671 132<0 307.581 543.755 689>
LayerCount: 2
Fore
SplineSet
236.141601562 472.20703125 m 1
 236.141601562 472.20703125 128.799804688 578.45703125 128.026367188 577.68359375 c 1
 230.65625 680.313476562 392.620117188 682.33203125 495.080078125 579.872070312 c 0
 526.888223308 548.063925129 548.519862862 510.366928414 560.093512702 470.425818834 c 1
 638.814649885 534.57646276 l 1
 648.905456559 550.61500217 660.972621644 565.818324769 675.026367188 579.872070312 c 0
 702.492771488 607.338474613 734.235205576 627.296913924 767.964395312 639.821885126 c 1
 778 648 l 1
 776.53545103 642.831003635 l 1
 866.62869286 672.658147053 969.281397155 650.48227472 1042.08007812 577.68359375 c 1
 1041.30664062 578.45703125 933.96484375 472.20703125 933.96484375 472.20703125 c 1
 888.588867188 515.487304688 824.943359375 516.244140625 781.799804688 473.099609375 c 0
 739.116210938 430.416015625 740.233398438 366.353515625 783.96484375 321.051757812 c 0
 829.39453125 277.127929688 893.439453125 276.440429688 935.948242188 318.950195312 c 0
 936.184570312 319.186523438 936.419921875 319.422851562 936.653320312 319.66015625 c 1
 1039.18554688 217.127929688 l 1
 948.411132812 125.170898438 797.618164062 92.9951171875 677.922851562 213.525390625 c 0
 641.264117347 250.440014518 617.456305689 294.904202505 606.677441949 341.443112516 c 1
 534 265 l 1
 532.737729726 265.574550607 l 1
 521.664750243 247.09526651 508.141809596 229.594999916 492.18359375 213.525390625 c 0
 372.48828125 92.9951171875 221.6953125 125.170898438 130.920898438 217.127929688 c 1
 233.453125 319.66015625 l 1
 233.686523438 319.422851562 233.921875 319.186523438 234.158203125 318.950195312 c 0
 276.666992188 276.440429688 340.711914062 277.127929688 386.141601562 321.051757812 c 0
 388.659551356 323.660122363 391.036227423 326.33068206 393.271403281 329.055775058 c 1
 389 331 l 1
 402.678401037 342.146666141 l 1
 429.25300919 384.7487879 424.707732449 436.698517551 388.306640625 473.099609375 c 0
 345.163085938 516.244140625 281.517578125 515.487304688 236.141601562 472.20703125 c 1
1077 803 m 1
 1077 671 l 1
 0 671 l 1
 0 803 l 1
 538.488825367 803 l 1
 532.990715846 828.393884523 522.923165745 854.420599746 504.7890625 872.776367188 c 0
 473.380859375 903.592773438 472.673828125 904.299804688 441.560546875 935.412109375 c 0
 394.891601562 982.081054688 336.202148438 962.989257812 289.532226562 1009.65820312 c 0
 254.177734375 1045.01367188 248.520507812 1129.8671875 248.520507812 1129.8671875 c 1
 336.909179688 1218.25488281 l 1
 336.909179688 1218.25488281 344.6875 1131.28125 380.749023438 1095.21875 c 0
 426.00390625 1049.96386719 483.280273438 1071.88378906 528.53515625 1026.62890625 c 0
 562.475585938 992.688476562 565.3046875 989.859375 599.245117188 955.918945312 c 0
 649.2734375 905.890625 629.794921875 808.1796875 632.479492188 808.1328125 c 1
 627.346622977 803 l 1
 1077 803 l 1
EndSplineSet
EndChar

StartChar: uni0996
Encoding: 2454 2454 382
Width: 752
Flags: HW
LayerCount: 2
Fore
SplineSet
724.5 803 m 1
 724.5 671 l 1
 649.5 671 l 1
 649.5 1 l 1
 503.5 1 l 1
 503.5 777 l 1
 526.5 777 l 1
 526.5 803 l 1
 724.5 803 l 1
319.5 714 m 1
 451.5 714 l 1
 335.5 444 l 1
 334.689373297 445.121079483 l 1
 194 273.5 l 1
 503 159.5 l 1
 503 2.5 l 1
 50 179.5 l 1
 50 331.5 l 1
 296.440742143 561.511359334 l 1
 306.703214025 629.376092746 l 1
 280.44332835 553.631429771 209.207876939 500 125.5 500 c 0
 17.5 500 -68.5 586 -68.5 694 c 0
 -68.5 700 -68.5 707 -68.5 713 c 1
 47.5 713 l 1
 45.5 707 44.5 700 44.5 694 c 0
 44.5 649 80.5 613 125.5 613 c 0
 170.5 613 204.5 649 204.5 694 c 0
 204.5 700 203.5 707 201.5 713 c 1
 317.5 713 l 1
 317.5 700.774193548 l 1
 319.5 714 l 1
EndSplineSet
EndChar

StartChar: uni098B
Encoding: 2443 2443 383
Width: 1344
Flags: HW
LayerCount: 2
Fore
SplineSet
922 777 m 1
 1068 777 l 1
 1068 285.5 l 1
 1142.5 211 l 1
 1142.5 776 l 1
 1144.5 776 l 1
 1144.5 795 l 1
 1344.5 795 l 1
 1344.5 663 l 1
 1294.5 663 l 1
 1294.5 0 l 1
 1142.51869159 -7.1054273576e-15 l 1
 1140.5 -2 l 1
 1068 70.5 l 1
 1068 1 l 1
 922 1 l 1
 921 1 l 1
 921 1.39360529217 l 1
 468.5 179.5 l 1
 468.5 331.5 l 1
 714.940742143 561.511359334 l 1
 725.203214025 629.376092746 l 1
 698.94332835 553.631429771 627.707876939 500 544 500 c 0
 482.708904526 500 428.503299832 527.697827594 393.080896136 571.395772564 c 1
 357.870795121 527.697827594 304.156075188 500 244 500 c 0
 136 500 50 586 50 694 c 0
 50 700 50 707 50 713 c 1
 166 713 l 1
 164 707 163 700 163 694 c 0
 163 649 199 613 244 613 c 0
 289 613 323 649 323 694 c 0
 323 700 322 707 320 713 c 1
 350 713 l 1
 436 713 l 1
 466 713 l 1
 464 707 463 700 463 694 c 0
 463 649 499 613 544 613 c 0
 589 613 623 649 623 694 c 0
 623 700 622 707 620 713 c 1
 736 713 l 1
 736 700.774193548 l 1
 738 714 l 1
 922 714 l 1
 922 777 l 1
921 159.684466019 m 1
 921 709.262695312 l 1
 754 444 l 1
 753.189373297 445.121079483 l 1
 612.5 273.5 l 1
 921 159.684466019 l 1
EndSplineSet
EndChar

StartChar: uni09B2
Encoding: 2482 2482 384
Width: 943
VWidth: 0
Flags: HW
LayerCount: 2
Fore
SplineSet
943 803 m 1
 943 671 l 1
 895 671 l 1
 895 46.6671989066 l 2
 895.226642926 45.6096803245 895.3096275 44.5539357862 895.204101562 43.5 c 2
 895 43.5 l 1
 895 -2 l 1
 743 -2 l 1
 743 43.5 l 1
 742.364257812 43.5 l 1
 742.587687297 44.4071237067 742.799652717 45.3188029011 743 46.2348696198 c 2
 743 93.0699453302 l 1
 732.53561864 141.364649947 690.376953476 176.5 638.5 176.5 c 0
 587.05193504 176.5 544.728501121 140.761861751 534.736706052 91.829535502 c 0
 535.572324963 83.3369736637 535.999999779 74.7205515813 536 66 c 0
 536 59.0619877553 535.725183308 52.186877998 535.186657612 45.3838466448 c 0
 535.329581609 44.753766465 535.477991799 44.1257992011 535.631835938 43.5 c 1
 535.030641269 43.5 l 2
 534.929560683 42.3311564849 534.820695224 41.1644742134 534.704101562 40 c 2
 381.864257812 40 l 1
 382.184358285 41.2996079192 382.480928305 42.60856616 382.753514871 43.9263807936 c 0
 381.924029571 52.3418851863 381.499999936 60.872306684 381.5 69.5 c 0
 381.5 76.6246731312 381.755678988 83.6798412949 382.259121676 90.654744647 c 0
 371.402458808 138.389896394 329.487733094 173 278 173 c 0
 219 173 172 126 172 66 c 0
 172 57.0361328125 173.084960938 48.326171875 175.131835938 40 c 1
 22.2958984375 40 l 1
 21.4384765625 48.5537109375 21 57.2265625 21 66 c 0
 21 209 136 324 278 324 c 0
 346.040665035 324 407.742296438 297.964683294 453.73322848 255.265715609 c 1
 497.029791624 300.037700868 557.10824509 327.5 626.5 327.5 c 0
 668.480127444 327.5 708.047165211 317.589095969 743 299.968401209 c 1
 743 671 l 1
 0 671 l 1
 0 803 l 1
 743 803 l 1
 895 803 l 1
 943 803 l 1
EndSplineSet
EndChar

StartChar: uni09AF
Encoding: 2479 2479 385
Width: 841
VWidth: 0
Flags: HW
HStem: 10 152<235.1 580.7> 610 152<34.3 378.3>
LayerCount: 2
Fore
SplineSet
76.755859375 180.198242188 m 1
 108.228515625 327.01953125 l 1
 379.267578125 487.461914062 l 1
 118.098465451 671 l 1
 0 671 l 1
 0 803 l 1
 644 803 l 1
 796 803 l 1
 841 803 l 1
 841 671 l 1
 796 671 l 1
 796 -2 l 1
 644 -2 l 1
 644 0.182325908373 l 1
 76.755859375 180.198242188 l 1
644 156.658270369 m 1
 644 671 l 1
 357.165995084 671 l 1
 540.244140625 568.801757812 l 1
 508.771484375 421.98046875 l 1
 302.186523438 262.055664062 l 1
 644 156.658270369 l 1
EndSplineSet
EndChar

StartChar: uni09AB
Encoding: 2475 2475 386
Width: 1167
VWidth: 0
Flags: HW
HStem: 10 152<235.1 580.7> 610 152<34.3 378.3>
LayerCount: 2
Fore
SplineSet
76.755859375 180.198242188 m 1
 108.228515625 327.01953125 l 1
 379.267578125 487.461914062 l 1
 118.098465451 671 l 1
 0 671 l 1
 0 803 l 1
 1167 803 l 1
 1167 671 l 1
 357.165995084 671 l 1
 540.244140625 568.801757812 l 1
 508.771484375 421.98046875 l 1
 302.186523438 262.055664062 l 1
 644 156.658270369 l 1
 644 323 l 1
 644.51172564 323 l 1
 645.84278753 464.837954132 760.328457946 578.5 901.5 578.5 c 0
 1044.5 578.5 1159.5 463.5 1159.5 320.5 c 0
 1159.5 311.7265625 1159.06054688 303.053710938 1158.20410156 294.5 c 1
 1005.36425781 294.5 l 1
 1007.41503906 302.826171875 1008.5 311.536132812 1008.5 320.5 c 0
 1008.5 380.5 961.5 427.5 901.5 427.5 c 0
 843.321955635 427.5 796.81188546 381.800434425 795.527271397 323 c 1
 796 323 l 1
 796 310.007379611 l 2
 796.506899037 304.716913129 797.393265048 299.538194373 798.631835938 294.5 c 1
 796 294.5 l 1
 796 -2 l 1
 644 -2 l 1
 644 0.182325908373 l 1
 76.755859375 180.198242188 l 1
EndSplineSet
EndChar

StartChar: uni0997
Encoding: 2455 2455 387
Width: 690
VWidth: 0
Flags: HW
LayerCount: 2
Fore
SplineSet
68.615234375 383 m 1
 135.615234375 495 l 1
 141.615234375 489 148.615234375 486 157.615234375 483 c 0
 210.615234375 459 254.615234375 467 280.615234375 498 c 0
 309.615234375 532 258.615234375 538 204.615234375 547 c 1
 76.615234375 598 5.615234375 681 80.615234375 770 c 0
 143.615234375 846 296.615234375 863 423.615234375 809 c 0
 427.018351847 807.541521083 456.892803106 793.083726468 487.5 777.921388173 c 1
 487.5 850 l 1
 639.5 850 l 1
 639.5 803 l 1
 687.5 803 l 1
 687.5 671 l 1
 639.5 671 l 1
 639.5 -2 l 1
 487.5 -2 l 1
 487.5 613.239867652 l 1
 470.359096688 622.847245788 365.095860646 677.173124576 356.615234375 680 c 0
 303.615234375 702 281.615234375 695 255.615234375 664 c 0
 225.615234375 629 222.615234375 622 286.615234375 611 c 1
 405.615234375 561 508.615234375 500 432.615234375 411 c 0
 370.615234375 335 217.615234375 315 90.615234375 370 c 0
 83.615234375 372 76.615234375 377 68.615234375 383 c 1
EndSplineSet
EndChar

StartChar: uni098C
Encoding: 2444 2444 388
Width: 779
VWidth: 0
Flags: HW
HStem: 616 157<51.091 217.973> -14 161<51.091 217.973>
VStem: 352 153<282.8 477.701>
LayerCount: 2
Fore
SplineSet
98.1552734375 103.778320312 m 1
 97.2978515625 112.33203125 96.859375 121.004882812 96.859375 129.778320312 c 0
 96.859375 272.778320312 211.859375 387.779296875 353.859375 387.779296875 c 0
 448.783176582 387.779296875 531.369221454 337.105937218 576.17051436 261.206784434 c 1
 594.933037441 337.664683471 573.635885835 422.482278228 513.10546875 483.012695312 c 0
 421.181640625 574.936523438 274.810546875 577.05859375 185.0078125 487.255859375 c 0
 166.9375 469.185546875 152.58984375 448.826171875 141.946289062 427.079101562 c 1
 27.443359375 541.583007812 l 1
 40.8232421875 561.619140625 56.337890625 580.618164062 73.9921875 598.271484375 c 0
 223.19140625 747.470703125 468.557617188 743.935546875 622.70703125 589.786132812 c 0
 776.1484375 436.34375 779.684570312 190.977539062 630.485351562 41.7783203125 c 0
 612.831054688 24.125 593.83203125 8.6103515625 573.797851562 -4.771484375 c 1
 465.248046875 103.778320312 l 1
 457.724609375 103.778320312 l 1
 458.227169004 105.819684483 458.671790108 107.8841184 459.056659279 109.969707909 c 2
 456.470703125 112.555664062 l 1
 457.567377345 113.092867924 458.660540257 113.639482492 459.750074904 114.195510898 c 0
 460.481746805 119.283482789 460.859951496 124.486659364 460.859375 129.778320312 c 0
 460.860351562 189.778320312 413.859375 236.779296875 353.859375 236.778320312 c 0
 294.859375 236.779296875 247.859375 189.778320312 247.860351562 129.778320312 c 0
 247.859375 120.814453125 248.9453125 112.104492188 250.991210938 103.778320312 c 1
 98.1552734375 103.778320312 l 1
EndSplineSet
EndChar

StartChar: uni09EF
Encoding: 2543 2543 389
Width: 779
VWidth: 0
Flags: HW
HStem: 616 157<51.091 217.973> -14 161<51.091 217.973>
VStem: 352 153<282.8 477.701>
LayerCount: 2
Fore
SplineSet
98.1552734375 103.778320312 m 1
 97.2978515625 112.33203125 96.859375 121.004882812 96.859375 129.778320312 c 0
 96.859375 272.778320312 211.859375 387.779296875 353.859375 387.779296875 c 0
 448.783176582 387.779296875 531.369221454 337.105937218 576.17051436 261.206784434 c 1
 594.933037441 337.664683471 573.635885835 422.482278228 513.10546875 483.012695312 c 0
 421.181640625 574.936523438 274.810546875 577.05859375 185.0078125 487.255859375 c 0
 166.9375 469.185546875 152.58984375 448.826171875 141.946289062 427.079101562 c 1
 27.443359375 541.583007812 l 1
 40.8232421875 561.619140625 56.337890625 580.618164062 73.9921875 598.271484375 c 0
 223.19140625 747.470703125 468.557617188 743.935546875 622.70703125 589.786132812 c 0
 776.1484375 436.34375 779.684570312 190.977539062 630.485351562 41.7783203125 c 0
 612.831054688 24.125 593.83203125 8.6103515625 573.797851562 -4.771484375 c 1
 465.248046875 103.778320312 l 1
 457.724609375 103.778320312 l 1
 458.227169004 105.819684483 458.671790108 107.8841184 459.056659279 109.969707909 c 2
 456.470703125 112.555664062 l 1
 457.567377345 113.092867924 458.660540257 113.639482492 459.750074904 114.195510898 c 0
 460.481746805 119.283482789 460.859951496 124.486659364 460.859375 129.778320312 c 0
 460.860351562 189.778320312 413.859375 236.779296875 353.859375 236.778320312 c 0
 294.859375 236.779296875 247.859375 189.778320312 247.860351562 129.778320312 c 0
 247.859375 120.814453125 248.9453125 112.104492188 250.991210938 103.778320312 c 1
 98.1552734375 103.778320312 l 1
EndSplineSet
EndChar

StartChar: uni09EC
Encoding: 2540 2540 390
Width: 616
VWidth: 0
Flags: HW
HStem: 3.00156 151.016<243.473 373.671> 366 151.998<309 441> 671 132<0 309 441 616> 671 80<309 441>
VStem: 309 132<517.998 751>
LayerCount: 2
Fore
SplineSet
309 751 m 1
 441 751 l 1
 441 483.792173248 l 1
 519.61082036 439.65999026 572.310417467 356.931210526 570 260 c 0
 566.541106206 114.885635484 452.286645156 2.8001721638 308.905792236 3.00155997276 c 0
 139.039267851 3.24014864388 55.1649552713 131.789550758 56.0009765625 261 c 1
 201.004086554 261 l 1
 201.001363701 260.667152961 201 260.33381812 201 260 c 0
 201 199.88239772 246.772259079 155.081776804 309.954711914 154.017227173 c 0
 372.911202253 155.127371927 419 199.636531606 419 260 c 0
 419 316.657057215 379.734620075 359.047087306 323.932153737 366 c 1
 309 366 l 1
 309 517.624026064 l 2
 308.968785327 517.871154762 308.937287529 517.998413086 308.905517578 517.998413086 c 1
 308.937012931 517.998413086 308.968507072 517.998397104 309 517.998397104 c 1
 309 751 l 1
EndSplineSet
EndChar

StartChar: uni09ED
Encoding: 2541 2541 391
Width: 534
VWidth: 0
Flags: HW
HStem: 265 151<243.471 332> 629 150<243.591 331.625>
VStem: 332 152<3 266 416.026 628.974> 50 151<458.471 586.934>
LayerCount: 2
Fore
SplineSet
332 626 m 1
 324 628 316 629 308 629 c 0
 248 629 201 582 201 523 c 0
 201 463 248 416 308 416 c 0
 316 416 324 417 332 419 c 1
 332 626 l 1
332 3 m 1
 332 266 l 1
 324 265 316 265 308 265 c 0
 165 265 50 380 50 523 c 0
 50 665 165 780 308 780 c 0
 316 780 403 787 445 752 c 0
 483 720 484 631 484 631 c 1
 484 3 l 1
 332 3 l 1
EndSplineSet
EndChar

StartChar: uni09EE
Encoding: 2542 2542 392
Width: 692
VWidth: 0
Flags: HW
HStem: 367.571 151<202 290.529> 4.57143 150<202.375 290.409>
VStem: 50 152<517.571 780.571 154.597 367.545> 333 151<196.637 325.1>
LayerCount: 2
Fore
SplineSet
202 780.571289062 m 1
 202 517.571289062 l 1
 210 518.571289062 218 518.571289062 226 518.571289062 c 0
 235.73451976 518.571289062 245.339287233 518.038377887 254.786857958 517 c 2
 639 517 l 1
 639 365 l 1
 462.164755899 365 l 1
 476.210340441 333.109532168 484 297.788716996 484 260.571289062 c 0
 484 118.571289062 369 3.5712890625 226 3.5712890625 c 0
 218 3.5712890625 131 -3.4287109375 89 31.5712890625 c 0
 51 63.5712890625 50 152.571289062 50 152.571289062 c 1
 50 780.571289062 l 1
 202 780.571289062 l 1
202 157.571289062 m 1
 210 155.571289062 218 154.571289062 226 154.571289062 c 0
 286 154.571289062 333 201.571289062 333 260.571289062 c 0
 333 312.331236735 298.022963165 354.416684858 249.896522926 365 c 1
 203.780920361 365 l 2
 203.187280241 364.862602738 202.59364012 364.719699093 202 364.571289062 c 2
 202 157.571289062 l 1
EndSplineSet
EndChar

StartChar: uni09EB
Encoding: 2539 2539 393
Width: 779
VWidth: 0
Flags: HW
HStem: 616 157<549.596 716.478> -14 161<549.596 716.478>
VStem: 262.569 153<282.8 477.701>
LayerCount: 2
Fore
SplineSet
355.770507812 384.469726562 m 2
 355.113348703 385.197001653 l 1
 353.998408063 382.770586721 353.797035507 381.799182109 355.770507812 384.469726562 c 2
736.516601562 479.231445312 m 1
 660.09765625 346.872070312 l 1
 653.911132812 352.805664062 646.911132812 358.102539062 639.147460938 362.583007812 c 0
 587.185546875 392.583984375 522.982421875 375.381835938 493.482421875 324.28515625 c 0
 463.481445312 272.32421875 480.685546875 208.119140625 532.647460938 178.12109375 c 0
 537.229492188 175.474609375 541.924804688 173.200195312 546.697265625 171.290039062 c 0
 547.723632812 171.956054688 548.743164062 172.627929688 549.756835938 173.309570312 c 1
 550.702148438 169.77734375 l 2
 552.702148438 169.067382812 554.712890625 168.418945312 556.731445312 167.834960938 c 1
 552.96875 161.319335938 l 1
 592.702148438 13.037109375 l 1
 571.09375 2.37890625 548.16015625 -6.3173828125 524.044921875 -12.78125 c 0
 320.234375 -67.3896484375 109.508789062 58.3544921875 53.3447265625 267.9609375 c 0
 -3.0771484375 478.53125 116.543945312 692.79296875 320.353515625 747.403320312 c 0
 344.46875 753.866210938 368.680664062 757.802734375 392.721679688 759.372070312 c 1
 434.633789062 602.95703125 l 1
 418.18359375 604.084960938 401.4296875 603.403320312 384.618164062 600.763671875 c 1
 490.943359375 478.297851562 l 1
 555.856445312 496.979492188 651.125976562 530.02734375 714.646484375 493.353515625 c 0
 722.24609375 488.966796875 729.537109375 484.25 736.516601562 479.231445312 c 1
354.96627353 385.359769099 m 1
 239.19140625 513.487304688 l 1
 197.331054688 457.865234375 180.83984375 383.290039062 200.615234375 309.491210938 c 0
 222.76953125 226.805664062 285.575195312 165.953125 361.170898438 143.971679688 c 1
 320.35254866 216.275027312 315.68705089 306.42469085 354.96627353 385.359769099 c 1
EndSplineSet
EndChar

StartChar: uni09B7
Encoding: 2487 2487 394
Width: 841
VWidth: 0
Flags: HW
HStem: 10 152<235.1 580.7> 610 152<34.3 378.3>
LayerCount: 2
Fore
SplineSet
644 671 m 1
 357.165995084 671 l 1
 644 528.982142857 l 1
 644 671 l 1
644 156.658270369 m 1
 644 381.504761905 l 1
 511.956219354 436.837393795 l 1
 302.186523438 262.055664062 l 1
 644 156.658270369 l 1
76.755859375 180.198242188 m 1
 108.228515625 327.01953125 l 1
 379.267578125 487.461914062 l 1
 118.098465451 671 l 1
 0 671 l 1
 0 803 l 1
 841 803 l 1
 841 671 l 1
 796 671 l 1
 796 -2 l 1
 644 -2 l 1
 644 0.182325908373 l 1
 76.755859375 180.198242188 l 1
EndSplineSet
EndChar

StartChar: uni09A5
Encoding: 2469 2469 395
Width: 723
VWidth: 0
Flags: HW
HStem: 3 151<243.471 334> 367 151<243.471 334>
VStem: 50 151<196.066 324.529>
LayerCount: 2
Fore
SplineSet
174.400390625 766.462890625 m 1
 181.243164062 767.149414062 186.181640625 767.52734375 193.200195312 767.5 c 0
 307.951171875 767.052734375 460.767578125 698.090820312 467.599609375 578.900390625 c 0
 476.654914953 420.921070667 281.841224207 347.525355795 180 283 c 1
 524 166.745152355 l 1
 524 671 l 1
 524 777 l 1
 524 803 l 1
 723 803 l 1
 723 671 l 1
 670 671 l 1
 670 1 l 1
 524 1 l 1
 524 16.055187638 l 1
 88 197 l 1
 88 349 l 1
 88 349 229 446 311 518 c 0
 332 536 348.799804688 578.900390625 348.799804688 578.900390625 c 1
 348.799804688 626.099609375 243.200195312 646.700195312 195.200195312 646.700195312 c 0
 188.029296875 646.700195312 181.060546875 645.83203125 174.400390625 644.194335938 c 1
 174.400390625 766.462890625 l 1
EndSplineSet
EndChar

StartChar: uni0980
Encoding: 2432 2432 396
Width: 534
VWidth: 0
Flags: HW
HStem: 265 151<243.471 332> 629 150<243.591 331.625>
VStem: 332 152<3 266 416.026 628.974> 50 151<458.471 586.934>
LayerCount: 2
Fore
SplineSet
260 343 m 1
 260 265 l 1
 117 265 50 380 50 523 c 0
 50 665 165 780 308 780 c 0
 316 780 403 787 445 752 c 0
 483 720 484 631 484 631 c 1
 484 3 l 1
 332 3 l 1
 332 266 l 1
 326.246650269 265.280831284 338.752929688 388.056640625 333 388 c 1
 332 419 l 1
 332 626 l 1
 324 628 316 629 308 629 c 0
 248 629 201 582 201 523 c 0
 201 463 200 416 260 416 c 0
 261.09375 416 258.90625 342.962890625 260 343 c 1
EndSplineSet
EndChar

StartChar: uni09BC
Encoding: 2492 2492 397
Width: 0
VWidth: 0
GlyphClass: 4
Flags: HW
HStem: -2 142<-76 76>
VStem: -76 152<-2 140>
LayerCount: 2
Fore
SplineSet
-460 -138 m 1
 -460 4 l 1
 -308 4 l 1
 -308 -138 l 1
 -460 -138 l 1
EndSplineSet
EndChar

StartChar: uni09BD
Encoding: 2493 2493 398
Width: 689
VWidth: 0
Flags: HW
LayerCount: 2
Fore
SplineSet
249 482.998939703 m 1
 249 467 l 1
 239.196238235 475.031997591 l 2
 238.16927129 474.111391496 237.150916835 473.169730994 236.141601562 472.20703125 c 2
 236.141601562 472.20703125 222.281217398 485.926438418 204.48568902 503.469555984 c 2
 0 671 l 1
 0 803 l 1
 207.660972389 632.868119007 l 1
 302.690430131 675.613774185 416.420457416 658.531691022 495.080078125 579.872070312 c 0
 596.706054688 478.24609375 594.452148438 316.5078125 492.18359375 213.525390625 c 0
 466.661126095 187.824885392 439.724758431 169.067382236 412.25783953 156.351998526 c 1
 593 -1 l 1
 434 -1 l 1
 225.735839667 153.269748394 l 1
 190.403837657 167.595218234 157.993184242 189.702943722 130.920898438 217.127929688 c 1
 233.453125 319.66015625 l 1
 233.686523438 319.422851562 233.921875 319.186523438 234.158203125 318.950195312 c 0
 276.666992188 276.440429688 340.711914062 277.127929688 386.141601562 321.051757812 c 0
 429.873046875 366.353515625 430.990234375 430.416015625 388.306640625 473.099609375 c 0
 349.102852713 512.304284672 292.970526947 515.259440145 249 482.998939703 c 1
EndSplineSet
EndChar

StartChar: uni099A
Encoding: 2458 2458 399
Width: 530
VWidth: 0
Flags: HW
HStem: 367.571 151<202 290.529> 4.57143 150<202.375 290.409>
VStem: 50 152<517.571 780.571 154.597 367.545> 333 151<196.637 325.1>
LayerCount: 2
Fore
SplineSet
202 157.571289062 m 1
 210 155.571289062 218 154.571289062 226 154.571289062 c 0
 286 154.571289062 333 201.571289062 333 260.571289062 c 0
 333 320.571289062 286 367.571289062 226 367.571289062 c 0
 218 367.571289062 210 366.571289062 202 364.571289062 c 1
 202 157.571289062 l 1
530 803 m 1
 530 671 l 1
 202 671 l 1
 202 517.571289062 l 1
 210 518.571289062 218 518.571289062 226 518.571289062 c 0
 369 518.571289062 484 403.571289062 484 260.571289062 c 0
 484 118.571289062 369 3.5712890625 226 3.5712890625 c 0
 218 3.5712890625 131 -3.4287109375 89 31.5712890625 c 0
 51 63.5712890625 50 152.571289062 50 152.571289062 c 1
 50 671 l 1
 0 671 l 1
 0 803 l 1
 530 803 l 1
EndSplineSet
EndChar

StartChar: uni09CD
Encoding: 2509 2509 400
Width: 0
VWidth: 0
Flags: HW
LayerCount: 2
Fore
SplineSet
-104 -1 m 1
 40 -186 l 5
 -66 -247 l 5
 -210 -62 l 1
 -104 -1 l 1
EndSplineSet
EndChar

StartChar: uni09B8
Encoding: 2488 2488 401
Width: 512
VWidth: 0
Flags: HW
LayerCount: 2
Fore
SplineSet
55 95 m 1
 130 220 l 1
 136 215 142 210 152 205 c 0
 203 175 267 192 297 240 c 0
 329 296 279 344 227 353 c 1
 102.791951368 420.032915135 19.3977634371 532.738483911 97.5176741783 671 c 1
 0 671 l 1
 0 803 l 1
 776 803 l 1
 776 671 l 1
 755 671 l 1
 755 0 l 1
 603.018691589 -7.1054273576e-15 l 1
 601 -2 l 1
 428.501131862 170.498868138 l 1
 428.007275066 169.667863502 427.506909515 168.834909789 427 168 c 0
 358 51 201 12 76 80 c 0
 70 86 62 89 55 95 c 1
445.565209105 325.616701761 m 1
 446 328 l 1
 603 194.878326996 l 1
 603 671 l 1
 355.704575851 671 l 1
 349.72915748 666.977172496 344.718820814 664.640589593 342 666 c 0
 338.315642971 668.022784251 334.743806532 669.681633858 331.276316686 671 c 2
 291.719026599 671 l 1
 268.456514567 660.965277156 250.251133552 633.41855592 232 603 c 0
 199 548 232 467 296 456 c 1
 360.741904427 421.138974539 419.972284608 379.541641668 445.565209105 325.616701761 c 1
EndSplineSet
EndChar

StartChar: uni09AE
Encoding: 2478 2478 402
Width: 778
VWidth: 0
Flags: HW
LayerCount: 2
Fore
SplineSet
307.433300827 446.358663852 m 1025
770 803 m 1
 770 671 l 1
 749 671 l 1
 749 0 l 1
 597.018691589 -7.1054273576e-15 l 1
 595 -2 l 1
 479.301462966 113.698537034 l 1
 432.826458992 46.7926405422 355.244507475 3 267 3 c 0
 265.956054688 3 264.92578125 3.001953125 263.90625 3.001953125 c 0
 263.603515625 3.001953125 263.301757812 3 263 3 c 0
 261.815429688 3 260.631835938 3.0078125 259.451171875 3.0234375 c 0
 254.662109375 3.0693359375 250.004882812 3.205078125 245.133789062 3.6025390625 c 0
 110.541992188 12.708984375 5 123.96484375 5 260 c 0
 5 339.491427447 40.535989617 410.330673989 96.663596648 457.573558224 c 1
 55.1519405072 517.244174783 45.0472694932 589.851737398 91.4732796613 671 c 1
 -6 671 l 1
 -6 803 l 1
 770 803 l 1
264.955078125 366.982421875 m 0
 256.641601562 366.842773438 248.393554688 365.848632812 241 364 c 1
 241 364.828125 l 1
 191.8984375 354.9453125 156 312.4375 156 260 c 0
 156 208.436523438 191.8984375 166.0390625 241 156.169921875 c 1
 241 157 l 1
 248.393554688 155.151367188 256.641601562 154.157226562 264.955078125 154.017578125 c 0
 273.23046875 154.163085938 281.280273438 155.234375 289 157.131835938 c 1
 289 156.169921875 l 1
 338.1015625 166.0390625 374 208.436523438 374 260 c 0
 374 312.4375 338.1015625 354.9453125 289 364.828125 c 1
 289 363.864257812 l 1
 281.280273438 365.765625 273.23046875 366.836914062 264.955078125 366.982421875 c 0
597 194.878326996 m 1
 597 671 l 1
 349.704575851 671 l 1
 343.72915748 666.977172496 338.718820814 664.640589593 336 666 c 0
 332.315641893 668.022784843 328.743802153 669.681634413 325.276307272 671 c 2
 285.718957823 671 l 1
 262.456333569 660.965279047 244.250875944 633.418528545 226 603 c 0
 209.81236858 576.0206143 209.505913584 542.785007583 220.949435716 514.624469349 c 1
 228.890725003 515.914158137 236.956257058 516.844197138 245.12890625 517.397460938 c 0
 250.001953125 517.794921875 254.66015625 517.930664062 259.451171875 517.9765625 c 0
 260.631835938 517.9921875 261.815429688 518 263 518 c 0
 263.301757812 518 263.603515625 517.999023438 263.905273438 517.998046875 c 0
 264.92578125 518 265.956054688 518 267 518 c 0
 410 518 525 403 525 260 c 0
 525 258.648922206 524.989589254 257.300288674 524.968842698 255.954175203 c 2
 597 194.878326996 l 1
EndSplineSet
EndChar

StartChar: uni0998
Encoding: 2456 2456 403
Width: 770
VWidth: 0
Flags: HW
LayerCount: 2
Fore
SplineSet
79.7421234785 671.546172304 m 1
 -6 671 l 1
 -6 803 l 1
 770 803 l 1
 770 671 l 1
 749 671 l 1
 749 0 l 1
 359 19.3212890625 l 0
 187.732421875 19.3212890625 50 121.786132812 50 248.307617188 c 0
 50 311.702148438 78.4677734375 368.918945312 124.689453125 410.4140625 c 1
 78.4677734375 451.795898438 50 508.791015625 50 571.741210938 c 0
 50 607.554378849 60.6703737696 641.396498035 79.7421234785 671.546172304 c 1
597 671 m 1
 353 667.078125 l 1
 267.766601562 667.078125 201 625.200195312 201 571.741210938 c 0
 201 522.912109375 241.549804688 483.30859375 295.40234375 477.918945312 c 0
 299.576171875 478.095703125 303.775390625 478.186523438 308 478.186523438 c 0
 312.170898438 478.186523438 316.318359375 478.096679688 320.442382812 477.921875 c 0
 325.056640625 478.391601562 329.58203125 479.1171875 334 480.0859375 c 1
 334 477.030273438 l 1
 334 343.909179688 l 1
 334 340.850585938 l 1
 329.58203125 341.8203125 325.056640625 342.547851562 320.44140625 343.017578125 c 0
 316.318359375 342.841796875 312.170898438 342.75390625 308 342.75390625 c 0
 303.776367188 342.75390625 299.577148438 342.84375 295.404296875 343.020507812 c 0
 241.55078125 337.627929688 201 297.96484375 201 248.307617188 c 0
 201 195.740234375 270.40234375 153.861328125 359 153.861328125 c 5
 600 160 l 5
 597 671 l 1
EndSplineSet
EndChar

StartChar: uni0999
Encoding: 2457 2457 404
Width: 616
VWidth: 0
Flags: HW
HStem: 3.00156 151.016<243.473 373.671> 366 151.998<309 441> 671 132<0 309 441 616> 671 80<309 441>
VStem: 309 132<517.998 751>
LayerCount: 2
Fore
SplineSet
10 700 m 1
 130 796 l 1
 311.640625 690.890625 l 1
 317.836914062 752.955078125 368.28515625 802.319335938 431 807 c 0
 433 807 436 807 438 807 c 0
 439 807 439 807 440 807 c 0
 441 807 441 807 442 807 c 0
 514 807 571 750 571 678 c 0
 571 629.665039062 494.583007812 567.791992188 455 546 c 1
 403 448 l 1
 481.610351562 403.868164062 572.310417467 356.931210526 570 260 c 0
 566.541106206 114.885635484 452.286645156 2.8001721638 308.905792236 3.00155997276 c 0
 139.039267851 3.24014864388 55.1649552713 131.789550758 56.0009765625 261 c 1
 201.004086554 261 l 1
 201.001363701 260.667152961 201 260.33381812 201 260 c 0
 201 199.88239772 246.772259079 155.081776804 309.954711914 154.017227173 c 0
 372.911202253 155.127371927 419 199.636531606 419 260 c 0
 419 316.657057215 379.734620075 359.047087306 323.932153737 366 c 1
 309 366 l 1
 318 517.624023438 l 2
 317.96875 517.87109375 317.9375 517.998046875 317.905273438 517.998046875 c 1
 317.9375 517.998046875 317.96875 517.998046875 318 517.998046875 c 2
 327 544 l 1
 321.180664062 566.630859375 l 1
 311.329101562 572.219726562 302.288085938 579.047851562 294.279296875 586.907226562 c 1
 10 700 l 1
441 732 m 0
 437 732 433 731 429 730 c 1
 429 731 l 1
 404 726 387 704 387 678 c 0
 387 660.083984375 395.072265625 644.54296875 408.270507812 634.973632812 c 2
 417.364257812 629.711914062 l 2
 421 628.075195312 424.891601562 626.821289062 429 626 c 1
 429 627 l 1
 433 626 437 625 441 625 c 0
 445 625 449 626 453 627 c 1
 453 626 l 1
 478 631 495 652 495 678 c 0
 495 704 478 726 453 731 c 1
 453 730 l 1
 449 731 445 732 441 732 c 0
EndSplineSet
EndChar

StartChar: uni09AA
Encoding: 2474 2474 405
Width: 619
VWidth: 0
Flags: HW
HStem: -39.1672 157<567.596 734.478> 586.833 161<567.596 734.478>
VStem: 280.569 153<256.132 451.033>
LayerCount: 2
Fore
SplineSet
224.63671875 575.595703125 m 1
 242.1640625 627.83984375 284.065429688 665.619140625 334.059570312 679.534179688 c 1
 290.935546875 703.227539062 236.286132812 704.090820312 189.953125 677.340820312 c 0
 148.598632812 653.46484375 122.9296875 613.219726562 116.84765625 570.13671875 c 1
 224.63671875 575.595703125 l 1
351.774414062 365.487304688 m 1
 346.47265625 366.354492188 341.165039062 367.4921875 335.869140625 368.911132812 c 0
 291.588867188 380.776367188 264.08984375 437.485351562 243.658203125 474.428710938 c 1
 142.545898438 467.296875 l 1
 148.809570312 458.700195312 155.913085938 450.994140625 163.681640625 444.22265625 c 1
 76.0322265625 393.618164062 l 1
 66.1005859375 404.936523438 57.140625 417.376953125 49.3388671875 430.891601562 c 0
 -16.5986328125 545.09765625 25.2265625 692.654296875 143.22265625 760.779296875 c 0
 234.034179688 813.209960938 343.524414062 802.651367188 419 742.37890625 c 1
 419 845 l 1
 571 845 l 1
 571 801 l 1
 619 801 l 1
 619 669 l 1
 571 669 l 1
 571 -4 l 1
 419 -4 l 1
 419 486.981445312 l 1
 417 485 l 1
 418.055664062 591.0859375 l 1
 411.157226562 587.103515625 l 1
 409.939453125 582.561523438 l 1
 408.790039062 583.1953125 407.614257812 583.796875 406.416992188 584.368164062 c 2
 404.438476562 583.224609375 l 1
 404.291992188 583.973632812 404.137695312 584.720703125 403.977539062 585.46875 c 0
 401.025390625 586.733398438 397.9453125 587.8046875 394.750976562 588.659179688 c 0
 358.528320312 598.366210938 322.55078125 577.594726562 312.844726562 541.37109375 c 0
 303.30078125 505.751953125 324.073242188 469.77734375 360.294921875 460.071289062 c 0
 365.706054688 458.620117188 371.140625 457.868164062 376.497070312 457.755859375 c 1
 351.774414062 365.487304688 l 1
225.38671875 575.633789062 m 2
 225.694335938 577.6875 225.354492188 577.16796875 224.775390625 575.603515625 c 1
 225.38671875 575.633789062 l 2
EndSplineSet
EndChar

StartChar: uni09E7
Encoding: 2535 2535 406
Width: 555
VWidth: 0
Flags: HW
HStem: 616 157<51.091 217.973> -14 161<51.091 217.973>
VStem: 352 153<282.8 477.701>
LayerCount: 2
Fore
SplineSet
123 147 m 0
 250 147 352 252 352 381 c 0
 352 511 250 616 123 616 c 0
 97.4453125 616 72.9033203125 611.749023438 50 603.897460938 c 1
 50 765.830078125 l 1
 73.62890625 770.536132812 98.0341796875 773 123 773 c 0
 334 773 505 597 505 379 c 0
 505 162 334 -14 123 -14 c 0
 98.0341796875 -14 73.62890625 -11.5361328125 50 -6.83203125 c 1
 50 159.09375 l 1
 72.9033203125 151.250976562 97.4453125 147 123 147 c 0
EndSplineSet
EndChar

StartChar: uni09E8
Encoding: 2536 2536 407
Width: 783
VWidth: 0
Flags: HW
HStem: 10 152<301 733> 610 152<50 480>
LayerCount: 2
Fore
SplineSet
-29.83984375 226.225585938 m 1
 46.16015625 357.861328125 l 1
 427.34375 446.08984375 l 1
 54.5859375 662.456054688 l 1
 130.586914062 794.092773438 l 1
 661.826171875 486.2265625 l 1
 585.826171875 354.58984375 l 1
 203.77734375 266.861328125 l 1
 548.455078125 67.861328125 l 1
 472.455078125 -63.775390625 l 1
 -29.83984375 226.225585938 l 1
EndSplineSet
EndChar

StartChar: uni09A6
Encoding: 2470 2470 408
Width: 725
VWidth: 0
Flags: HW
HStem: 10 152<301 733> 610 152<50 480>
LayerCount: 2
Fore
SplineSet
662.5 582.5 m 1
 662.5 2.5 l 1
 510.5 2.5 l 1
 510.5 400.5 l 1
 243.5 113.5 l 1
 91.5 113.5 l 1
 90.592019544 671 l 1
 0 671 l 1
 0 803 l 1
 726 803 l 1
 726 671 l 1
 242.631090487 671 l 1
 243.5 296.5 l 1
 510.5 582.5 l 1
 662.5 582.5 l 1
EndSplineSet
EndChar

StartChar: uni09E9
Encoding: 2537 2537 409
Width: 726
VWidth: 75
Flags: HW
HStem: 4.7002 133.6<305.264 468.805> 513.479 120.821<395.987 467.023> 671 132<0 726>
VStem: 92.4004 111.399<240.829 328.876> 570.2 133.399<240.829 414.049>
LayerCount: 2
Fore
SplineSet
389.780273438 513.478515625 m 1
 389.780273438 513.478515625 395.987304688 634.29296875 395.987304688 634.29296875 c 2
 396.657226562 634.297851562 397.328125 634.299804688 398 634.299804688 c 0
 566.799804688 634.299804688 703.599609375 493.5 703.599609375 319.900390625 c 0
 703.599609375 145.5 566.799804688 4.7001953125 398 4.7001953125 c 0
 229.200195312 4.7001953125 92.400390625 145.5 92.400390625 319.900390625 c 0
 92.400390625 320.77734375 203.86328125 330.658203125 203.870117188 331.533203125 c 1
 203.823242188 329.794921875 203.799804688 328.049804688 203.799804688 326.299804688 c 0
 203.799804688 222.299804688 285.400390625 138.299804688 387 138.299804688 c 0
 488.599609375 138.299804688 570.200195312 222.299804688 570.200195312 326.299804688 c 0
 570.200195312 428.556640625 490.084960938 511.962890625 389.780273438 513.478515625 c 1
EndSplineSet
EndChar

StartChar: uni099B
Encoding: 2459 2459 410
Width: 726
VWidth: 75
Flags: HW
LayerCount: 2
Fore
SplineSet
726 803 m 1
 726 671 l 1
 215 671 l 1
 215 571.400390625 l 1
 221.400390625 572.200195312 227.799804688 572.200195312 234.200195312 572.200195312 c 0
 303.585667323 572.200195312 364.731159442 538.356535479 402.107541262 486.198128309 c 1
 413.242160606 487.475964783 424.616567165 488.136718759 436.1796875 488.13671875 c 0
 571.220703125 488.13671875 680.66015625 398.0234375 680.66015625 286.920898438 c 0
 680.66015625 203.858398438 620.052734375 138.09375 533.390625 109.879882812 c 1
 709.459960938 111.560546875 l 1
 709.459960938 33.736328125 l 1
 387.540039062 30.6640625 l 1
 389.459960938 181.500976562 l 1
 404.118164062 177.48046875 419.825195312 175.3046875 436.1796875 175.3046875 c 0
 517.459960938 175.3046875 582.740234375 219.3359375 582.740234375 285.896484375 c 0
 582.740234375 351.780835467 517.782761583 405.437863266 436.783016918 405.703113868 c 1
 439.287915382 392.800377256 440.599609375 379.459778243 440.599609375 365.799804688 c 0
 440.599609375 252.200195312 348.599609375 160.200195312 234.200195312 160.200195312 c 0
 227.799804688 160.200195312 221.400390625 160.200195312 215 161 c 2
 93.400390625 161 l 1
 93.400390625 671 l 1
 0 671 l 1
 0 803 l 1
 726 803 l 1
215 283.400390625 m 1
 221.400390625 281.799804688 227.799804688 281 234.200195312 281 c 0
 282.200195312 281 319.799804688 318.599609375 319.799804688 365.799804688 c 0
 319.799804688 413.799804688 282.200195312 451.400390625 234.200195312 451.400390625 c 0
 227.799804688 451.400390625 221.400390625 450.599609375 215 449 c 1
 215 283.400390625 l 1
EndSplineSet
EndChar

StartChar: uni09A0
Encoding: 2464 2464 411
Width: 726
VWidth: 75
Flags: HW
LayerCount: 2
Fore
SplineSet
374 536 m 1030
726 803 m 1
 726 671 l 1
 614.923344 671 l 1
 725.253362265 576.844878326 777.636330292 421.422589183 736.516601562 267.9609375 c 0
 680.352539062 58.3544921875 469.626953125 -67.3896484375 265.81640625 -12.78125 c 0
 241.701171875 -6.3173828125 218.767578125 2.37890625 197.159179688 13.037109375 c 1
 236.892578125 161.319335938 l 1
 233.129882812 167.834960938 l 1
 235.1484375 168.418945312 237.159179688 169.067382812 239.159179688 169.77734375 c 2
 240.104492188 173.309570312 l 1
 241.118164062 172.627929688 242.137695312 171.956054688 243.1640625 171.290039062 c 0
 247.936523438 173.200195312 252.631299155 175.47553896 257.213867188 178.12109375 c 0
 309.17578125 208.119140625 278.616210938 603.452148438 248.615234375 655.413085938 c 0
 245.376318289 661.023182811 241.71906745 666.224692263 237.705613987 671 c 1
 0 671 l 1
 0 803 l 1
 251.8359375 803 l 1
 236.87109375 817.96484375 l 2
 191.616210938 863.219726562 213.536132812 920.49609375 168.28125 965.750976562 c 0
 132.21875 1001.8125 45.2451171875 1009.59082031 45.2451171875 1009.59082031 c 1
 133.6328125 1097.97949219 l 1
 133.6328125 1097.97949219 218.486328125 1092.32226562 253.841796875 1056.96777344 c 0
 300.510742188 1010.29785156 281.418945312 951.608398438 328.087890625 904.939453125 c 0
 359.200195312 873.826171875 359.907226562 873.119140625 390.723632812 841.7109375 c 0
 417.475317522 815.282306061 460.520195433 805.987138779 494.153626507 803 c 2
 726 803 l 1
386 616 m 1
 425.278320312 537.065429688 469.508789062 216.275390625 428.690429688 143.971679688 c 1
 504.286132812 165.953125 567.089548499 226.806266512 589.24609375 309.491210938 c 0
 609.021484375 383.290039062 493.860351562 596.377929688 452 652 c 1
 386 616 l 1
EndSplineSet
EndChar

StartChar: uni09EA
Encoding: 2538 2538 412
Width: 616
VWidth: 0
Flags: HW
HStem: 366.983 92.0348<286.347 333.638>
VStem: 50 151<197.14 324.826 500.772 628.449> 419 151<195.844 324.826 500.772 629.753>
LayerCount: 2
Fore
SplineSet
309.037109375 3.201171875 m 0
 308.771484375 3.201171875 308.505859375 3.2001953125 308.240234375 3.2001953125 c 0
 307.197265625 3.2001953125 306.15625 3.2060546875 305.116210938 3.220703125 c 0
 300.90234375 3.2607421875 296.8046875 3.380859375 292.518554688 3.7294921875 c 0
 174.077148438 11.744140625 81.2001953125 109.6484375 81.2001953125 229.359375 c 0
 81.2001953125 279.814453125 139.974609375 369.916992188 162.056640625 399.995117188 c 1
 139.974609375 429.971679688 126.959960938 466.998046875 126.959960938 507.078125 c 0
 126.959960938 603.520507812 201.259765625 681.87109375 296.010742188 688.286132812 c 0
 299.44140625 688.565429688 302.720703125 688.661132812 306.092773438 688.694335938 c 0
 306.924804688 688.706054688 307.7578125 688.709960938 308.591796875 688.709960938 c 0
 308.8046875 688.709960938 309.017578125 688.709960938 309.228515625 688.708984375 c 0
 309.947265625 688.709960938 310.672851562 688.709960938 311.408203125 688.709960938 c 0
 412.080078125 688.709960938 493.040039062 607.75 493.040039062 507.078125 c 0
 493.040039062 466.998046875 480.025390625 429.971679688 457.943359375 399.995117188 c 1
 480.025390625 369.916992188 538.799804688 279.814453125 538.799804688 229.359375 c 0
 538.799804688 104.400390625 437.599609375 3.2001953125 311.759765625 3.2001953125 c 0
 310.840820312 3.2001953125 309.934570312 3.201171875 309.037109375 3.201171875 c 0
309.967773438 582.393554688 m 0
 304.115234375 582.295898438 298.309570312 581.596679688 293.103515625 580.293945312 c 1
 293.103515625 580.877929688 l 1
 258.536132812 573.920898438 233.263671875 543.994140625 233.263671875 507.078125 c 0
 233.263671875 470.778320312 258.536132812 440.930664062 293.103515625 433.982421875 c 1
 293.103515625 434.56640625 l 1
 298.309570312 433.264648438 304.115234375 432.565429688 309.967773438 432.467773438 c 0
 315.793945312 432.569335938 321.461914062 433.323242188 326.896484375 434.659179688 c 1
 326.896484375 433.982421875 l 1
 361.463867188 440.930664062 386.736328125 470.778320312 386.736328125 507.078125 c 0
 386.736328125 543.994140625 361.463867188 573.920898438 326.896484375 580.877929688 c 1
 326.896484375 580.198242188 l 1
 321.461914062 581.538085938 315.793945312 582.291992188 309.967773438 582.393554688 c 0
309.959960938 323.504882812 m 0
 302.64453125 323.381835938 295.38671875 322.505859375 288.879882812 320.879882812 c 1
 288.879882812 321.609375 l 1
 245.669921875 312.912109375 214.080078125 275.504882812 214.080078125 229.359375 c 0
 214.080078125 183.984375 245.669921875 146.673828125 288.879882812 137.990234375 c 1
 288.879882812 138.720703125 l 1
 295.38671875 137.09375 302.64453125 136.21875 309.959960938 136.094726562 c 0
 317.243164062 136.223632812 324.327148438 137.166015625 331.120117188 138.8359375 c 1
 331.120117188 137.990234375 l 1
 374.330078125 146.673828125 405.919921875 183.984375 405.919921875 229.359375 c 0
 405.919921875 275.504882812 374.330078125 312.912109375 331.120117188 321.609375 c 1
 331.120117188 320.760742188 l 1
 324.327148438 322.434570312 317.243164062 323.375976562 309.959960938 323.504882812 c 0
EndSplineSet
EndChar

StartChar: uni09E6
Encoding: 2534 2534 413
Width: 864
VWidth: 0
Flags: HW
HStem: 25.35 141.3<356.32 508.56> 588.75 144.9<356.32 508.56>
VStem: 126.5 122<282.263 475.349> 615.5 122<279.999 477.603>
LayerCount: 2
Fore
SplineSet
615.5 378.150390625 m 0
 615.5 494.25 534.5 588.75 432.5 588.75 c 0
 330.5 588.75 248.5 494.25 248.5 378.150390625 c 0
 248.5 261.150390625 330.5 166.650390625 432.5 166.650390625 c 0
 534.5 166.650390625 615.5 261.150390625 615.5 378.150390625 c 0
737.5 379.950195312 m 0
 737.5 183.75 601.5 25.349609375 432.5 25.349609375 c 0
 263.5 25.349609375 126.5 183.75 126.5 379.950195312 c 0
 126.5 575.25 263.5 733.650390625 432.5 733.650390625 c 0
 601.5 733.650390625 737.5 575.25 737.5 379.950195312 c 0
EndSplineSet
EndChar

StartChar: uni25CC
Encoding: 9676 9676 414
Width: 864
VWidth: 0
Flags: HW
HStem: -14 157<337.027 526.973> 612 161<337.027 526.973>
VStem: 50 153<278.712 478.774> 661 153<278.712 478.774>
LayerCount: 2
Fore
SplineSet
70 244 m 0
 70 293 109 332 158 332 c 0
 207 332 246 293 246 244 c 0
 246 195 207 156 158 156 c 0
 109 156 70 195 70 244 c 0
243 90 m 0
 243 139 282 178 331 178 c 0
 380 178 419 139 419 90 c 0
 419 41 380 2 331 2 c 0
 282 2 243 41 243 90 c 0
609 225 m 0
 609 274 648 313 697 313 c 0
 746 313 785 274 785 225 c 0
 785 176 746 137 697 137 c 0
 648 137 609 176 609 225 c 0
464 88 m 0
 464 137 503 176 552 176 c 0
 601 176 640 137 640 88 c 0
 640 39 601 0 552 0 c 0
 503 0 464 39 464 88 c 0
637 434 m 0
 637 483 676 522 725 522 c 0
 774 522 813 483 813 434 c 0
 813 385 774 346 725 346 c 0
 676 346 637 385 637 434 c 0
48 462 m 0
 48 511 87 550 136 550 c 0
 185 550 224 511 224 462 c 0
 224 413 185 374 136 374 c 0
 87 374 48 413 48 462 c 0
165 634 m 0
 165 683 204 722 253 722 c 0
 302 722 341 683 341 634 c 0
 341 585 302 546 253 546 c 0
 204 546 165 585 165 634 c 0
552 608 m 0
 552 657 591 696 640 696 c 0
 689 696 728 657 728 608 c 0
 728 559 689 520 640 520 c 0
 591 520 552 559 552 608 c 0
359 692 m 0
 359 741 398 780 447 780 c 0
 496 780 535 741 535 692 c 0
 535 643 496 604 447 604 c 0
 398 604 359 643 359 692 c 0
EndSplineSet
EndChar

StartChar: Euro
Encoding: 8364 8364 415
Width: 555
VWidth: 0
Flags: HW
HStem: -14 157<337.027 503.909> 612 161<337.027 503.909>
VStem: 50 153<281.299 476.2>
LayerCount: 2
Fore
SplineSet
15 358 m 2
 423 358 l 2
 431 358 438 351 438 343 c 2
 438 287 l 2
 438 279 431 272 423 272 c 2
 15 272 l 2
 7 272 0 279 0 287 c 2
 0 343 l 2
 0 351 7 358 15 358 c 2
15 533 m 6
 423 533 l 6
 431 533 438 526 438 518 c 6
 438 462 l 6
 438 454 431 447 423 447 c 6
 15 447 l 6
 7 447 0 454 0 462 c 6
 0 518 l 6
 0 526 7 533 15 533 c 6
432 612 m 0
 305 612 203 507 203 378 c 0
 203 248 305 143 432 143 c 0
 457.554656982 143 482.097106934 147.251296997 505 155.102142334 c 1
 505 -6.83008432388 l 1
 481.371307373 -11.5360393524 456.965667725 -14 432 -14 c 0
 221 -14 50 162 50 380 c 0
 50 597 221 773 432 773 c 0
 456.965667725 773 481.371307373 770.536010742 505 765.831726074 c 1
 505 599.906005859 l 1
 482.097106934 607.748718262 457.554656982 612 432 612 c 0
EndSplineSet
EndChar

StartChar: uni20B9
Encoding: 8377 8377 416
Width: 826
VWidth: 75
Flags: HW
LayerCount: 2
Fore
SplineSet
776 803 m 1
 776 671 l 1
 437.1171875 671 l 1
 539.01953125 643.420898438 615.443359375 555.403320312 625.80078125 448 c 1
 761 448 l 2
 769 448 776 441 776 433 c 2
 776 385 l 2
 776 377 769 370 761 370 c 2
 621.603515625 370 l 1
 605.0234375 289.890625 551.556640625 223.643554688 479.596679688 189.649414062 c 1
 716.348632812 -37.0107421875 l 1
 623.010742188 -130.348632812 l 1
 247.651367188 229.010742188 l 1
 340.989257812 322.348632812 l 1
 344.788085938 318.711914062 l 1
 352.5703125 316.935546875 360.67578125 316 369 316 c 0
 409.588867188 316 444.228515625 337.508789062 462.393554688 370 c 1
 197 370 l 2
 189 370 182 377 182 385 c 2
 182 433 l 2
 182 441 189 448 197 448 c 2
 473.091796875 448 l 1
 461.978515625 494.739257812 420.227539062 529 369 529 c 0
 360.036132812 529 351.326171875 527.915039062 343 525.868164062 c 1
 343 671 l 1
 50 671 l 1
 50 803 l 1
 776 803 l 1
EndSplineSet
EndChar

StartChar: uni09F0
Encoding: 2544 2544 417
Width: 723
VWidth: 0
Flags: HW
HStem: 671 132<0 524 670 723> 671 106<524 670>
VStem: 524 146<1 73.5 225.5 473.5 625.5 777> 524 57.5<73.5 225.5 473.5 473.5>
LayerCount: 2
Fore
SplineSet
723 803 m 1
 723 671 l 1
 670 671 l 1
 670 1 l 1
 526 1 l 1
 526 0 l 1
 524.334552102 1 l 1
 524 1 l 1
 524 1.20087815587 l 1
 70.5 273.5 l 1
 70.5 425.5 l 1
 524 602.995117188 l 1
 524 671 l 1
 0 671 l 1
 0 803 l 1
 723 803 l 1
524 155.255216693 m 1
 524 238.194690265 l 1
 342.198003784 392.645943688 l 1
 214.5 349.5 l 1
 524 155.255216693 l 1
524 348.447368421 m 1
 524 454.072265625 l 1
 437.383436455 424.806707336 l 1
 524 348.447368421 l 1
EndSplineSet
EndChar

StartChar: uni09F1
Encoding: 2545 2545 418
Width: 723
VWidth: 0
Flags: HW
HStem: 671 132<0 524 670 723> 671 106<524 670>
VStem: 524 146<1 73.5 225.5 473.5 625.5 777> 524 57.5<73.5 225.5 473.5 473.5>
LayerCount: 2
Fore
SplineSet
723 803 m 1
 723 671 l 1
 670 671 l 1
 670 1 l 1
 524 1 l 1
 380.33721828 99.3372182795 220.356035788 181.356035788 70.5 273.5 c 1
 70.5 425.5 l 1
 524 602.995107632 l 1
 524 671 l 1
 0 671 l 1
 0 803 l 1
 723 803 l 1
44 196 m 1
 476 -44 l 1
 414 -137 l 1
 0 90 l 1
 44 196 l 1
524 159.113564669 m 1
 524 454.072207084 l 1
 214.5 349.5 l 1
 524 159.113564669 l 1
EndSplineSet
EndChar

StartChar: uni09BF
Encoding: 2495 2495 419
Width: 275
VWidth: 0
Flags: HW
LayerCount: 2
Fore
SplineSet
272 803 m 1
 272 671 l 1
 227 671 l 1
 227 -2 l 1
 75 -2 l 1
 75 671 l 1
 0 671 l 1
 0 803 l 1
 75 803 l 1
 76.9262803494 803 l 1
 76.312680609 810.254155884 76 817.591213685 76 825 c 0
 76 968 191 1083 333 1083 c 0
 476 1083 591 968 591 825 c 0
 591 816.2265625 590.560546875 807.553710938 589.704101562 799 c 1
 436.864257812 799 l 1
 438.915039062 807.326171875 440 816.036132812 440 825 c 0
 440 885 393 932 333 932 c 0
 274 932 227 885 227 825 c 0
 227 817.461327684 227.767384475 810.102241294 229.228960524 803 c 1
 272 803 l 1
EndSplineSet
EndChar

StartChar: uni09C0
Encoding: 2496 2496 420
Width: 246
VWidth: 0
Flags: HW
LayerCount: 2
Fore
SplineSet
246 803 m 1
 246 671 l 1
 201 671 l 1
 201 -2 l 1
 49 -2 l 1
 49 671 l 1
 -1 671 l 1
 -1 803 l 1
 49 803 l 1
 49.5128369219 803 l 1
 51.1430692827 811.528816558 52 824.033616353 52 832 c 0
 52 892 5 939 -55 939 c 0
 -114 939 -161 892 -161 832 c 0
 -161 823.036132812 -159.915039062 814.326171875 -157.868164062 806 c 1
 -310.704101562 806 l 1
 -311.561523438 814.553710938 -312 823.2265625 -312 832 c 0
 -312 975 -197 1090 -55 1090 c 0
 88 1090 203 975 203 832 c 0
 203 824.182986139 202.651137131 811.682682075 201.969298366 803 c 1
 246 803 l 1
EndSplineSet
EndChar

StartChar: uni09C1
Encoding: 2497 2497 421
Width: 0
VWidth: 0
Flags: HW
LayerCount: 2
Fore
SplineSet
-155.935546875 -117.4140625 m 0
 -162.5859375 -117.525390625 -169.185546875 -118.321289062 -175.099609375 -119.799804688 c 1
 -175.099609375 -119.137695312 l 1
 -214.380859375 -127.043945312 -243.099609375 -161.049804688 -243.099609375 -203 c 0
 -243.099609375 -244.250976562 -214.380859375 -278.168945312 -175.099609375 -286.064453125 c 1
 -175.099609375 -285.400390625 l 1
 -169.185546875 -286.87890625 -162.5859375 -287.673828125 -155.935546875 -287.786132812 c 0
 -149.314453125 -287.669921875 -142.875 -286.8125 -136.69921875 -285.294921875 c 1
 -136.69921875 -286.064453125 l 1
 -97.41796875 -278.168945312 -68.69921875 -244.250976562 -68.69921875 -203 c 0
 -68.69921875 -161.049804688 -97.41796875 -127.043945312 -136.69921875 -119.137695312 c 1
 -136.69921875 -119.908203125 l 1
 -142.875 -118.387695312 -149.314453125 -117.530273438 -155.935546875 -117.4140625 c 0
-156.775390625 -408.598632812 m 0
 -157.017578125 -408.598632812 -157.2578125 -408.599609375 -157.5 -408.599609375 c 0
 -158.447265625 -408.599609375 -159.39453125 -408.59375 -160.33984375 -408.581054688 c 0
 -164.169921875 -408.543945312 -167.896484375 -408.436523438 -171.79296875 -408.118164062 c 0
 -279.466796875 -400.833007812 -363.900390625 -311.828125 -363.900390625 -203 c 0
 -363.900390625 -93.4072265625 -279.46875 -4.37109375 -171.796875 2.91796875 c 0
 -167.8984375 3.236328125 -164.171875 3.3447265625 -160.33984375 3.380859375 c 0
 -159.39453125 3.3935546875 -158.447265625 3.400390625 -157.5 3.400390625 c 0
 -157.2578125 3.400390625 -157.017578125 3.3994140625 -156.775390625 3.3984375 c 0
 -155.958984375 3.400390625 -155.134765625 3.400390625 -154.30078125 3.400390625 c 0
 -67.8798828125 3.400390625 5.7578125 -49.1005859375 36.6083984375 -124.098632812 c 1
 363.900390625 4 l 1
 363.900390625 -117.599609375 l 1
 70.30078125 -216.799804688 l 1
 363.900390625 -316 l 1
 363.900390625 -437.599609375 l 1
 25.060546875 -304.981445312 l 1
 -10.4130859375 -366.899414062 -77.2802734375 -408.599609375 -154.30078125 -408.599609375 c 0
 -155.134765625 -408.599609375 -155.958984375 -408.598632812 -156.775390625 -408.598632812 c 0
EndSplineSet
EndChar

StartChar: uni09C2
Encoding: 2498 2498 422
Width: 0
VWidth: 0
Flags: HW
HStem: 3 151<439.817 530.346> 367 151<439.817 530.346>
VStem: 246.346 151<196.066 324.529>
LayerCount: 2
Fore
SplineSet
22.677734375 15.6162109375 m 1
 403.4609375 -177.920898438 l 1
 342.163085938 -283.748046875 l 1
 101.260742188 -161.307617188 l 1
 61.8583984375 -295.822265625 -76.9072265625 -374.293945312 -212.094726562 -338.071289062 c 0
 -350.22265625 -301.059570312 -431.540039062 -160.213867188 -394.528320312 -22.0869140625 c 0
 -392.2578125 -13.6123046875 -389.588867188 -5.3486328125 -386.547851562 2.69140625 c 1
 -238.915039062 -36.8662109375 l 1
 -243.051757812 -44.3779296875 -246.353515625 -52.509765625 -248.673828125 -61.1689453125 c 0
 -264.203125 -119.124023438 -230.96875 -176.6875 -173.013671875 -192.215820312 c 0
 -116.0234375 -207.486328125 -58.4609375 -174.252929688 -42.931640625 -116.296875 c 0
 -40.611328125 -107.638671875 -39.4052734375 -98.9443359375 -39.2275390625 -90.3720703125 c 1
 -37.2783203125 -90.89453125 l 1
 -38.62109375 -90.2119140625 l 1
 22.677734375 15.6162109375 l 1
EndSplineSet
EndChar

StartChar: uni09C3
Encoding: 2499 2499 423
Width: 0
VWidth: 0
Flags: HW
LayerCount: 2
Fore
SplineSet
204.400390625 4 m 257
 204.400390625 -117.599609375 l 257
 -89.19921875 -216.799804688 l 257
 204.400390625 -316 l 257
 204.400390625 -437.599609375 l 257
 -204.400390625 -277.599609375 l 257
 -204.400390625 -156 l 257
 204.400390625 4 l 257
EndSplineSet
EndChar

StartChar: uni09C4
Encoding: 2500 2500 424
Width: 0
VWidth: 0
Flags: HW
LayerCount: 2
Fore
SplineSet
204.400390625 4 m 1
 204.400390625 -117.599609375 l 1
 157.933030391 -133.299804688 l 1
 204.400390625 -149 l 1
 204.400390625 -270.599609375 l 1
 -5.4000434696 -188.486093465 l 1
 -89.19921875 -216.799804688 l 1
 204.400390625 -316 l 1
 204.400390625 -437.599609375 l 1
 -204.400390625 -277.599609375 l 1
 -204.400390625 -156 l 1
 -146.401280761 -133.299804688 l 1
 -204.400390625 -110.599609375 l 1
 -204.400390625 11 l 1
 204.400390625 171 l 1
 204.400390625 49.400390625 l 1
 -89.19921875 -49.7998046875 l 1
 -5.4000434696 -78.1135159099 l 1
 204.400390625 4 l 1
EndSplineSet
EndChar

StartChar: uni09C7
Encoding: 2503 2503 425
Width: 624
VWidth: 75
Flags: HW
LayerCount: 2
Fore
SplineSet
621 803 m 5
 621 671 l 5
 454.5 671 l 5
 388.799804688 661 l 4
 274.5 661 182.700195312 472.5 182.700195312 356.400390625 c 4
 182.700195312 239.400390625 274.5 144.900390625 388.799804688 144.900390625 c 4
 411.798828125 144.900390625 433.88671875 148.725585938 454.5 155.791992188 c 5
 454.5 10.052734375 l 5
 433.234375 5.8173828125 411.26953125 3.599609375 388.799804688 3.599609375 c 4
 198.900390625 3.599609375 45 162 45 358.200195312 c 4
 45 461.798556121 88.3053817943 581.464209966 157.317790725 671 c 5
 0 671 l 5
 0 803 l 5
 621 803 l 5
EndSplineSet
EndChar

StartChar: uni09C8
Encoding: 2504 2504 426
Width: 624
VWidth: 75
Flags: HW
LayerCount: 2
Fore
SplineSet
621 803 m 1
 621 671 l 1
 454.5 671 l 1
 388.799804688 661 l 1
 274.5 661 182.700195312 472.5 182.700195312 356.400390625 c 0
 182.700195312 239.400390625 274.5 144.900390625 388.799804688 144.900390625 c 0
 411.798828125 144.900390625 433.88671875 148.725585938 454.5 155.791992188 c 1
 454.5 10.052734375 l 1
 433.234375 5.8173828125 411.26953125 3.599609375 388.799804688 3.599609375 c 0
 198.900390625 3.599609375 45 162 45 358.200195312 c 0
 45 461.798556121 88.3053817943 581.464209966 157.317790725 671 c 1
 0 671 l 1
 0 803 l 1
 333.488825367 803 l 1
 327.990715846 828.393884523 317.923165746 854.420599746 299.7890625 872.776367188 c 0
 268.380859375 903.592773438 267.673828125 904.299804688 236.560546875 935.412109375 c 0
 189.891601562 982.081054688 131.202148438 962.989257812 84.5322265625 1009.65820312 c 0
 49.177734375 1045.01367188 43.5205078125 1129.8671875 43.5205078125 1129.8671875 c 1
 131.909179688 1218.25488281 l 1
 131.909179688 1218.25488281 139.6875 1131.28125 175.749023438 1095.21875 c 0
 221.00390625 1049.96386719 278.280273438 1071.88378906 323.53515625 1026.62890625 c 0
 357.475585938 992.688476562 360.3046875 989.859375 394.245117188 955.918945312 c 0
 444.2734375 905.890625 424.794921875 808.1796875 427.479492188 808.1328125 c 1
 422.346622977 803 l 1
 621 803 l 1
EndSplineSet
EndChar

StartChar: uni09D7
Encoding: 2519 2519 427
Width: 254
VWidth: 0
Flags: HW
LayerCount: 2
Fore
SplineSet
255 803 m 1
 255 671 l 1
 210 671 l 1
 210 -2 l 1
 58 -2 l 1
 58 671 l 1
 0 671 l 1
 0 803 l 1
 58 803 l 1
 68.1728515625 803 l 1
 62.3720703125 817.458007812 54.4833984375 830.951171875 43.7890625 841.776367188 c 0
 12.380859375 872.592773438 11.673828125 873.299804688 -19.439453125 904.412109375 c 0
 -66.1083984375 951.081054688 -124.797851562 931.989257812 -171.467773438 978.658203125 c 0
 -206.822265625 1014.01367188 -212.479492188 1098.8671875 -212.479492188 1098.8671875 c 1
 -124.090820312 1187.25488281 l 1
 -124.090820312 1187.25488281 -116.3125 1100.28125 -80.2509765625 1064.21875 c 0
 -34.99609375 1018.96386719 22.2802734375 1040.88378906 67.53515625 995.62890625 c 0
 101.475585938 961.688476562 104.3046875 958.859375 138.245117188 924.918945312 c 0
 172.061523438 891.102539062 174.120117188 835.5 172.732421875 803 c 1
 210 803 l 1
 255 803 l 1
EndSplineSet
EndChar

StartChar: uni09E1
Encoding: 2529 2529 433
Width: 779
VWidth: 0
Flags: HW
HStem: 616 157<51.091 217.973> -14 161<51.091 217.973>
VStem: 352 153<282.8 477.701>
LayerCount: 2
Fore
SplineSet
308.26171875 -146.48828125 m 5
 307.918945312 -143.067382812 307.744140625 -139.59765625 307.744140625 -136.088867188 c 4
 307.744140625 -78.888671875 353.744140625 -32.888671875 410.543945312 -32.888671875 c 4
 448.513671875 -32.888671875 481.547851562 -53.1572265625 499.467773438 -83.517578125 c 5
 506.973632812 -52.9345703125 498.454101562 -19.0068359375 474.2421875 5.205078125 c 4
 437.47265625 41.974609375 378.923828125 42.8232421875 343.002929688 6.90234375 c 4
 335.775390625 -0.326171875 330.036132812 -8.4697265625 325.778320312 -17.16796875 c 5
 279.977539062 28.6328125 l 5
 285.329101562 36.6474609375 291.53515625 44.2470703125 298.596679688 51.30859375 c 4
 358.276367188 110.98828125 456.422851562 109.57421875 518.083007812 47.9140625 c 4
 579.458984375 -13.462890625 580.874023438 -111.609375 521.194335938 -171.2890625 c 4
 514.1328125 -178.349609375 506.533203125 -184.555664062 498.51953125 -189.908203125 c 5
 455.099609375 -146.48828125 l 5
 452.08984375 -146.48828125 l 5
 452.291015625 -145.671875 452.46875 -144.846679688 452.623046875 -144.01171875 c 6
 451.587890625 -142.977539062 l 5
 452.02734375 -142.762695312 452.463867188 -142.543945312 452.900390625 -142.322265625 c 4
 453.192382812 -140.286132812 453.34375 -138.205078125 453.34375 -136.088867188 c 4
 453.34375 -112.088867188 434.543945312 -93.2880859375 410.543945312 -93.2890625 c 4
 386.943359375 -93.2880859375 368.143554688 -112.088867188 368.14453125 -136.088867188 c 4
 368.143554688 -139.673828125 368.578125 -143.158203125 369.396484375 -146.48828125 c 5
 308.26171875 -146.48828125 l 5
98.1552734375 103.778320312 m 1
 97.2978515625 112.33203125 96.859375 121.004882812 96.859375 129.778320312 c 0
 96.859375 272.778320312 211.859375 387.779296875 353.859375 387.779296875 c 0
 448.783176582 387.779296875 531.369221454 337.105937218 576.17051436 261.206784434 c 1
 594.933037441 337.664683471 573.635885835 422.482278228 513.10546875 483.012695312 c 0
 421.181640625 574.936523438 274.810546875 577.05859375 185.0078125 487.255859375 c 0
 166.9375 469.185546875 152.58984375 448.826171875 141.946289062 427.079101562 c 1
 27.443359375 541.583007812 l 1
 40.8232421875 561.619140625 56.337890625 580.618164062 73.9921875 598.271484375 c 0
 223.19140625 747.470703125 468.557617188 743.935546875 622.70703125 589.786132812 c 0
 776.1484375 436.34375 779.684570312 190.977539062 630.485351562 41.7783203125 c 0
 612.831054688 24.125 593.83203125 8.6103515625 573.797851562 -4.771484375 c 1
 465.248046875 103.778320312 l 1
 457.724609375 103.778320312 l 1
 458.227169004 105.819684483 458.671790108 107.8841184 459.056659279 109.969707909 c 2
 456.470703125 112.555664062 l 1
 457.567377345 113.092867924 458.660540257 113.639482492 459.750074904 114.195510898 c 0
 460.481746805 119.283482789 460.859951496 124.486659364 460.859375 129.778320312 c 0
 460.860351562 189.778320312 413.859375 236.779296875 353.859375 236.778320312 c 0
 294.859375 236.779296875 247.859375 189.778320312 247.860351562 129.778320312 c 0
 247.859375 120.814453125 248.9453125 112.104492188 250.991210938 103.778320312 c 1
 98.1552734375 103.778320312 l 1
EndSplineSet
EndChar

StartChar: uni09E0
Encoding: 2528 2528 434
Width: 1344
Flags: HW
LayerCount: 2
Fore
SplineSet
922 777 m 1
 1068 777 l 1
 1068 285.5 l 1
 1142.5 211 l 1
 1144.5 795 l 1
 1344.5 795 l 1
 1344.5 663 l 1
 1294.5 663 l 1
 1294.5 0 l 1
 1292 -5.84399771914e-17 l 1
 1292 -89 l 1
 998.400390625 -188.200195312 l 1
 1292 -287.400390625 l 1
 1292 -409 l 1
 883.19921875 -249 l 1
 883.19921875 -127.400390625 l 1
 1208.70783887 -2.33217588487e-14 l 1
 1142.51869159 -7.1054273576e-15 l 1
 1140.5 -2 l 1
 1068 70.5 l 1
 1068 1 l 1
 921 1 l 1
 921 2.69536423841 l 1
 468.5 179.5 l 1
 468.5 331.5 l 1
 714.940742143 561.511359334 l 1
 725.203214025 629.376092746 l 1
 698.94332835 553.631429771 627.707876939 500 544 500 c 0
 482.708904526 500 428.503299832 527.697827594 393.080896136 571.395772564 c 1
 357.870795121 527.697827594 304.156075188 500 244 500 c 0
 136 500 50 586 50 694 c 0
 50 700 50 707 50 713 c 1
 166 713 l 1
 164 707 163 700 163 694 c 0
 163 649 199 613 244 613 c 0
 289 613 323 649 323 694 c 0
 323 700 322 707 320 713 c 1
 350 713 l 1
 436 713 l 1
 466 713 l 1
 464 707 463 700 463 694 c 0
 463 649 499 613 544 613 c 0
 589 613 623 649 623 694 c 0
 623 700 622 770 620 776 c 1
 922 777 l 1
921 159.684466019 m 1
 921 709.262695312 l 1
 754 444 l 1
 753.189373297 445.121079483 l 1
 612.5 273.5 l 1
 921 159.684466019 l 1
EndSplineSet
EndChar

StartChar: uni09E2
Encoding: 2530 2530 435
Width: 0
VWidth: 0
Flags: HW
LayerCount: 2
Fore
SplineSet
-114.251953125 -146.48828125 m 5
 -114.594726562 -143.067382812 -114.76953125 -139.59765625 -114.76953125 -136.088867188 c 4
 -114.76953125 -78.888671875 -68.76953125 -32.888671875 -11.9697265625 -32.888671875 c 4
 26 -32.888671875 59.0341796875 -53.1572265625 76.9541015625 -83.517578125 c 5
 84.4599609375 -52.9345703125 75.9404296875 -19.0068359375 51.728515625 5.205078125 c 4
 14.958984375 41.974609375 -43.58984375 42.8232421875 -79.5107421875 6.90234375 c 4
 -86.73828125 -0.326171875 -92.4775390625 -8.4697265625 -96.7353515625 -17.16796875 c 5
 -142.536132812 28.6328125 l 5
 -137.184570312 36.6474609375 -130.978515625 44.2470703125 -123.916992188 51.30859375 c 4
 -64.2373046875 110.98828125 33.9091796875 109.57421875 95.5693359375 47.9140625 c 4
 156.9453125 -13.462890625 158.360351562 -111.609375 98.6806640625 -171.2890625 c 4
 91.619140625 -178.349609375 84.01953125 -184.555664062 76.005859375 -189.908203125 c 5
 32.5859375 -146.48828125 l 5
 29.576171875 -146.48828125 l 5
 29.77734375 -145.671875 29.955078125 -144.846679688 30.109375 -144.01171875 c 6
 29.07421875 -142.977539062 l 5
 29.513671875 -142.762695312 29.9501953125 -142.543945312 30.38671875 -142.322265625 c 4
 30.6787109375 -140.286132812 30.830078125 -138.205078125 30.830078125 -136.088867188 c 4
 30.830078125 -112.088867188 12.0302734375 -93.2880859375 -11.9697265625 -93.2890625 c 4
 -35.5703125 -93.2880859375 -54.3701171875 -112.088867188 -54.369140625 -136.088867188 c 4
 -54.3701171875 -139.673828125 -53.935546875 -143.158203125 -53.1171875 -146.48828125 c 5
 -114.251953125 -146.48828125 l 5
EndSplineSet
EndChar

StartChar: uni09E3
Encoding: 2531 2531 436
Width: 0
VWidth: 0
Flags: HW
LayerCount: 2
Fore
SplineSet
41.7421875 -294.580078125 m 5
 41.3994140625 -291.159179688 41.224609375 -287.689453125 41.224609375 -284.180664062 c 4
 41.224609375 -226.98046875 87.224609375 -180.98046875 144.024414062 -180.98046875 c 4
 181.994140625 -180.98046875 215.028320312 -201.249023438 232.948242188 -231.609375 c 5
 240.454101562 -201.026367188 231.934570312 -167.098632812 207.72265625 -142.88671875 c 4
 170.953125 -106.1171875 112.404296875 -105.268554688 76.4833984375 -141.189453125 c 4
 69.255859375 -148.41796875 63.5166015625 -156.561523438 59.2587890625 -165.259765625 c 5
 13.4580078125 -119.458984375 l 5
 18.8095703125 -111.444335938 25.015625 -103.844726562 32.0771484375 -96.783203125 c 4
 91.7568359375 -37.103515625 189.903320312 -38.517578125 251.563476562 -100.177734375 c 4
 312.939453125 -161.5546875 314.354492188 -259.701171875 254.674804688 -319.380859375 c 4
 247.61328125 -326.44140625 240.013671875 -332.647460938 232 -338 c 5
 188.580078125 -294.580078125 l 5
 185.5703125 -294.580078125 l 5
 185.771484375 -293.763671875 185.94921875 -292.938476562 186.103515625 -292.103515625 c 6
 185.068359375 -291.069335938 l 5
 185.5078125 -290.854492188 185.944335938 -290.635742188 186.380859375 -290.4140625 c 4
 186.672851562 -288.377929688 186.82421875 -286.296875 186.82421875 -284.180664062 c 4
 186.82421875 -260.180664062 168.024414062 -241.379882812 144.024414062 -241.380859375 c 4
 120.423828125 -241.379882812 101.624023438 -260.180664062 101.625 -284.180664062 c 4
 101.624023438 -287.765625 102.05859375 -291.25 102.876953125 -294.580078125 c 5
 41.7421875 -294.580078125 l 5
-143.2578125 -158.580078125 m 1
 -143.600585938 -155.159179688 -143.775390625 -151.689453125 -143.775390625 -148.180664062 c 0
 -143.775390625 -90.98046875 -97.775390625 -44.98046875 -40.9755859375 -44.98046875 c 0
 -3.005859375 -44.98046875 30.0283203125 -65.2490234375 47.9482421875 -95.609375 c 1
 55.4541015625 -65.0263671875 46.9345703125 -31.0986328125 22.72265625 -6.88671875 c 0
 -14.046875 29.8828125 -72.595703125 30.7314453125 -108.516601562 -5.189453125 c 0
 -115.744140625 -12.41796875 -121.483398438 -20.5615234375 -125.741210938 -29.259765625 c 1
 -171.541992188 16.541015625 l 1
 -166.190429688 24.5556640625 -159.984375 32.1552734375 -152.922851562 39.216796875 c 0
 -93.2431640625 98.896484375 4.9033203125 97.482421875 66.5634765625 35.822265625 c 0
 127.939453125 -25.5546875 129.354492188 -123.701171875 69.6748046875 -183.380859375 c 0
 62.61328125 -190.44140625 55.013671875 -196.647460938 47 -202 c 1
 3.580078125 -158.580078125 l 1
 0.5703125 -158.580078125 l 1
 0.771484375 -157.763671875 0.94921875 -156.938476562 1.103515625 -156.103515625 c 2
 0.068359375 -155.069335938 l 1
 0.5078125 -154.854492188 0.9443359375 -154.635742188 1.380859375 -154.4140625 c 0
 1.6728515625 -152.377929688 1.82421875 -150.296875 1.82421875 -148.180664062 c 0
 1.82421875 -124.180664062 -16.9755859375 -105.379882812 -40.9755859375 -105.380859375 c 0
 -64.576171875 -105.379882812 -83.3759765625 -124.180664062 -83.375 -148.180664062 c 0
 -83.3759765625 -151.765625 -82.94140625 -155.25 -82.123046875 -158.580078125 c 1
 -143.2578125 -158.580078125 l 1
EndSplineSet
EndChar

StartChar: uni09F2
Encoding: 2546 2546 437
Width: 445
VWidth: 0
Flags: HW
LayerCount: 2
Fore
SplineSet
158 427 m 5
 391 69 l 5
 285 8 l 5
 52 366 l 5
 158 427 l 5
EndSplineSet
EndChar

StartChar: uni09F3
Encoding: 2547 2547 438
Width: 806
VWidth: 0
Flags: HW
HStem: 671 132<0 50 217 639> 671 90<50 217>
VStem: 53 164<172.77 761> 452 164<172.95 373>
LayerCount: 2
Fore
SplineSet
216 772 m 25
 216 772 247 869 230 928 c 24
 222 956 187 941 162 956 c 24
 138 970 106 1002 106 1002 c 25
 120 1094 l 25
 120 1094 205 1095 252 1074 c 24
 315 1046 370 1034 394 970 c 24
 424 890 372 752 372 752 c 25
 216 772 l 25
774 184 m 1
 705.931640625 -55.4130859375 280.236328125 -59.4453125 211 184 c 1
 208.467773438 671 l 1
 32 671 l 5
 32 803 l 5
 639 803 l 1
 639 671 l 1
 375 671 l 1
 375 185 l 1
 413.237304688 141.02734375 572.430664062 139.916992188 610 185 c 1
 610 373 l 1
 777 373 l 1
 774 184 l 1
EndSplineSet
EndChar

StartChar: uni09F4
Encoding: 2548 2548 439
Width: 445
VWidth: 0
Flags: HW
LayerCount: 2
Fore
SplineSet
290 467 m 1
 396 406 l 1
 163 48 l 1
 57 109 l 1
 290 467 l 1
EndSplineSet
EndChar

